<svg width="16" height="16" viewBox="0 0 16 16" fill="none" xmlns="http://www.w3.org/2000/svg">
<rect x="0.25" y="0.25" width="15.5" height="15.5" rx="7.75" fill="#F2F2F2" stroke="#F2F2F2" stroke-width="0.5"/>
<path d="M5.85165 3.48438C4.82662 3.97171 3.99789 4.79329 3.50169 5.81407C3.00549 6.83484 2.87134 7.99406 3.12131 9.10118C3.37127 10.2083 3.99047 11.1974 4.87712 11.906C5.76377 12.6145 6.8651 13.0004 8.00009 13C4.1329 9.39063 3.24228 4.9375 5.85165 3.48438ZM8.00009 13C9.13508 13.0004 10.2364 12.6145 11.1231 11.906C12.0097 11.1974 12.6289 10.2083 12.8789 9.10118C13.1288 7.99406 12.9947 6.83484 12.4985 5.81407C12.0023 4.79329 11.1736 3.97171 10.1485 3.48438C12.7579 4.9375 11.8673 9.39063 8.00009 13Z" fill="#323E56"/>
<path d="M9.85156 5.64062C9.85156 5.88378 9.80367 6.12455 9.71062 6.34919C9.61757 6.57383 9.48119 6.77794 9.30925 6.94988C9.13732 7.12181 8.9332 7.2582 8.70856 7.35125C8.48392 7.4443 8.24315 7.49219 8 7.49219C7.75685 7.49219 7.51608 7.4443 7.29144 7.35125C7.0668 7.2582 6.86268 7.12181 6.69075 6.94988C6.51881 6.77794 6.38243 6.57383 6.28938 6.34919C6.19633 6.12455 6.14844 5.88378 6.14844 5.64062C6.14844 5.14956 6.34351 4.67861 6.69075 4.33137C7.03798 3.98414 7.50894 3.78906 8 3.78906C8.49107 3.78906 8.96202 3.98414 9.30925 4.33137C9.65649 4.67861 9.85156 5.14956 9.85156 5.64062Z" fill="#323E56"/>
</svg>
