<svg xmlns="http://www.w3.org/2000/svg" width="50" height="50" fill="none"><path fill="#bebebe" d="M40 0H10C4.477 0 0 4.477 0 10v30c0 5.523 4.477 10 10 10h30c5.523 0 10-4.477 10-10V10c0-5.523-4.477-10-10-10z" style="stroke-width:1"/><path fill="#bfbfbf" fill-opacity=".9" fill-rule="evenodd" d="M29.023 20.012v6.053a1.226 1.226 0 0 0 2.451 0v-6.053a1.226 1.226 0 0 0-2.451 0z" clip-rule="evenodd" style="fill:#323737;fill-opacity:1;stroke-width:1"/><path fill="#E1000F" fill-opacity=".9" fill-rule="evenodd" d="m24.393 18.047 5.242 3.027a1.226 1.226 0 0 0 1.225-2.123l-5.241-3.027a1.226 1.226 0 0 0-1.226 2.123z" clip-rule="evenodd" style="fill:#323737;fill-opacity:1;stroke-width:1"/><path fill="#000091" fill-opacity=".9" fill-rule="evenodd" d="m29.635 25.004-5.242 3.026a1.226 1.226 0 0 0 1.226 2.123l5.241-3.027a1.226 1.226 0 0 0-1.225-2.122z" clip-rule="evenodd" style="fill:#323737;fill-opacity:1;stroke-width:1"/><path fill="#bfbfbf" fill-opacity=".9" fill-rule="evenodd" d="M20.99 26.065v-6.053a1.226 1.226 0 0 0-2.451 0v6.053a1.226 1.226 0 0 0 2.451 0z" clip-rule="evenodd" style="fill:#323737;fill-opacity:1;stroke-width:1"/><path fill="#000091" fill-opacity=".9" fill-rule="evenodd" d="m20.377 21.074 5.242-3.027a1.226 1.226 0 0 0-1.226-2.123l-5.241 3.027a1.226 1.226 0 0 0 1.225 2.123z" clip-rule="evenodd" style="fill:#323737;fill-opacity:1;stroke-width:1"/><path fill="#E1000F" fill-opacity=".9" fill-rule="evenodd" d="m14.934 27.326 4.84-.035a1.226 1.226 0 0 0-.018-2.452l-4.84.035a1.226 1.226 0 0 0 .018 2.452z" clip-rule="evenodd" style="fill:#323737;fill-opacity:1;stroke-width:1"/><path fill="#bfbfbf" fill-opacity=".9" fill-rule="evenodd" d="M18.62 14.22A9.977 9.977 0 0 1 25 11.924c2.424 0 4.648.864 6.38 2.298a1.226 1.226 0 0 0 1.564-1.888A12.417 12.417 0 0 0 25 9.471a12.417 12.417 0 0 0-7.944 2.862 1.226 1.226 0 0 0 1.564 1.888z" clip-rule="evenodd" style="fill:#323737;fill-opacity:1;stroke-width:1"/><path fill="#000091" fill-opacity=".9" fill-rule="evenodd" d="M16.022 25.565c-.622-1.309-1.035-2.553-1.035-3.628a9.998 9.998 0 0 1 3.632-7.716 1.225 1.225 0 1 0-1.563-1.888 12.443 12.443 0 0 0-4.52 9.604c0 1.385.473 2.997 1.271 4.679a1.226 1.226 0 0 0 2.215-1.051z" clip-rule="evenodd" style="fill:#323737;fill-opacity:1;stroke-width:1"/><path fill="#E1000F" fill-opacity=".9" fill-rule="evenodd" d="M31.38 14.221a9.997 9.997 0 0 1 3.633 7.716c0 1.682-.967 3.75-2.248 5.846-3.235 5.298-8.629 10.652-8.629 10.652a1.224 1.224 0 1 0 1.728 1.737s5.62-5.586 8.993-11.11c1.551-2.541 2.607-5.087 2.607-7.125 0-3.861-1.759-7.318-4.52-9.604a1.226 1.226 0 0 0-1.564 1.888z" clip-rule="evenodd" style="fill:#323737;fill-opacity:1;stroke-width:1"/><path fill="#000091" fill-opacity=".9" fill-rule="evenodd" d="M25.864 38.435s-3.874-3.85-7.03-8.252a1.227 1.227 0 0 0-1.992 1.427c3.275 4.57 7.294 8.562 7.294 8.562.48.478 1.257.475 1.734-.006a1.224 1.224 0 0 0-.006-1.731z" clip-rule="evenodd" style="fill:#323737;fill-opacity:1;stroke-width:1"/></svg>