<?xml version="1.0" encoding="UTF-8" standalone="no"?>
<svg width="50" height="50" viewBox="0 0 50 50" fill="none" version="1.1" id="svg11" sodipodi:docname="cadastrefr.svg" inkscape:version="1.4 (e7c3feb100, 2024-10-09)" xmlns:inkscape="http://www.inkscape.org/namespaces/inkscape" xmlns:sodipodi="http://sodipodi.sourceforge.net/DTD/sodipodi-0.dtd" xmlns="http://www.w3.org/2000/svg" xmlns:svg="http://www.w3.org/2000/svg">
  <sodipodi:namedview id="namedview11" pagecolor="#ffffff" bordercolor="#666666" borderopacity="1.0" inkscape:showpageshadow="2" inkscape:pageopacity="0.0" inkscape:pagecheckerboard="0" inkscape:deskcolor="#d1d1d1" inkscape:zoom="13.793103" inkscape:cx="26.8975" inkscape:cy="29" inkscape:window-width="1920" inkscape:window-height="1011" inkscape:window-x="0" inkscape:window-y="0" inkscape:window-maximized="1" inkscape:current-layer="svg11" />
  <path d="m 40,0 h -30.0000001 c -5.5228483,0 -9.9999999,4.4771516 -9.9999999,9.9999999 v 30.0000001 c 0,5.52283 4.4771516,10 9.9999999,10 h 30.0000001 c 5.52283,0 10,-4.47717 10,-10 v -30.0000001 c 0,-5.5228483 -4.47717,-9.9999999 -10,-9.9999999 z" fill="#bebebe" id="path1" style="stroke-width:1" />
  <g clip-path="url(#clip0_2551_1294)" id="g11" transform="matrix(0.81657442,0,0,0.81316069,2.2824827,1.4415912)" style="stroke-width:1.2272">
    <path d="m 8.0083,29.3992 31.7218,15.6597" stroke="#323737" stroke-width="2.45439" stroke-linecap="round" stroke-linejoin="round" id="path2" />
    <path d="m 15.4746,22.5571 31.7218,15.6597" stroke="#323737" stroke-width="2.45439" stroke-linecap="round" stroke-linejoin="round" id="path3" />
    <path d="m 21.2266,16.3064 19.7188,9.7397" stroke="#323737" stroke-width="2.45439" stroke-linecap="round" stroke-linejoin="round" id="path4" />
    <path d="m 31.573,16.6824 -9.1297,19.1468" stroke="#323737" stroke-width="2.45439" stroke-linecap="round" stroke-linejoin="round" id="path5" />
    <path d="m 34.0458,41.4493 7.3786,-15.1531" stroke="#323737" stroke-width="2.45439" stroke-linecap="round" stroke-linejoin="round" id="path6" />
    <path d="m 28.9783,23.6762 2.3573,6.7107" stroke="#323737" stroke-linejoin="round" id="path7" style="stroke-width:1.2272" />
    <path d="m 30.0432,21.075 3.9433,10.8931" stroke="#323737" stroke-linejoin="round" id="path8" style="stroke-width:1.2272" />
    <path d="m 32.251,22.076 3.9433,10.8931" stroke="#323737" stroke-linejoin="round" id="path9" style="stroke-width:1.2272" />
    <path d="m 34.6909,22.659 3.5197,10.952" stroke="#323737" stroke-linejoin="round" id="path10" style="stroke-width:1.2272" />
    <path d="m 37.0869,24.4162 1.875,5.3321" stroke="#323737" stroke-linejoin="round" id="path11" style="stroke-width:1.2272" />
    <line x1="9.7997704" y1="29.9617" x2="25.990601" y2="13.0849" stroke="#323737" stroke-width="2.45439" stroke-linecap="round" id="line11" />
  </g>
  <defs id="defs11">
    <clipPath id="clip0_2551_1294">
      <rect width="33.113998" height="34.9132" fill="#ffffff" transform="rotate(-46.1884,41.875429,11.737808)" id="rect11" x="0" y="0" />
    </clipPath>
  </defs>
</svg>
