<svg width="50" height="50" viewBox="0 0 50 50" fill="none" xmlns="http://www.w3.org/2000/svg">
<rect width="50" height="50" rx="10" fill="#BEBEBE"/>
<rect width="30" height="30" transform="translate(10 10)" fill="#BEBEBE"/>
<path fill-rule="evenodd" clip-rule="evenodd" d="M36.0221 30.9946C35.8268 30.5836 35.3496 30.3873 34.9122 30.538L34.7994 30.5773L34.6933 30.5049C34.8068 30.369 34.876 30.2023 34.891 30.0237C34.9138 29.7571 34.8137 29.499 34.6177 29.3167L34.5544 29.2576C34.7583 29.1039 34.8903 28.8661 34.9053 28.6072L34.9296 28.1516C34.94 27.9327 34.8668 27.7187 34.7229 27.5479L34.3853 27.1524C34.6034 26.8574 34.6116 26.4559 34.4052 26.1509L34.1193 25.7331L33.9976 25.5829L33.9024 25.2631C33.8113 24.958 33.5625 24.7349 33.2629 24.6605L34.1375 23.5544C34.248 23.5199 34.3511 23.4651 34.4401 23.3925L34.9495 22.9759C35.1585 22.8046 35.2751 22.554 35.2697 22.2891L35.2481 20.9832L35.526 20.1956C35.5479 20.1315 35.5619 20.0667 35.5688 19.9961L35.5887 19.7788L35.9774 19.0555C36.193 18.6551 36.0562 18.1504 35.6656 17.9058L35.305 17.682C35.1669 17.5954 35.0066 17.5478 34.841 17.5443L34.4276 17.537L34.1438 17.3871C33.99 17.3065 33.819 17.2727 33.6317 17.2882L33.1657 17.335L32.8151 16.9151C32.7023 16.7799 32.5522 16.6821 32.3815 16.6317L31.8961 16.489C31.7037 16.4324 31.4932 16.4427 31.3015 16.5183L31.1778 16.5681L31.0805 16.5268C30.9512 16.4708 30.8085 16.4462 30.6712 16.454L30.0651 16.0511V15.7377C30.0651 15.4676 29.9408 15.2164 29.7239 15.0487C29.508 14.8825 29.2233 14.8214 28.963 14.8855L28.668 14.9551C28.582 14.8144 28.4561 14.6987 28.3005 14.6211L27.9419 14.4456C27.8677 14.4085 27.7901 14.3822 27.7095 14.367C27.5811 14.2057 27.3991 14.0936 27.1955 14.0503L27.1465 13.8933C27.0322 13.5205 26.6884 13.2704 26.2916 13.2704H26.151L25.8805 12.8818C25.6712 12.5797 25.2844 12.4367 24.9169 12.5266L23.4761 12.8949C23.2153 12.9617 23.0012 13.138 22.8889 13.3791L22.572 14.0605C22.5133 14.1895 22.4867 14.3324 22.4954 14.4754L22.5533 15.3627L22.1466 15.7277L20.6302 16.2379C20.2931 16.3503 20.0568 16.6475 20.028 16.9945L20.0195 17.0939L19.2205 16.9392L18.605 16.2905C18.4195 16.096 18.1477 15.9906 17.9073 16.0138L17.1897 16.0496C16.9213 16.0644 16.677 16.1941 16.5201 16.4049C16.3629 16.6142 16.3088 16.8796 16.3713 17.1335L16.6081 18.0796L16.9248 18.8244L16.6903 18.7828C16.5267 18.7523 16.3568 18.7678 16.1988 18.8281L16.1307 18.8544L15.8066 18.5312C15.6239 18.3487 15.3659 18.2551 15.0895 18.2723L13.3386 18.4268C13.2371 18.4351 13.1393 18.4604 13.0367 18.5057L11.7654 19.0878C11.3494 19.2785 11.1493 19.7432 11.2999 20.1693L11.4939 20.7169C11.5564 20.8926 11.6773 21.0461 11.8379 21.1542C11.7942 21.3645 11.8294 21.5876 11.9417 21.7736L12.1469 22.1169C12.3064 22.3848 12.6019 22.551 12.9178 22.551H13.4004L15.0788 23.2057L15.3797 23.5965C15.4368 23.6696 15.5047 23.7329 15.5818 23.785L15.6744 23.8479C15.6752 23.8514 15.6759 23.8549 15.6767 23.8584L15.8839 24.7797C15.9122 24.9004 15.9651 25.0118 16.0411 25.1109L16.7396 26.0207C16.8202 26.1279 16.9274 26.2168 17.0489 26.2779L17.4587 26.4842C17.4743 26.5775 17.5054 26.6679 17.5508 26.7518C17.3663 26.9233 17.2617 27.1619 17.2653 27.411C17.2673 27.5567 17.3071 27.7002 17.3791 27.8266C17.3681 27.8674 17.3602 27.9092 17.3553 27.9513L17.0894 30.2285C17.0726 30.3692 17.0899 30.5092 17.1397 30.6391C17.1272 30.6772 17.117 30.7157 17.1098 30.7548L16.7883 32.479L16.2085 33.171C16.0403 33.3723 15.9725 33.6354 16.0222 33.8938C16.073 34.1484 16.2351 34.367 16.4683 34.4944L16.8406 34.6957L17.0182 35.0019C17.1139 35.1674 17.2645 35.2998 17.4418 35.3747L18.3126 35.742L18.5731 36.0134C18.741 36.1886 18.9778 36.289 19.2231 36.289H19.6092L19.8662 36.4377C19.9708 36.4991 20.0846 36.5384 20.2053 36.5541L21.725 36.7552C21.983 36.7917 22.243 36.7149 22.4387 36.5461C22.4755 36.5143 22.5092 36.4803 22.5401 36.4432L22.6876 36.4745L23.04 36.616C23.1119 36.8478 23.2806 37.0438 23.5049 37.1505L23.9347 37.3553C24.1072 37.4357 24.307 37.4594 24.4974 37.4226L24.8623 37.3495L25.6669 37.4902L25.7948 37.5C25.8754 37.5 25.9558 37.4895 26.0242 37.4707L26.985 37.2201C27.2146 37.1585 27.4122 37.0083 27.5265 36.8088C27.6441 36.6065 27.675 36.3611 27.6102 36.1348L27.3775 35.3316L27.6168 34.8554L28.3775 34.4063C28.5735 34.529 28.8106 34.5708 29.0372 34.5252L29.3149 34.6757C29.4787 34.7621 29.666 34.7961 29.8508 34.7731C29.8709 34.7806 29.8916 34.7873 29.9128 34.7934L30.7199 35.0242L31.9326 35.3016C32.0439 35.3289 32.162 35.3344 32.2741 35.3186L32.8646 35.236C32.9225 35.2282 32.9781 35.2145 33.0506 35.1899L33.8389 34.9045C34.0624 34.8229 34.2462 34.6547 34.3419 34.4436C34.3993 34.3187 34.4258 34.1825 34.4202 34.047L34.8101 33.8014L35.7105 33.0686C35.9521 32.8701 36.0677 32.5667 36.0208 32.2662L36.07 32.1976C36.2675 31.9413 36.3056 31.5998 36.1688 31.3068L36.0221 30.9946Z" fill="#323737"/>
</svg>
