<svg width="50" height="50" viewBox="0 0 50 50" fill="none" xmlns="http://www.w3.org/2000/svg">
<rect width="50" height="50" rx="10" fill="#BEBEBE"/>
<path d="M10.4275 16.4956C10.0602 16.7663 10.0002 16.9595 10.0002 17.0488V17.0517C10.0017 17.141 10.0632 17.3341 10.4275 17.6019C10.7846 17.8639 11.3378 18.1244 12.0739 18.3527C13.5402 18.8078 15.6007 19.0975 17.9027 19.0975C20.2048 19.0975 22.2653 18.8078 23.7316 18.3527C24.4676 18.1244 25.0208 17.8639 25.3779 17.6019C25.7452 17.3312 25.8052 17.138 25.8052 17.0488C25.8052 16.9595 25.7452 16.7663 25.3779 16.4956C25.0208 16.2336 24.4676 15.9732 23.7316 15.7449C22.2652 15.2898 20.2048 15 17.9027 15C15.6007 15 13.5402 15.2898 12.0739 15.7449C11.3378 15.9732 10.7846 16.2336 10.4275 16.4956Z" fill="#323737"/>
<path d="M29.6112 30.8047H26.9756V29.0486H29.6112C30.3253 29.0486 30.9882 29.4203 31.3599 30.0305L32.5043 31.9081C32.5585 31.9959 32.6521 32.0485 32.7546 32.0485H33.6824C33.6033 32.328 33.5609 32.6222 33.5609 32.9266C33.5609 33.231 33.6033 33.5251 33.6824 33.8046H32.7546C32.0404 33.8046 31.3775 33.4329 31.0058 32.8227L29.8614 30.9452C29.8073 30.8574 29.7136 30.8047 29.6112 30.8047Z" fill="#323737"/>
<path d="M34.8532 26.4143H26.9758V24.6582H34.8532C34.7741 24.9377 34.7317 25.2318 34.7317 25.5363C34.7317 25.8407 34.7741 26.1348 34.8532 26.4143Z" fill="#323737"/>
<path d="M29.6112 22.0976H26.9756V20.3415H29.6112C29.7136 20.3415 29.8073 20.2888 29.8614 20.201L31.0058 18.3235C31.3775 17.7133 32.0404 17.3416 32.7546 17.3416H33.6824C33.6033 17.6211 33.5609 17.9152 33.5609 18.2196C33.5609 18.524 33.6033 18.8182 33.6824 19.0977H32.7546C32.6521 19.0977 32.5585 19.1503 32.5043 19.2382L31.3599 21.1157C30.9882 21.7259 30.3253 22.0976 29.6112 22.0976Z" fill="#323737"/>
<path d="M36.7805 16.1704C37.9117 16.1704 38.8292 17.088 38.8292 18.2192C38.8292 19.3504 37.9117 20.268 36.7805 20.268C35.6492 20.268 34.7317 19.3504 34.7317 18.2192C34.7317 17.088 35.6492 16.1704 36.7805 16.1704Z" fill="#323737"/>
<path d="M37.9511 23.4878C39.0823 23.4878 39.9999 24.4053 39.9999 25.5366C39.9999 26.6678 39.0823 27.5853 37.9511 27.5853C36.8199 27.5853 35.9023 26.6678 35.9023 25.5366C35.9023 24.4053 36.8199 23.4878 37.9511 23.4878Z" fill="#323737"/>
<path d="M36.7805 30.8774C37.9117 30.8774 38.8292 31.795 38.8292 32.9262C38.8292 34.0574 37.9117 34.975 36.7805 34.975C35.6492 34.975 34.7317 34.0574 34.7317 32.9262C34.7317 31.795 35.6492 30.8774 36.7805 30.8774Z" fill="#323737"/>
<path d="M10.0005 22.0243V18.7244C10.4703 19.0156 11.06 19.2629 11.7273 19.4707C13.3342 19.9682 15.5175 20.2682 17.9027 20.2682C20.288 20.2682 22.4713 19.9683 24.0781 19.4707C24.7454 19.2629 25.3352 19.0156 25.8049 18.7244V22.0243C25.8049 22.1136 25.7449 22.3068 25.3776 22.5775C25.0206 22.8394 24.4674 23.0999 23.7313 23.3282C22.265 23.7833 20.2045 24.0731 17.9025 24.0731C15.6004 24.0731 13.5399 23.7833 12.0736 23.3282C11.3375 23.0999 10.7844 22.8394 10.4273 22.5775C10.0629 22.3097 10.0015 22.1165 10 22.0272L10.0005 22.0243Z" fill="#323737"/>
<path d="M10.0005 23.6997V27.2923C10.0005 27.3816 10.0605 27.5748 10.4278 27.8455C10.7849 28.1075 11.338 28.3679 12.0741 28.5962C13.5404 29.0513 15.6009 29.3411 17.903 29.3411C20.205 29.3411 22.2655 29.0513 23.7318 28.5962C24.4679 28.3679 25.0211 28.1074 25.3781 27.8455C25.7454 27.5748 25.8054 27.3816 25.8054 27.2923V23.6997C25.3357 23.9909 24.7459 24.2382 24.0786 24.446C22.4718 24.9436 20.2885 25.2436 17.9032 25.2436C15.518 25.2436 13.3346 24.9436 11.7278 24.446C11.0605 24.2382 10.4708 23.9909 10.001 23.6997H10.0005Z" fill="#323737"/>
<path d="M24.0784 29.7144C24.7456 29.5066 25.3354 29.2593 25.8052 28.968V32.8533C25.8052 32.9426 25.7452 33.1357 25.3779 33.4065C25.0208 33.6684 24.4676 33.9289 23.7316 34.1572C22.2652 34.6123 20.2048 34.9021 17.9027 34.9021C15.6007 34.9021 13.5402 34.6123 12.0739 34.1572C11.3378 33.9289 10.7846 33.6684 10.4275 33.4065C10.0602 33.1357 10.0002 32.9426 10.0002 32.8533V28.968C10.47 29.2592 11.0597 29.5065 11.7271 29.7144C13.3339 30.2119 15.5172 30.5119 17.9024 30.5119C20.2877 30.5119 22.471 30.2119 24.0778 29.7144H24.0784Z" fill="#323737"/>
</svg>
