<svg width="50" height="50" viewBox="0 0 50 50" fill="none" xmlns="http://www.w3.org/2000/svg">
<rect width="50" height="50" rx="10" fill="#BEBEBE"/>
<path d="M38.125 25C38.125 28.481 36.7422 31.8194 34.2808 34.2808C31.8194 36.7422 28.481 38.125 25 38.125C21.519 38.125 18.1806 36.7422 15.7192 34.2808C13.2578 31.8194 11.875 28.481 11.875 25C11.875 21.519 13.2578 18.1806 15.7192 15.7192C18.1806 13.2578 21.519 11.875 25 11.875C28.481 11.875 31.8194 13.2578 34.2808 15.7192C36.7422 18.1806 38.125 21.519 38.125 25Z" stroke="#323737" stroke-width="1.5"/>
<path d="M11.875 21.25C11.875 21.25 20.3125 26.875 25 26.875C29.6875 26.875 38.125 21.25 38.125 21.25" stroke="#323737" stroke-width="1.5"/>
<path d="M25 38.125V26.875" stroke="#323737" stroke-width="2"/>
<path d="M34.375 24.0625H15.625" stroke="#323737" stroke-width="0.5"/>
</svg>
