<svg width="50" height="50" viewBox="0 0 50 50" fill="none" xmlns="http://www.w3.org/2000/svg">
<rect width="50" height="50" rx="10" fill="#BEBEBE"/>
<path d="M28.7253 15.0043C31.3968 15.0922 33.812 16.2371 35.5615 18.0316C37.1449 19.6557 38.1847 21.8094 38.3809 24.1935H41.1799C41.6334 24.1935 42 24.5612 42 25.0136C42 25.466 41.6323 25.8337 41.1799 25.8337H38.3809C38.1847 28.2168 37.1449 30.3715 35.5615 31.9956C33.7948 33.8073 31.3507 34.9576 28.6481 35.0251C28.1968 35.0358 27.8227 34.6789 27.812 34.2275V34.2082H27.8088V15.8201C27.8088 15.3666 28.1765 15 28.6288 15C28.661 15 28.6932 15.0021 28.7253 15.0054V15.0043ZM7.82009 25.8337C7.36663 25.8337 7 25.466 7 25.0136C7 24.5612 7.3677 24.1935 7.82009 24.1935H10.6191C10.8153 21.8105 11.8551 19.6557 13.4385 18.0316C15.2052 16.2199 17.6493 15.0697 20.3519 15.0021C20.8032 14.9914 21.1773 15.3484 21.188 15.7997V15.819H21.1912V17.412H24.5005C24.9529 17.412 25.3206 17.7797 25.3206 18.2321V21.4149C25.3206 21.8673 24.9529 22.235 24.5005 22.235H21.1912V27.7912H24.5005C24.9529 27.7912 25.3206 28.1589 25.3206 28.6113V31.7941C25.3206 32.2465 24.9529 32.6142 24.5005 32.6142H21.1912V34.2072C21.1912 34.6606 20.8235 35.0273 20.3712 35.0273C20.339 35.0273 20.3068 35.0251 20.2747 35.0219C17.6032 34.934 15.188 33.7891 13.4385 31.9945C11.8551 30.3705 10.8153 28.2168 10.6191 25.8326H7.82009V25.8337ZM21.1902 30.974H23.6783V29.4324H21.1902V30.974ZM23.6783 19.0533H21.1902V20.5948H23.6783V19.0533ZM34.3877 19.1723C33.0948 17.8462 31.37 16.9436 29.4489 16.7002V33.3271C31.37 33.0837 33.0948 32.1811 34.3877 30.855C35.8617 29.3435 36.7729 27.2799 36.7729 25.0136C36.7729 22.7474 35.8617 20.6838 34.3877 19.1723ZM14.6091 30.855C15.902 32.1811 17.6268 33.0837 19.5479 33.3271V31.7941V28.6113V21.4149V18.2321V16.6991C17.6268 16.9425 15.902 17.8451 14.6091 19.1712C13.1351 20.6827 12.2239 22.7463 12.2239 25.0126C12.2239 27.2788 13.1351 29.3424 14.6091 30.8539V30.855Z" fill="#323737"/>
</svg>
