<svg width="50" height="50" viewBox="0 0 50 50" fill="none" xmlns="http://www.w3.org/2000/svg">
<rect width="50" height="50" rx="10" fill="#BEBEBE"/>
<path d="M20.9546 29.2727H28.1137V25.2954H20.9546C20.9546 26.5117 20.9546 28.1478 20.9546 29.2727Z" fill="#323737"/>
<path d="M13 10.9773H20.1591C20.1591 9.76102 20.1591 8.12485 20.1591 7H13V10.9773Z" fill="#323737"/>
<path d="M20.9546 24.5H28.1137V20.5227H20.9546C20.9546 21.739 20.9546 23.3751 20.9546 24.5Z" fill="#323737"/>
<path d="M20.9546 14.9546H28.1137V10.9773H20.9546C20.9546 12.1935 20.9546 13.8297 20.9546 14.9546Z" fill="#323737"/>
<path d="M20.9546 19.7273H28.1137V15.75H20.9546C20.9546 16.9662 20.9546 18.6024 20.9546 19.7273Z" fill="#323737"/>
<path d="M13 28.4772H15.7841C16.0037 28.4772 16.1818 28.6552 16.1818 28.8749C16.1818 29.0946 16.0037 29.2726 15.7841 29.2726H13V33.2499H20.1591C20.1591 32.3837 20.1591 26.9627 20.1591 26.0908H13V28.4772ZM18.1705 28.0795C18.6098 28.0795 18.9659 28.4357 18.9659 28.8749C18.9659 29.3142 18.6098 29.6704 18.1705 29.6704C17.7311 29.6704 17.375 29.3142 17.375 28.8749C17.375 28.4357 17.7311 28.0795 18.1705 28.0795Z" fill="#323737"/>
<path d="M28.9092 37.6249V41.9999H32.8865V39.2158C32.8865 38.9961 33.0645 38.8181 33.2842 38.8181C33.5038 38.8181 33.6819 38.9961 33.6819 39.2158V41.9999H36.0683V34.8408H28.9092V37.6249ZM33.2842 36.034C33.7234 36.034 34.0796 36.3902 34.0796 36.8295C34.0796 37.2687 33.7234 37.6249 33.2842 37.6249C32.8449 37.6249 32.4887 37.2687 32.4887 36.8295C32.4887 36.3902 32.8449 36.034 33.2842 36.034Z" fill="#323737"/>
<path d="M13 25.2954H20.1591C20.1591 24.0791 20.1591 22.443 20.1591 21.3181H13V25.2954Z" fill="#323737"/>
<path d="M13 15.75H20.1591C20.1591 14.5337 20.1591 12.8976 20.1591 11.7727H13V15.75Z" fill="#323737"/>
<path d="M13 20.5227H20.1591C20.1591 19.3064 20.1591 17.6703 20.1591 16.5454H13V20.5227Z" fill="#323737"/>
<path d="M20.9546 37.2272H22.5455V33.6477C22.5455 33.428 22.7235 33.2499 22.9432 33.2499C23.1629 33.2499 23.341 33.428 23.341 33.6477V37.2272H28.1137C28.1137 36.5634 28.1137 30.4081 28.1137 30.0681H20.9546C20.9546 30.9343 20.9546 36.3553 20.9546 37.2272Z" fill="#323737"/>
<path d="M36.0683 15.75H28.9092V19.7273H36.0683V15.75Z" fill="#323737"/>
<path d="M36.0683 20.5227H28.9092V24.5H36.0683V20.5227Z" fill="#323737"/>
<path d="M36.0683 25.2954H28.9092V29.2727H36.0683V25.2954Z" fill="#323737"/>
<path d="M36.0683 30.0681H28.9092V34.0454H36.0683V30.0681Z" fill="#323737"/>
</svg>
