<svg width="50" height="50" viewBox="0 0 50 50" fill="none" xmlns="http://www.w3.org/2000/svg">
<rect width="50" height="50" rx="10" fill="#BEBEBE"/>
<path fill-rule="evenodd" clip-rule="evenodd" d="M15.5556 32.2511C13.64 32.7456 12.2222 34.4867 12.2222 36.5556C12.2222 39.0089 14.2133 41 16.6667 41C18.7356 41 20.4767 39.5822 20.9711 37.6667H37.7778C38.3911 37.6667 38.8889 37.1689 38.8889 36.5556C38.8889 35.9422 38.3911 35.4444 37.7778 35.4444H20.9711C20.5689 33.8833 19.3389 32.6533 17.7778 32.2511V14.3333C17.7778 12.4922 16.2856 11 14.4444 11C12.8978 11 11.1111 11 11.1111 11C10.4978 11 10 11.4978 10 12.1111C10 12.7244 10.4978 13.2222 11.1111 13.2222H14.4444C15.0578 13.2222 15.5556 13.72 15.5556 14.3333V32.2511ZM16.6667 34.3333C17.8933 34.3333 18.8889 35.3289 18.8889 36.5556C18.8889 37.7822 17.8933 38.7778 16.6667 38.7778C15.44 38.7778 14.4444 37.7822 14.4444 36.5556C14.4444 35.3289 15.44 34.3333 16.6667 34.3333ZM35.5556 29.8889V21C35.5556 19.1589 34.0633 17.6667 32.2222 17.6667H23.3333C21.4922 17.6667 20 19.1589 20 21V29.8889C20 31.73 21.4922 33.2222 23.3333 33.2222H32.2222C34.0633 33.2222 35.5556 31.73 35.5556 29.8889ZM33.3333 21V29.8889C33.3333 30.5022 32.8356 31 32.2222 31H23.3333C22.72 31 22.2222 30.5022 22.2222 29.8889V21C22.2222 20.3867 22.72 19.8889 23.3333 19.8889H32.2222C32.8356 19.8889 33.3333 20.3867 33.3333 21Z" fill="#323737"/>
</svg>
