<?xml version="1.0" encoding="UTF-8" standalone="no"?>
<!-- Created with Inkscape (http://www.inkscape.org/) -->

<svg width="180" height="180" viewBox="0 0 47.624994 47.624994" version="1.1" id="svg2876" inkscape:version="1.2.2 (b0a8486541, 2022-12-01)" sodipodi:docname="24-white.svg" inkscape:export-filename="../24-white.svg" inkscape:export-xdpi="7.52" inkscape:export-ydpi="7.52" xmlns:inkscape="http://www.inkscape.org/namespaces/inkscape" xmlns:sodipodi="http://sodipodi.sourceforge.net/DTD/sodipodi-0.dtd" xmlns="http://www.w3.org/2000/svg" xmlns:svg="http://www.w3.org/2000/svg">
  <sodipodi:namedview id="namedview2878" pagecolor="#ffffff" bordercolor="#666666" borderopacity="1.0" inkscape:showpageshadow="2" inkscape:pageopacity="0.0" inkscape:pagecheckerboard="0" inkscape:deskcolor="#d1d1d1" inkscape:document-units="px" showgrid="true" showguides="true" inkscape:zoom="18.760999" inkscape:cx="107.91003" inkscape:cy="117.23789" inkscape:window-width="1920" inkscape:window-height="1019" inkscape:window-x="0" inkscape:window-y="0" inkscape:window-maximized="1" inkscape:current-layer="layer1">
    <inkscape:grid type="xygrid" id="grid2997" empspacing="4" originx="0" originy="0" />
    <sodipodi:guide position="9.525,47.625" orientation="-1,0" id="guide3404" inkscape:locked="false" inkscape:label="" inkscape:color="rgb(0,134,229)" />
    <sodipodi:guide position="0,38.099995" orientation="0,1" id="guide3408" inkscape:locked="false" inkscape:label="" inkscape:color="rgb(0,134,229)" />
    <sodipodi:guide position="28.575,47.625" orientation="-1,0" id="guide3444" inkscape:locked="false" inkscape:label="" inkscape:color="rgb(0,134,229)" />
    <sodipodi:guide position="0,28.574996" orientation="0,1" id="guide3462" inkscape:locked="false" inkscape:label="" inkscape:color="rgb(0,134,229)" />
    <sodipodi:guide position="0,19.049998" orientation="0,1" id="guide3485" inkscape:locked="false" inkscape:label="" inkscape:color="rgb(0,134,229)" />
    <sodipodi:guide position="0,9.5249988" orientation="0,1" id="guide3503" inkscape:locked="false" inkscape:label="" inkscape:color="rgb(0,134,229)" />
    <sodipodi:guide position="38.1,47.625" orientation="-1,0" id="guide3962" inkscape:locked="false" inkscape:label="" inkscape:color="rgb(0,134,229)" />
    <sodipodi:guide position="19.05,47.625" orientation="-1,0" id="guide10098" inkscape:locked="false" inkscape:label="" inkscape:color="rgb(0,134,229)" />
  </sodipodi:namedview>
  <defs id="defs2873" />
  <g inkscape:label="Layer 1" inkscape:groupmode="layer" id="layer1">
    <g transform="matrix(0.06466922,0,0,0.06466922,31.636347,225.50198)" id="Layer_1" />
    <path style="fill:#f2f2f2;fill-opacity:1;stroke:#999999;stroke-width:0.0661458;stroke-miterlimit:4;stroke-dasharray:none;stroke-opacity:1" d="m 6.3499993,2.1166664 -0.529166,0.529167 1.0583331,1.058333 0.529166,-0.529167 z m -0.79375,0.79375 -2.9104161,2.910417 1.0583329,1.058333 2.9104172,-2.910417 z m -2.9104161,2.910417 -0.7937501,1.852083 1.852083,-0.79375 z" id="edit" inkscape:connector-curvature="0" sodipodi:nodetypes="cccccccccccccc" class="sprite" />
    <path style="fill:#f2f2f2;fill-opacity:1;fill-rule:nonzero;stroke:#999999;stroke-width:0.0661458;stroke-miterlimit:4;stroke-dasharray:none;stroke-opacity:1" d="m 13.758332,2.1166664 v 0.529167 c -0.529167,0 -1.058333,0 -1.322917,0.529166 v 0.264584 h 3.704167 v -0.264584 c -0.264583,-0.529166 -0.79375,-0.529166 -1.322917,-0.529166 v -0.529167 z m -1.322917,1.5875 0.79375,3.704172 h 2.116667 l 0.79375,-3.704172 z" id="delete" inkscape:connector-curvature="0" sodipodi:nodetypes="cccccccccccccc" inkscape:label="" class="sprite" />
    <g id="markers" transform="matrix(0.26458333,0,0,0.26458333,14.287495,-226.04994)" style="fill:#f2f2f2;fill-opacity:1;stroke:#999999;stroke-width:0.25;stroke-miterlimit:4;stroke-dasharray:none;stroke-opacity:1" class="sprite">
      <path sodipodi:nodetypes="sccccsssccs" inkscape:connector-curvature="0" id="rect2985" d="m 105.25387,934.36268 c -3.17753,0 -6.346004,2.1278 -7.25387,6.3794 0,2.551 1.806672,7.6679 7.25387,13.6201 1.46368,-1.5994 2.66945,-3.1177 3.64397,-4.5613 -1.4505,-2.1639 -2.41497,-4.0873 -2.96285,-5.7095 -0.22599,0.041 -0.44225,0.063 -0.68112,0.063 -2.0056,0 -3.64396,-1.5346 -3.64396,-3.413 0,-1.8785 1.63836,-3.3811 3.64396,-3.3811 0.51205,0 0.98854,0.076 1.43034,0.2552 0.64347,-0.9222 1.4345,-1.6571 2.31579,-2.169 -1.14444,-0.7114 -2.44633,-1.0845 -3.74613,-1.0845 z" style="fill:#f2f2f2;fill-opacity:1;stroke:#999999;stroke-width:0.25;stroke-miterlimit:4;stroke-dasharray:none;stroke-opacity:1" />
      <path id="path3378" d="m 111,934.36218 c -3.0625,0 -6.125,2.1277 -7,6.383 0,2.5532 1.75,7.6596 7,13.617 5.25,-5.9574 7,-11.0638 7,-13.617 -0.875,-4.2553 -3.9375,-6.383 -7,-6.383 z m 0,2.9788 c 1.933,0 3.5,1.5241 3.5,3.4042 0,1.8801 -1.567,3.4043 -3.5,3.4043 -1.93299,0 -3.5,-1.5242 -3.5,-3.4043 0,-1.8801 1.56701,-3.4042 3.5,-3.4042 z" style="fill:#f2f2f2;fill-opacity:1;stroke:#999999;stroke-width:0.25;stroke-miterlimit:4;stroke-dasharray:none;stroke-opacity:1" inkscape:connector-curvature="0" />
    </g>
    <g id="tilelayers" transform="matrix(0.26458333,0,0,0.26458333,20.637498,-251.44999)" class="sprite">
      <path sodipodi:nodetypes="ccccccc" id="rect7231" d="m 11.999999,957.36218 c -7.3730698,6.5006 -6.8762698,2.8816 -11.9999998343861,5 v 2 l 11.9999998343861,6 12,-6 v -2 c -7.38473,-0.182 -5.29117,-2.2182 -12,-5 z" style="fill:#f2f2f2;fill-opacity:1;fill-rule:nonzero;stroke:none" inkscape:connector-curvature="0" />
      <path sodipodi:nodetypes="ccccccc" inkscape:connector-curvature="0" id="rect7902" d="m -8.343861e-7,971.36218 11.9999998343861,6.00002 12,-6.00002 v 2 l -12,6.00002 -11.9999998343861,-6.00002 z" style="fill:#b3b3b3;fill-opacity:1;fill-rule:nonzero;stroke:none" />
      <path style="fill:#cccccc;fill-opacity:1;fill-rule:nonzero;stroke:none" d="m -8.343861e-7,968.36218 11.9999998343861,6 12,-6 v 2 l -12,6.00002 -11.9999998343861,-6.00002 z" id="path7953" inkscape:connector-curvature="0" sodipodi:nodetypes="ccccccc" />
      <path sodipodi:nodetypes="ccccccc" inkscape:connector-curvature="0" id="path7955" d="m -8.343861e-7,965.36218 11.9999998343861,6 12,-6 v 2 l -12,6 -11.9999998343861,-6 z" style="fill:#e6e6e6;fill-opacity:1;fill-rule:nonzero;stroke:none" />
    </g>
    <path inkscape:connector-curvature="0" style="fill:#f2f2f2;fill-opacity:1;stroke:#999999;stroke-width:0.0661458;stroke-miterlimit:4;stroke-dasharray:none;stroke-opacity:1" d="m 42.862495,11.112499 c -0.926042,0 -1.852084,0.661458 -2.116667,1.984375 0,0.79375 0.529167,2.38125 2.116667,4.233334 1.5875,-1.852084 2.116666,-3.439584 2.116666,-4.233334 -0.264583,-1.322917 -1.190625,-1.984375 -2.116666,-1.984375 z m 0,0.926042 c 0.584501,0 1.058333,0.473831 1.058333,1.058333 0,0.584502 -0.473832,1.058334 -1.058333,1.058334 -0.584502,0 -1.058334,-0.473832 -1.058334,-1.058334 0,-0.584502 0.473832,-1.058333 1.058334,-1.058333 z" id="marker" class="sprite" />
    <path d="m 30.956246,11.112499 v 0.132292 0.79375 0.132292 h 0.132291 0.79375 0.132292 v -0.132292 -0.09095 l 2.645833,1.058334 v 0.355534 0.115755 l -1.876888,2.926953 h -0.636653 -0.132292 v 0.132292 0.79375 0.132292 h 0.132292 0.79375 0.132291 v -0.132292 -0.79375 -0.09922 l 1.876888,-2.94349 h 0.636654 0.132292 v -0.132291 -0.79375 -0.132292 h -0.132292 -0.79375 -0.132292 v 0.132292 0.148828 l -2.645833,-1.058334 v -0.413411 -0.132292 h -0.132292 -0.79375 z m 0.264583,0.264584 h 0.529167 v 0.529166 h -0.529167 z m 3.704167,1.322916 h 0.529166 v 0.529167 h -0.529166 z m -2.645834,3.968751 h 0.529167 v 0.529166 h -0.529167 z" id="polyline" class="sprite" style="fill:#f2f2f2;fill-opacity:1;stroke:#999999;stroke-width:0.0645583;stroke-dasharray:none;stroke-opacity:1" />
    <path d="m 21.69583,11.377082 v 0.132291 0.79375 0.132292 h 0.132292 0.347266 l -0.42168,3.704167 h -0.454753 -0.132291 v 0.132292 0.79375 0.132291 h 0.132291 0.79375 0.132292 v -0.132291 -0.421667 l 2.645833,-0.181901 v 0.338984 0.132292 h 0.132292 0.79375 0.132291 v -0.132292 -0.79375 -0.132291 h -0.132291 -0.305925 l 0.363802,-2.116667 h 0.471289 0.132292 v -0.132292 -0.79375 -0.132292 h -0.132292 -0.79375 -0.132291 v 0.132292 0.214974 l -2.645833,-0.950833 v -0.587058 -0.132291 h -0.132292 -0.79375 z m 0.264584,0.264583 h 0.529166 v 0.529167 h -0.529166 z m 3.704166,1.322917 h 0.529167 v 0.529167 h -0.529167 z m -0.529167,3.175 h 0.529167 v 0.529167 h -0.529167 z m -3.704166,0.264583 c 0.529167,0 0,0 0.529167,0 v 0.529167 h -0.529167 z" id="polyogn" class="sprite" style="fill:#f2f2f2;fill-opacity:1;stroke:#999999;stroke-width:0.0645583;stroke-dasharray:none;stroke-opacity:1" />
    <g transform="matrix(0.06466922,0,0,0.06466922,30.097116,1.5355704)" id="settings" style="fill:#f2f2f2;fill-opacity:1;stroke:#999999;stroke-width:0.998285;stroke-miterlimit:4;stroke-dasharray:none" class="sprite">
      <path inkscape:connector-curvature="0" d="m 98.762,43.652 c -0.186,-1.386 -1.481,-2.582 -2.876,-2.659 l -6.172,-0.337 c -1.395,-0.076 -2.899,-1.224 -3.341,-2.55 l -2.28,-5.518 c -0.629,-1.249 -0.379,-3.121 0.553,-4.161 l 4.122,-4.6 c 0.933,-1.042 0.962,-2.77 0.066,-3.842 l -8.813,-8.813 c -1.073,-0.897 -2.803,-0.867 -3.845,0.065 l -4.598,4.122 c -1.039,0.934 -2.915,1.182 -4.161,0.551 l -5.521,-2.279 c -1.324,-0.442 -2.472,-1.945 -2.549,-3.34 l -0.337,-6.17 c -0.077,-1.396 -1.272,-2.691 -2.659,-2.878 0,0 -3.252,-0.44 -6.248,-0.44 -2.991,0 -6.243,0.44 -6.243,0.44 -1.386,0.188 -2.582,1.483 -2.658,2.878 l -0.338,6.17 c -0.076,1.396 -1.224,2.898 -2.551,3.34 l -5.517,2.279 c -1.249,0.631 -3.122,0.382 -4.161,-0.551 l -4.601,-4.122 c -1.042,-0.932 -2.769,-0.962 -3.842,-0.065 l -8.813,8.813 c -0.897,1.073 -0.867,2.801 0.066,3.842 l 4.122,4.6 c 0.933,1.041 1.182,2.913 0.551,4.161 l -2.279,5.518 c -0.442,1.326 -1.946,2.474 -3.34,2.55 l -6.17,0.337 c -1.396,0.077 -2.691,1.272 -2.879,2.659 0,0 -0.439,3.253 -0.439,6.243 0,2.99 0.44,6.24 0.44,6.24 0.188,1.389 1.483,2.582 2.879,2.659 l 6.169,0.339 c 1.396,0.075 2.898,1.225 3.341,2.549 l 2.278,5.517 c 0.631,1.248 0.381,3.122 -0.551,4.163 l -4.122,4.598 c -0.933,1.042 -0.963,2.771 -0.066,3.845 l 8.814,8.813 c 1.073,0.896 2.801,0.866 3.842,-0.066 l 4.6,-4.122 c 1.041,-0.932 2.913,-1.182 4.161,-0.553 l 5.517,2.28 c 1.327,0.441 2.475,1.946 2.55,3.343 l 0.338,6.168 c 0.076,1.395 1.272,2.692 2.658,2.88 0,0 3.252,0.439 6.244,0.439 2.996,0 6.25,-0.439 6.25,-0.439 1.385,-0.188 2.58,-1.485 2.657,-2.88 l 0.337,-6.168 c 0.077,-1.396 1.225,-2.901 2.551,-3.343 l 5.517,-2.28 c 1.248,-0.629 3.122,-0.379 4.163,0.553 l 4.598,4.122 c 1.042,0.933 2.771,0.964 3.843,0.067 l 8.815,-8.814 c 0.896,-1.073 0.866,-2.803 -0.066,-3.845 l -4.122,-4.598 c -0.932,-1.041 -1.182,-2.915 -0.553,-4.163 l 2.28,-5.517 c 0.441,-1.324 1.946,-2.474 3.341,-2.549 l 6.172,-0.339 c 1.395,-0.077 2.692,-1.271 2.876,-2.659 0,0 0.441,-3.25 0.441,-6.24 0,-2.99 -0.441,-6.243 -0.441,-6.243 z m -48.658,18.709 c -6.886,0 -12.468,-5.585 -12.468,-12.467 0,-6.885 5.582,-12.467 12.468,-12.467 6.89,0 12.475,5.582 12.475,12.467 -10e-4,6.882 -5.586,12.467 -12.475,12.467 z" id="path27812" style="fill:#f2f2f2;fill-opacity:1;stroke:#999999;stroke-width:0.998285;stroke-miterlimit:4;stroke-dasharray:none" />
    </g>
    <path style="fill:#f2f2f2;fill-opacity:1;stroke:#999999;stroke-width:0.0661458;stroke-miterlimit:4;stroke-dasharray:none;stroke-opacity:1" d="m 42.862495,1.5874998 c -1.753505,0 -3.175,1.421495 -3.175,3.175 0,1.753504 1.421495,3.175 3.175,3.175 1.753505,0 3.175,-1.421496 3.175,-3.175 0,-1.753505 -1.421495,-3.175 -3.175,-3.175 z m 0,1.322916 1.852083,1.852084 h -1.322917 v 1.5875 h -1.058333 v -1.5875 h -1.322917 z" id="import" class="sprite" />
    <g id="set-zoom" class="sprite" transform="translate(-0.6834795,-1.3228864)">
      <polygon points="11.27,100 0,88.737 17.702,71.042 9.297,62.644 37.37,62.644 37.37,90.703 28.965,82.305 " id="polygon3044" transform="matrix(0.0635,0,0,0.0635,2.2709793,12.435385)" style="fill:#f2f2f2;fill-opacity:1;stroke:#999999;stroke-width:1.04167;stroke-miterlimit:4;stroke-dasharray:none;stroke-opacity:1" />
      <polygon points="90.71,37.37 82.298,28.958 100,11.263 88.743,0 71.042,17.708 62.644,9.31 62.644,37.357 " id="polygon3048" transform="matrix(0.0635,0,0,0.0635,2.2709793,12.435385)" style="fill:#f2f2f2;fill-opacity:1;stroke:#999999;stroke-width:1.04167;stroke-miterlimit:4;stroke-dasharray:none;stroke-opacity:1" />
      <path inkscape:connector-curvature="0" d="m 5.4459792,14.83486 c -0.428308,0 -0.775525,0.347281 -0.775525,0.775525 0,0.429133 0.347281,0.776415 0.775525,0.776415 0.428308,0 0.77597,-0.347282 0.77597,-0.776415 0,-0.428307 -0.347662,-0.775525 -0.77597,-0.775525 z" id="path3052" style="fill:#f2f2f2;fill-opacity:1;stroke:#999999;stroke-width:0.0661458;stroke-miterlimit:4;stroke-dasharray:none;stroke-opacity:1" />
    </g>
    <path d="m 12.46022,12.700003 c -0.890121,-0.0021 -1.610322,0.711677 -1.612305,1.5875 0.002,0.877761 0.722184,1.586074 1.612305,1.5875 0.593513,-8.73e-4 1.110529,-0.321123 1.389062,-0.79375 h 0.65319 l 0.520899,-0.504362 0.396875,0.380339 0.380338,-0.372071 0.388607,0.380339 0.396875,-0.380339 0.388607,0.380339 0.677995,-0.65319 c 0.09761,-0.09927 0.100015,-0.174188 0,-0.272852 l -0.553972,-0.545703 h -3.241145 c -0.277125,-0.47713 -0.799764,-0.794984 -1.397331,-0.79375 z m -0.7028,1.157552 c 0.233963,-0.0011 0.419905,0.187463 0.42168,0.42168 -0.0017,0.230957 -0.187613,0.419542 -0.42168,0.42168 -0.237929,-0.0024 -0.43214,-0.190723 -0.429948,-0.42168 -0.0022,-0.234217 0.192019,-0.422799 0.429948,-0.42168 z" id="permissions" style="fill:#f2f2f2;fill-opacity:1;stroke:#999999;stroke-width:0.0661458;stroke-miterlimit:4;stroke-dasharray:none;stroke-opacity:1" class="sprite" />
    <path inkscape:connector-curvature="0" id="search" d="m 7.9375008,26.143489 -1.70307,-1.703547 c 0.229227,-0.378139 0.363561,-0.821298 0.363561,-1.296006 0,-1.384683 -1.120561,-2.50596 -2.505246,-2.506439 -1.383729,5.29e-4 -2.505246,1.121756 -2.505246,2.506201 0,1.383491 1.121756,2.504776 2.505963,2.504776 0.474948,0 0.917387,-0.134337 1.295528,-0.363564 l 1.704026,1.704028 z m -5.39413,-2.999791 c 0.0014,-0.856197 0.693896,-1.548659 1.549853,-1.550093 0.855718,0.0019 1.548419,0.693896 1.549853,1.550093 -0.0017,0.855478 -0.694135,1.548424 -1.549853,1.54962 -0.856196,0 -1.548658,-0.694142 -1.549853,-1.54962 z" style="fill:#f2f2f2;fill-opacity:1;stroke:#999999;stroke-width:0.0661458;stroke-miterlimit:4;stroke-dasharray:none;stroke-opacity:1" class="sprite" />
    <g id="delete-marker" transform="matrix(0.2645833,0,0,0.26458333,-14.438689,-237.91845)" style="fill:#f2f2f2;fill-opacity:1;stroke:#999999;stroke-width:0.25;stroke-miterlimit:4;stroke-dasharray:none;stroke-opacity:1" class="sprite">
      <path id="path3378-6" d="m 178.57143,979.21934 c -3.0625,0 -6.125,2.1197 -7,6.375 0,2.5532 1.75,7.6676 7,13.625 3.4166,-3.877 5.31568,-7.3755 6.25,-10.0625 -1.31416,-0.1622 -2.497,-0.7235 -3.40625,-1.5938 -0.63462,0.8653 -1.6677,1.4375 -2.84375,1.4375 -1.933,0 -3.5,-1.5261 -3.5,-3.4062 0,-1.8801 1.567,-3.4063 3.5,-3.4063 0.36776,0 0.72951,0.085 1.0625,0.1875 0.14352,-1.0312 0.55799,-1.956 1.15625,-2.75 -0.72276,-0.259 -1.46314,-0.4062 -2.21875,-0.4062 z" style="fill:#f2f2f2;fill-opacity:1;stroke:#999999;stroke-width:0.25;stroke-miterlimit:4;stroke-dasharray:none;stroke-opacity:1" inkscape:connector-curvature="0" />
      <path inkscape:connector-curvature="0" id="path6764" d="m 185.57143,978.21934 c -2.76142,0 -5,2.2386 -5,5 0,2.7615 2.23858,5 5,5 2.76142,0 5,-2.2385 5,-5 0,-2.7614 -2.23858,-5 -5,-5 z m -1.81818,2.2727 1.81818,1.8182 1.81818,-1.8182 0.90909,0.9091 -1.81818,1.8182 1.81818,1.8182 -0.90909,0.9091 -1.81818,-1.8182 -1.81818,1.8182 -0.90909,-0.9091 1.81818,-1.8182 -1.81818,-1.8182 z" style="fill:#f2f2f2;fill-opacity:1;fill-rule:nonzero;stroke:#999999;stroke-width:0.25;stroke-miterlimit:4;stroke-dasharray:none;stroke-opacity:1" />
    </g>
    <g id="multipolygon" class="sprite" transform="translate(-0.7330895,-3.9687147)">
      <path style="color:#000000;font-style:normal;font-variant:normal;font-weight:normal;font-stretch:normal;font-size:medium;line-height:normal;font-family:Sans;-inkscape-font-specification:Sans;text-indent:0;text-align:start;text-decoration:none;text-decoration-line:none;letter-spacing:normal;word-spacing:normal;text-transform:none;writing-mode:lr-tb;direction:ltr;baseline-shift:baseline;text-anchor:start;display:inline;overflow:visible;visibility:visible;fill:#f2f2f2;fill-opacity:1;stroke:#999999;stroke-width:0.0661458;stroke-miterlimit:4;stroke-dasharray:none;stroke-opacity:1;marker:none;enable-background:accumulate" d="m 2.8497553,33.337461 v 0.132292 0.79375 0.132292 h 0.132292 0.347266 l -0.42168,3.704166 h -0.454753 -0.132291 v 0.132292 0.79375 0.132292 h 0.132291 0.79375 0.132292 v -0.132292 -0.421693 c 0,0 3.6291619,-2.885599 3.6297519,-2.885599 h 0.47129 0.132291 v -0.132291 -0.79375 -0.132292 h -0.132291 -0.79375 -0.132292 v 0.132292 0.214974 l -2.645833,-0.95086 v -0.587031 -0.132292 h -0.132292 -0.7937499 z m 0.264584,0.264584 h 0.5291659 v 0.529166 h -0.5291659 z m 3.7041659,1.322916 h 0.529167 v 0.529167 h -0.529167 z m -4.2333329,3.439584 h 0.529167 v 0.529166 h -0.529167 z" id="rect4058-1-2" inkscape:connector-curvature="0" sodipodi:nodetypes="ccccccccccccccccccccccccccccccccccccccccccccccccc" />
      <path style="color:#000000;font-style:normal;font-variant:normal;font-weight:normal;font-stretch:normal;font-size:medium;line-height:normal;font-family:Sans;-inkscape-font-specification:Sans;text-indent:0;text-align:start;text-decoration:none;text-decoration-line:none;letter-spacing:normal;word-spacing:normal;text-transform:none;writing-mode:lr-tb;direction:ltr;baseline-shift:baseline;text-anchor:start;display:inline;overflow:visible;visibility:visible;fill:#f2f2f2;fill-opacity:1;stroke:#999999;stroke-width:0.0661458;stroke-miterlimit:4;stroke-dasharray:none;stroke-opacity:1;marker:none;enable-background:accumulate" d="m 4.9168132,40.216628 h -0.926042 -0.132292 v 0.132292 0.79375 0.132291 h 0.132292 0.79375 0.132292 v -0.132291 -0.421667 l 2.645833,-0.181901 v 0.338984 0.132292 h 0.132292 0.793749 0.132292 v -0.132292 -0.79375 -0.132291 h -0.132292 -0.305924 l -0.644922,-2.116667 h 0.471289 0.132292 v -0.132292 -0.79375 -0.132291 h -0.132292 -0.79375 -0.181901 c 0,0.79375 0,0.79375 0,0.79375 0,0 -2.067057,2.645833 -2.116666,2.645833 z m 2.430859,-3.175 h 0.529167 v 0.529167 h -0.529167 z m 0.479557,3.175 h 0.529167 v 0.529167 h -0.529167 z m -3.704166,0.264583 c 0.529166,0 0,0 0.529166,0 v 0.529167 h -0.529166 z" id="rect4058-1-2-0" inkscape:connector-curvature="0" sodipodi:nodetypes="cccccccccccccccccccccccccccccccccccccccccccccccc" />
    </g>
    <g transform="matrix(0.08201746,0,0,0.0827965,9.1258616,19.465099)" id="datalayers" style="fill:#f2f2f2;fill-opacity:1;stroke:#999999;stroke-width:0.802682;stroke-miterlimit:4;stroke-dasharray:none;stroke-opacity:1" class="sprite">
      <ellipse cx="62.837002" cy="23.440001" rx="32.162998" ry="9.2799997" id="ellipse5941" style="fill:#f2f2f2;fill-opacity:1;stroke:#999999;stroke-width:0.802682;stroke-miterlimit:4;stroke-dasharray:none;stroke-opacity:1" />
      <path inkscape:connector-curvature="0" d="m 62.839,50.482 c -17.766,0 -32.163,-4.154 -32.163,-9.282 0,-0.053 0.024,-0.104 0.028,-0.157 h -0.03 v 12.001 h 0.028 c 0.298,5.052 14.555,9.121 32.135,9.121 17.576,0 31.837,-4.069 32.135,-9.121 h 0.028 v -11.832 c -0.021,5.123 -14.413,9.27 -32.161,9.27 z" id="path5943" style="fill:#f2f2f2;fill-opacity:1;stroke:#999999;stroke-width:0.802682;stroke-miterlimit:4;stroke-dasharray:none;stroke-opacity:1" />
      <path inkscape:connector-curvature="0" d="m 95,41.189 v -0.146 h -0.026 c 0.004,0.049 0.026,0.098 0.026,0.146 z" id="path5945" style="fill:#f2f2f2;fill-opacity:1;stroke:#999999;stroke-width:0.802682;stroke-miterlimit:4;stroke-dasharray:none;stroke-opacity:1" />
      <path inkscape:connector-curvature="0" d="m 62.839,64.884 c -17.766,0 -32.163,-4.155 -32.163,-9.282 0,-0.053 0.024,-0.104 0.028,-0.157 h -0.03 v 12.001 h 0.028 c 0.298,5.053 14.555,9.121 32.135,9.121 17.576,0 31.837,-4.068 32.135,-9.121 h 0.028 v -11.833 c -0.021,5.123 -14.413,9.271 -32.161,9.271 z" id="path5947" style="fill:#f2f2f2;fill-opacity:1;stroke:#999999;stroke-width:0.802682;stroke-miterlimit:4;stroke-dasharray:none;stroke-opacity:1" />
      <path inkscape:connector-curvature="0" d="m 95,55.59 v -0.146 h -0.026 c 0.004,0.048 0.026,0.098 0.026,0.146 z" id="path5949" style="fill:#f2f2f2;fill-opacity:1;stroke:#999999;stroke-width:0.802682;stroke-miterlimit:4;stroke-dasharray:none;stroke-opacity:1" />
      <path inkscape:connector-curvature="0" d="m 62.839,79.285 c -17.766,0 -32.163,-4.154 -32.163,-9.282 0,-0.053 0.024,-0.104 0.028,-0.157 h -0.03 v 12.001 h 0.028 c 0.298,5.052 14.555,9.121 32.135,9.121 17.576,0 31.837,-4.069 32.135,-9.121 h 0.028 v -11.832 c -0.021,5.123 -14.413,9.27 -32.161,9.27 z" id="path5951" style="fill:#f2f2f2;fill-opacity:1;stroke:#999999;stroke-width:0.802682;stroke-miterlimit:4;stroke-dasharray:none;stroke-opacity:1" />
      <path inkscape:connector-curvature="0" d="m 95,69.992 v -0.146 h -0.026 c 0.004,0.049 0.026,0.097 0.026,0.146 z" id="path5953" style="fill:#f2f2f2;fill-opacity:1;stroke:#999999;stroke-width:0.802682;stroke-miterlimit:4;stroke-dasharray:none;stroke-opacity:1" />
      <path inkscape:connector-curvature="0" d="m 62.839,35.762 c -17.766,0 -32.163,-4.154 -32.163,-9.281 0,-0.057 0.024,-0.105 0.028,-0.161 h -0.03 v 12 h 0.028 c 0.298,5.052 14.555,9.125 32.135,9.125 17.576,0 31.837,-4.073 32.135,-9.125 h 0.028 v -11.828 c -0.021,5.119 -14.413,9.27 -32.161,9.27 z" id="path5955" style="fill:#f2f2f2;fill-opacity:1;stroke:#999999;stroke-width:0.802682;stroke-miterlimit:4;stroke-dasharray:none;stroke-opacity:1" />
      <path inkscape:connector-curvature="0" d="m 95,26.469 v -0.149 h -0.026 c 0.004,0.051 0.026,0.1 0.026,0.149 z" id="path5957" style="fill:#f2f2f2;fill-opacity:1;stroke:#999999;stroke-width:0.802682;stroke-miterlimit:4;stroke-dasharray:none;stroke-opacity:1" />
    </g>
    <path style="fill:#f2f2f2;fill-opacity:1;stroke:#999999;stroke-width:0.0661458;stroke-miterlimit:4;stroke-dasharray:none;stroke-opacity:1" d="m 23.812498,26.987496 c 1.753504,0 3.175,-1.4215 3.175,-3.175 0,-1.753499 -1.421496,-3.174999 -3.175,-3.174999 -1.753505,0 -3.175,1.4215 -3.175,3.174999 0,1.7535 1.421495,3.175 3.175,3.175 z m 0,-1.322916 -1.852083,-1.852084 h 1.322916 v -1.587499 h 1.058333 v 1.587499 h 1.322917 z" id="download" class="sprite" />
    <g id="multiline" class="sprite" transform="translate(-1.7418155,-4.4977494)">
      <path inkscape:connector-curvature="0" style="color:#000000;font-style:normal;font-variant:normal;font-weight:normal;font-stretch:normal;font-size:medium;line-height:normal;font-family:Sans;-inkscape-font-specification:Sans;text-indent:0;text-align:start;text-decoration:none;text-decoration-line:none;letter-spacing:normal;word-spacing:normal;text-transform:none;writing-mode:lr-tb;direction:ltr;baseline-shift:baseline;text-anchor:start;display:inline;overflow:visible;visibility:visible;fill:#f2f2f2;fill-opacity:1;stroke:#999999;stroke-width:0.0661458;stroke-miterlimit:4;stroke-dasharray:none;stroke-opacity:1;marker:none;enable-background:accumulate" d="m 13.648064,34.131211 v 0.132292 0.79375 0.132292 h 0.132291 0.79375 0.132292 v -0.132292 -0.09096 l 2.645833,1.058334 v 0.355547 0.115755 l 0.289388,0.0164 h 0.636654 0.132292 v -0.132292 -0.79375 -0.132291 h -0.132292 -0.79375 -0.132292 v 0.132291 0.148829 l -2.645833,-1.058334 v -0.413411 -0.132292 h -0.132292 -0.79375 z m 0.264583,0.264584 h 0.529167 v 0.529166 h -0.529167 z m 3.704167,1.322916 h 0.529166 v 0.529167 h -0.529166 z" id="rect4058-9" sodipodi:nodetypes="ccccccccccccccccccccccccccccccccccccccc" />
      <path inkscape:connector-curvature="0" style="color:#000000;font-style:normal;font-variant:normal;font-weight:normal;font-stretch:normal;font-size:medium;line-height:normal;font-family:Sans;-inkscape-font-specification:Sans;text-indent:0;text-align:start;text-decoration:none;text-decoration-line:none;letter-spacing:normal;word-spacing:normal;text-transform:none;writing-mode:lr-tb;direction:ltr;baseline-shift:baseline;text-anchor:start;display:inline;overflow:visible;visibility:visible;fill:#f2f2f2;fill-opacity:1;stroke:#999999;stroke-width:0.0661458;stroke-miterlimit:4;stroke-dasharray:none;stroke-opacity:1;marker:none;enable-background:accumulate" d="m 14.731202,36.818373 v 0.355547 0.115755 l 1.876888,2.926953 h 0.636653 0.132292 v 0.132292 0.79375 0.132291 h -0.132292 -0.79375 -0.132291 v -0.132291 -0.79375 -0.09922 l -1.876888,-2.94349 h -0.636654 -0.132292 v -0.132291 -0.79375 -0.132292 h 0.132292 0.79375 0.132292 v 0.132292 0.148828 z m -0.264584,-0.305912 h -0.529166 v 0.529167 h 0.529166 z m 2.645834,3.96875 h -0.529167 v 0.529167 h 0.529167 z" id="rect4058-9-5" sodipodi:nodetypes="ccccccccccccccccccccccccccccccccccccc" />
      <path inkscape:connector-curvature="0" style="color:#000000;font-style:normal;font-variant:normal;font-weight:normal;font-stretch:normal;font-size:medium;line-height:normal;font-family:Sans;-inkscape-font-specification:Sans;text-indent:0;text-align:start;text-decoration:none;text-decoration-line:none;letter-spacing:normal;word-spacing:normal;text-transform:none;writing-mode:lr-tb;direction:ltr;baseline-shift:baseline;text-anchor:start;display:inline;overflow:visible;visibility:visible;fill:#f2f2f2;fill-opacity:1;stroke:#999999;stroke-width:0.0661458;stroke-miterlimit:4;stroke-dasharray:none;stroke-opacity:1;marker:none;enable-background:accumulate" d="m 13.648064,34.131211 v 0.132292 0.79375 0.132292 h 0.132291 0.79375 0.132292 v -0.132292 -0.09096 l 2.645833,1.058334 v 0.355547 0.115755 l 0.289388,0.0164 h 0.636654 0.132292 v -0.132292 -0.79375 -0.132291 h -0.132292 -0.79375 -0.132292 v 0.132291 0.148829 l -2.645833,-1.058334 v -0.413411 -0.132292 h -0.132292 -0.79375 z m 0.264583,0.264584 h 0.529167 v 0.529166 h -0.529167 z m 3.704167,1.322916 h 0.529166 v 0.529167 h -0.529166 z" id="path4432" sodipodi:nodetypes="ccccccccccccccccccccccccccccccccccccccc" />
      <path inkscape:connector-curvature="0" style="color:#000000;font-style:normal;font-variant:normal;font-weight:normal;font-stretch:normal;font-size:medium;line-height:normal;font-family:Sans;-inkscape-font-specification:Sans;text-indent:0;text-align:start;text-decoration:none;text-decoration-line:none;letter-spacing:normal;word-spacing:normal;text-transform:none;writing-mode:lr-tb;direction:ltr;baseline-shift:baseline;text-anchor:start;display:inline;overflow:visible;visibility:visible;fill:#f2f2f2;fill-opacity:1;stroke:#999999;stroke-width:0.0661458;stroke-miterlimit:4;stroke-dasharray:none;stroke-opacity:1;marker:none;enable-background:accumulate" d="m 14.731202,36.818373 v 0.355547 0.115755 l 1.876888,2.926953 h 0.636653 0.132292 v 0.132292 0.79375 0.132291 h -0.132292 -0.79375 -0.132291 v -0.132291 -0.79375 -0.09922 l -1.876888,-2.94349 h -0.636654 -0.132292 v -0.132291 -0.79375 -0.132292 h 0.132292 0.79375 0.132292 v 0.132292 0.148828 z m -0.264584,-0.305912 h -0.529166 v 0.529167 h 0.529166 z m 2.645834,3.96875 h -0.529167 v 0.529167 h 0.529167 z" id="path4434" sodipodi:nodetypes="ccccccccccccccccccccccccccccccccccccc" />
    </g>
    <path style="fill:#f2f2f2;fill-opacity:1;fill-rule:evenodd;stroke:#999999;stroke-width:0.0468913;stroke-linecap:butt;stroke-linejoin:miter;stroke-miterlimit:4;stroke-dasharray:none;stroke-opacity:1" d="m 33.328633,32.279163 -2.049775,2.059569 h 4.099549 z" id="arrow-up" inkscape:connector-curvature="0" />
    <path style="fill:#f2f2f2;fill-opacity:1;fill-rule:evenodd;stroke:#999999;stroke-width:0.0468312;stroke-linecap:butt;stroke-linejoin:miter;stroke-miterlimit:4;stroke-dasharray:none;stroke-opacity:1" d="m 23.802018,34.338732 2.049774,-2.059569 h -4.099549 z" id="arrow-down" inkscape:connector-curvature="0" />
  </g>
</svg>
