<?xml version="1.0" encoding="UTF-8" standalone="no"?>
<!-- Created with Inkscape (http://www.inkscape.org/) -->

<svg width="324" height="288" viewBox="0 0 85.72499 76.199991" version="1.1" id="svg2876" inkscape:version="1.4.2 (ebf0e940d0, 2025-05-08)" sodipodi:docname="24-white.svg" inkscape:export-filename="../24-white.svg" inkscape:export-xdpi="7.52" inkscape:export-ydpi="7.52" xmlns:inkscape="http://www.inkscape.org/namespaces/inkscape" xmlns:sodipodi="http://sodipodi.sourceforge.net/DTD/sodipodi-0.dtd" xmlns="http://www.w3.org/2000/svg" xmlns:svg="http://www.w3.org/2000/svg">
  <sodipodi:namedview id="namedview2878" pagecolor="#ffffff" bordercolor="#666666" borderopacity="1.0" inkscape:showpageshadow="2" inkscape:pageopacity="0.0" inkscape:pagecheckerboard="0" inkscape:deskcolor="#d1d1d1" inkscape:document-units="px" showgrid="true" showguides="true" inkscape:zoom="2.5058924" inkscape:cx="205.51561" inkscape:cy="142.46422" inkscape:window-width="1920" inkscape:window-height="1011" inkscape:window-x="0" inkscape:window-y="0" inkscape:window-maximized="1" inkscape:current-layer="layer1">
    <inkscape:grid type="xygrid" id="grid2997" empspacing="6" originx="0" originy="0" spacingy="0.2645833" spacingx="0.2645833" units="px" visible="true" />
    <inkscape:grid id="grid1" units="px" originx="0" originy="0" spacingx="9.5249989" spacingy="9.5249989" empcolor="#3f3fff" empopacity="0.25098039" color="#3f3fff" opacity="0.1254902" empspacing="1" dotted="false" gridanglex="30" gridanglez="30" visible="true" />
  </sodipodi:namedview>
  <defs id="defs2873">
    <clipPath id="clip0_166_13195">
      <rect width="24" height="24" fill="#ffffff" id="rect2007" x="0" y="0" />
    </clipPath>
    <mask id="mask0_166_13195" maskUnits="userSpaceOnUse" x="1" y="1" width="17" height="17">
      <path d="m 17.6,1.60001 h -16.00002 v 15.99999 h 16.00002 z" fill="#ffffff" id="path1474" />
    </mask>
    <mask id="mask0_181_11916" maskUnits="userSpaceOnUse" x="2" y="2" width="15" height="15">
      <path d="m 16.0401,2.3158 h -14.0351 v 14.0351 h 14.0351 z" fill="#ffffff" id="path1259" />
    </mask>
  </defs>
  <g inkscape:label="Layer 1" inkscape:groupmode="layer" id="layer1">
    <g transform="matrix(0.06466922,0,0,0.06466922,31.636347,225.50198)" id="Layer_1" />
    <path style="fill:#f2f2f2;fill-opacity:1;stroke:#999999;stroke-width:0.0661458;stroke-miterlimit:4;stroke-dasharray:none;stroke-opacity:1" d="m 25.532287,21.035092 -0.529166,0.529168 1.058333,1.058333 0.529166,-0.529167 z m -0.79375,0.79375 -2.910416,2.910417 1.058333,1.058333 2.910417,-2.910416 z m -2.910416,2.910417 -0.79375,1.852083 1.852083,-0.79375 z" id="edit" inkscape:connector-curvature="0" sodipodi:nodetypes="cccccccccccccc" class="sprite" />
    <path style="fill:#f2f2f2;fill-opacity:1;fill-rule:nonzero;stroke:#999999;stroke-width:0.0661458;stroke-miterlimit:4;stroke-dasharray:none;stroke-opacity:1" d="m 51.858325,21.166657 v 0.529167 c -0.529167,0 -1.058333,0 -1.322917,0.529166 v 0.264584 h 3.704167 v -0.264584 c -0.264583,-0.529166 -0.79375,-0.529166 -1.322917,-0.529166 v -0.529167 z m -1.322917,1.5875 0.79375,3.704172 h 2.116667 l 0.79375,-3.704172 z" id="delete" inkscape:connector-curvature="0" sodipodi:nodetypes="cccccccccccccc" inkscape:label="" class="sprite" />
    <g id="markers" transform="matrix(0.26458333,0,0,0.26458333,42.862495,-226.04997)" style="fill:#f2f2f2;fill-opacity:1;stroke:#999999;stroke-width:0.25;stroke-miterlimit:4;stroke-dasharray:none;stroke-opacity:1" class="sprite">
      <path sodipodi:nodetypes="sccccsssccs" inkscape:connector-curvature="0" id="rect2985" d="m 105.25387,934.36268 c -3.17753,0 -6.346004,2.1278 -7.25387,6.3794 0,2.551 1.806672,7.6679 7.25387,13.6201 1.46368,-1.5994 2.66945,-3.1177 3.64397,-4.5613 -1.4505,-2.1639 -2.41497,-4.0873 -2.96285,-5.7095 -0.22599,0.041 -0.44225,0.063 -0.68112,0.063 -2.0056,0 -3.64396,-1.5346 -3.64396,-3.413 0,-1.8785 1.63836,-3.3811 3.64396,-3.3811 0.51205,0 0.98854,0.076 1.43034,0.2552 0.64347,-0.9222 1.4345,-1.6571 2.31579,-2.169 -1.14444,-0.7114 -2.44633,-1.0845 -3.74613,-1.0845 z" style="fill:#f2f2f2;fill-opacity:1;stroke:#999999;stroke-width:0.25;stroke-miterlimit:4;stroke-dasharray:none;stroke-opacity:1" />
      <path id="path3378" d="m 111,934.36218 c -3.0625,0 -6.125,2.1277 -7,6.383 0,2.5532 1.75,7.6596 7,13.617 5.25,-5.9574 7,-11.0638 7,-13.617 -0.875,-4.2553 -3.9375,-6.383 -7,-6.383 z m 0,2.9788 c 1.933,0 3.5,1.5241 3.5,3.4042 0,1.8801 -1.567,3.4043 -3.5,3.4043 -1.93299,0 -3.5,-1.5242 -3.5,-3.4043 0,-1.8801 1.56701,-3.4042 3.5,-3.4042 z" style="fill:#f2f2f2;fill-opacity:1;stroke:#999999;stroke-width:0.25;stroke-miterlimit:4;stroke-dasharray:none;stroke-opacity:1" inkscape:connector-curvature="0" />
    </g>
    <path inkscape:connector-curvature="0" style="fill:#f2f2f2;fill-opacity:1;stroke:#999999;stroke-width:0.0661458;stroke-miterlimit:4;stroke-dasharray:none;stroke-opacity:1" d="m 71.437495,11.24479 c -0.926042,0 -1.852084,0.661458 -2.116667,1.984375 0,0.79375 0.529167,2.38125 2.116667,4.233334 1.5875,-1.852084 2.116666,-3.439584 2.116666,-4.233334 -0.264583,-1.322917 -1.190625,-1.984375 -2.116666,-1.984375 z m 0,0.926042 c 0.584501,0 1.058333,0.473831 1.058333,1.058333 0,0.584502 -0.473832,1.058334 -1.058333,1.058334 -0.584502,0 -1.058334,-0.473832 -1.058334,-1.058334 0,-0.584502 0.473832,-1.058333 1.058334,-1.058333 z" id="marker" class="sprite" />
    <path d="m 69.056244,58.737492 v 0.132292 0.79375 0.132292 h 0.132291 0.79375 0.132292 v -0.132292 -0.09095 l 2.645833,1.058334 v 0.355534 0.115755 l -1.876888,2.926953 h -0.636653 -0.132292 v 0.132291 0.79375 0.132293 h 0.132292 0.79375 0.132291 v -0.132293 -0.79375 -0.09922 l 1.876888,-2.94349 h 0.636654 0.132292 v -0.132291 -0.79375 -0.132292 h -0.132292 -0.79375 -0.132292 v 0.132292 0.148828 l -2.645833,-1.058334 v -0.413411 -0.132292 h -0.132292 -0.79375 z m 0.264583,0.264584 h 0.529167 v 0.529166 h -0.529167 z m 3.704167,1.322916 h 0.529166 v 0.529167 h -0.529166 z m -2.645834,3.968751 h 0.529167 v 0.529166 h -0.529167 z" id="polyline" class="sprite" style="fill:#f2f2f2;fill-opacity:1;stroke:#999999;stroke-width:0.0645583;stroke-dasharray:none;stroke-opacity:1" />
    <path d="m 69.320827,39.952078 v 0.132291 0.793751 0.132292 h 0.132292 0.347266 l -0.42168,3.704167 h -0.454753 -0.132291 v 0.132292 0.79375 0.132291 h 0.132291 0.79375 0.132292 v -0.132291 -0.421667 l 2.645833,-0.181901 v 0.338984 0.132292 h 0.132292 0.79375 0.132291 v -0.132292 -0.79375 -0.132292 h -0.132291 -0.305925 l 0.363803,-2.116667 h 0.471289 0.132292 v -0.132292 -0.79375 -0.132292 h -0.132292 -0.793751 -0.13229 v 0.132292 0.214974 l -2.645833,-0.950833 v -0.587058 -0.132291 h -0.132292 -0.793751 z m 0.264584,0.264583 h 0.529166 v 0.529168 h -0.529166 z m 3.704166,1.322917 h 0.529167 v 0.529167 h -0.529167 z m -0.529167,3.175 h 0.529167 v 0.529167 h -0.529167 z m -3.704166,0.264583 c 0.529167,0 0,0 0.529167,0 v 0.529167 h -0.529167 z" id="polyogn" class="sprite" style="fill:#f2f2f2;fill-opacity:1;stroke:#999999;stroke-width:0.0645583;stroke-dasharray:none;stroke-opacity:1" />
    <g transform="matrix(0.06466922,0,0,0.06466922,11.047118,39.635566)" id="settings" style="fill:#f2f2f2;fill-opacity:1;stroke:#999999;stroke-width:0.998285;stroke-miterlimit:4;stroke-dasharray:none" class="sprite">
      <path inkscape:connector-curvature="0" d="m 98.762,43.652 c -0.186,-1.386 -1.481,-2.582 -2.876,-2.659 l -6.172,-0.337 c -1.395,-0.076 -2.899,-1.224 -3.341,-2.55 l -2.28,-5.518 c -0.629,-1.249 -0.379,-3.121 0.553,-4.161 l 4.122,-4.6 c 0.933,-1.042 0.962,-2.77 0.066,-3.842 l -8.813,-8.813 c -1.073,-0.897 -2.803,-0.867 -3.845,0.065 l -4.598,4.122 c -1.039,0.934 -2.915,1.182 -4.161,0.551 l -5.521,-2.279 c -1.324,-0.442 -2.472,-1.945 -2.549,-3.34 l -0.337,-6.17 c -0.077,-1.396 -1.272,-2.691 -2.659,-2.878 0,0 -3.252,-0.44 -6.248,-0.44 -2.991,0 -6.243,0.44 -6.243,0.44 -1.386,0.188 -2.582,1.483 -2.658,2.878 l -0.338,6.17 c -0.076,1.396 -1.224,2.898 -2.551,3.34 l -5.517,2.279 c -1.249,0.631 -3.122,0.382 -4.161,-0.551 l -4.601,-4.122 c -1.042,-0.932 -2.769,-0.962 -3.842,-0.065 l -8.813,8.813 c -0.897,1.073 -0.867,2.801 0.066,3.842 l 4.122,4.6 c 0.933,1.041 1.182,2.913 0.551,4.161 l -2.279,5.518 c -0.442,1.326 -1.946,2.474 -3.34,2.55 l -6.17,0.337 c -1.396,0.077 -2.691,1.272 -2.879,2.659 0,0 -0.439,3.253 -0.439,6.243 0,2.99 0.44,6.24 0.44,6.24 0.188,1.389 1.483,2.582 2.879,2.659 l 6.169,0.339 c 1.396,0.075 2.898,1.225 3.341,2.549 l 2.278,5.517 c 0.631,1.248 0.381,3.122 -0.551,4.163 l -4.122,4.598 c -0.933,1.042 -0.963,2.771 -0.066,3.845 l 8.814,8.813 c 1.073,0.896 2.801,0.866 3.842,-0.066 l 4.6,-4.122 c 1.041,-0.932 2.913,-1.182 4.161,-0.553 l 5.517,2.28 c 1.327,0.441 2.475,1.946 2.55,3.343 l 0.338,6.168 c 0.076,1.395 1.272,2.692 2.658,2.88 0,0 3.252,0.439 6.244,0.439 2.996,0 6.25,-0.439 6.25,-0.439 1.385,-0.188 2.58,-1.485 2.657,-2.88 l 0.337,-6.168 c 0.077,-1.396 1.225,-2.901 2.551,-3.343 l 5.517,-2.28 c 1.248,-0.629 3.122,-0.379 4.163,0.553 l 4.598,4.122 c 1.042,0.933 2.771,0.964 3.843,0.067 l 8.815,-8.814 c 0.896,-1.073 0.866,-2.803 -0.066,-3.845 l -4.122,-4.598 c -0.932,-1.041 -1.182,-2.915 -0.553,-4.163 l 2.28,-5.517 c 0.441,-1.324 1.946,-2.474 3.341,-2.549 l 6.172,-0.339 c 1.395,-0.077 2.692,-1.271 2.876,-2.659 0,0 0.441,-3.25 0.441,-6.24 0,-2.99 -0.441,-6.243 -0.441,-6.243 z m -48.658,18.709 c -6.886,0 -12.468,-5.585 -12.468,-12.467 0,-6.885 5.582,-12.467 12.468,-12.467 6.89,0 12.475,5.582 12.475,12.467 -10e-4,6.882 -5.586,12.467 -12.475,12.467 z" id="path27812" style="fill:#f2f2f2;fill-opacity:1;stroke:#999999;stroke-width:0.998285;stroke-miterlimit:4;stroke-dasharray:none" />
    </g>
    <path style="fill:#f2f2f2;fill-opacity:1;stroke:#999999;stroke-width:0.0661458;stroke-miterlimit:4;stroke-dasharray:none;stroke-opacity:1" d="m 61.912493,39.687495 c -1.753505,0 -3.175,1.421495 -3.175,3.175 0,1.753504 1.421495,3.175 3.175,3.175 1.753505,0 3.175,-1.421496 3.175,-3.175 0,-1.753505 -1.421495,-3.175 -3.175,-3.175 z m 0,1.322916 1.852083,1.852084 h -1.322917 v 1.5875 h -1.058333 v -1.5875 h -1.322917 z" id="import" class="sprite" />
    <g id="set-zoom" class="sprite" transform="translate(36.946025,8.4770146)">
      <polygon points="17.702,71.042 9.297,62.644 37.37,62.644 37.37,90.703 28.965,82.305 11.27,100 0,88.737 " id="polygon3044" transform="matrix(0.0635,0,0,0.0635,2.2709793,12.435385)" style="fill:#f2f2f2;fill-opacity:1;stroke:#999999;stroke-width:1.04167;stroke-miterlimit:4;stroke-dasharray:none;stroke-opacity:1" />
      <polygon points="100,11.263 88.743,0 71.042,17.708 62.644,9.31 62.644,37.357 90.71,37.37 82.298,28.958 " id="polygon3048" transform="matrix(0.0635,0,0,0.0635,2.2709793,12.435385)" style="fill:#f2f2f2;fill-opacity:1;stroke:#999999;stroke-width:1.04167;stroke-miterlimit:4;stroke-dasharray:none;stroke-opacity:1" />
      <path inkscape:connector-curvature="0" d="m 5.4459792,14.83486 c -0.428308,0 -0.775525,0.347281 -0.775525,0.775525 0,0.429133 0.347281,0.776415 0.775525,0.776415 0.428308,0 0.77597,-0.347282 0.77597,-0.776415 0,-0.428307 -0.347662,-0.775525 -0.77597,-0.775525 z" id="path3052" style="fill:#f2f2f2;fill-opacity:1;stroke:#999999;stroke-width:0.0661458;stroke-miterlimit:4;stroke-dasharray:none;stroke-opacity:1" />
    </g>
    <path d="m 60.085215,50.799999 c -0.890121,-0.0021 -1.610322,0.711677 -1.612305,1.5875 0.002,0.877761 0.722184,1.586074 1.612305,1.5875 0.593513,-8.73e-4 1.110529,-0.321123 1.389062,-0.79375 h 0.65319 l 0.520899,-0.504362 0.396875,0.380339 0.380338,-0.372071 0.388607,0.380339 0.396875,-0.380339 0.388607,0.380339 0.677995,-0.65319 c 0.09761,-0.09927 0.100015,-0.174188 0,-0.272852 l -0.553972,-0.545703 h -3.241145 c -0.277125,-0.47713 -0.799764,-0.794984 -1.397331,-0.79375 z m -0.7028,1.157552 c 0.233963,-0.0011 0.419905,0.187463 0.42168,0.42168 -0.0017,0.230957 -0.187613,0.419542 -0.42168,0.42168 -0.237929,-0.0024 -0.43214,-0.190723 -0.429948,-0.42168 -0.0022,-0.234217 0.192019,-0.422799 0.429948,-0.42168 z" id="permissions" style="fill:#f2f2f2;fill-opacity:1;stroke:#999999;stroke-width:0.0661458;stroke-miterlimit:4;stroke-dasharray:none;stroke-opacity:1" class="sprite" />
    <path inkscape:connector-curvature="0" id="search" d="m 17.462499,54.717768 -1.70307,-1.703547 c 0.229227,-0.378139 0.363561,-0.821298 0.363561,-1.296006 0,-1.384683 -1.120561,-2.50596 -2.505246,-2.506439 -1.383729,5.29e-4 -2.505246,1.121756 -2.505246,2.506201 0,1.383491 1.121756,2.504776 2.505963,2.504776 0.474948,0 0.917387,-0.134337 1.295528,-0.363564 l 1.704026,1.704028 z m -5.39413,-2.999791 c 0.0014,-0.856197 0.693896,-1.548659 1.549853,-1.550093 0.855718,0.0019 1.548419,0.693896 1.549853,1.550093 -0.0017,0.855478 -0.694135,1.548424 -1.549853,1.54962 -0.856196,0 -1.548658,-0.694142 -1.549853,-1.54962 z" style="fill:#f2f2f2;fill-opacity:1;stroke:#999999;stroke-width:0.0661458;stroke-miterlimit:4;stroke-dasharray:none;stroke-opacity:1" class="sprite" />
    <g id="delete-marker" transform="matrix(0.2645833,0,0,0.26458333,23.529018,-228.26116)" style="fill:#f2f2f2;fill-opacity:1;stroke:#999999;stroke-width:0.25;stroke-miterlimit:4;stroke-dasharray:none;stroke-opacity:1" class="sprite">
      <path id="path3378-6" d="m 178.57143,979.21934 c -3.0625,0 -6.125,2.1197 -7,6.375 0,2.5532 1.75,7.6676 7,13.625 3.4166,-3.877 5.31568,-7.3755 6.25,-10.0625 -1.31416,-0.1622 -2.497,-0.7235 -3.40625,-1.5938 -0.63462,0.8653 -1.6677,1.4375 -2.84375,1.4375 -1.933,0 -3.5,-1.5261 -3.5,-3.4062 0,-1.8801 1.567,-3.4063 3.5,-3.4063 0.36776,0 0.72951,0.085 1.0625,0.1875 0.14352,-1.0312 0.55799,-1.956 1.15625,-2.75 -0.72276,-0.259 -1.46314,-0.4062 -2.21875,-0.4062 z" style="fill:#f2f2f2;fill-opacity:1;stroke:#999999;stroke-width:0.25;stroke-miterlimit:4;stroke-dasharray:none;stroke-opacity:1" inkscape:connector-curvature="0" />
      <path inkscape:connector-curvature="0" id="path6764" d="m 185.57143,978.21934 c -2.76142,0 -5,2.2386 -5,5 0,2.7615 2.23858,5 5,5 2.76142,0 5,-2.2385 5,-5 0,-2.7614 -2.23858,-5 -5,-5 z m -1.81818,2.2727 1.81818,1.8182 1.81818,-1.8182 0.90909,0.9091 -1.81818,1.8182 1.81818,1.8182 -0.90909,0.9091 -1.81818,-1.8182 -1.81818,1.8182 -0.90909,-0.9091 1.81818,-1.8182 -1.81818,-1.8182 z" style="fill:#f2f2f2;fill-opacity:1;fill-rule:nonzero;stroke:#999999;stroke-width:0.25;stroke-miterlimit:4;stroke-dasharray:none;stroke-opacity:1" />
    </g>
    <path style="color:#000000;font-style:normal;font-variant:normal;font-weight:normal;font-stretch:normal;font-size:medium;line-height:normal;font-family:Sans;-inkscape-font-specification:Sans;text-indent:0;text-align:start;text-decoration:none;text-decoration-line:none;letter-spacing:normal;word-spacing:normal;text-transform:none;writing-mode:lr-tb;direction:ltr;baseline-shift:baseline;text-anchor:start;display:inline;overflow:visible;visibility:visible;fill:#f2f2f2;fill-opacity:1;stroke:#999999;stroke-width:0.0661458;stroke-miterlimit:4;stroke-dasharray:none;stroke-opacity:1;marker:none;enable-background:accumulate" d="m 68.816465,48.947911 v 0.132292 0.79375 0.132292 h 0.132292 0.347266 l -0.42168,3.174999 h -0.454753 -0.132291 v 0.132292 0.79375 0.132292 h 0.132291 0.79375 0.132292 v -0.132292 -0.421693 c 0,0 3.629162,-2.885599 3.629752,-2.885599 h 0.47129 0.132291 v -0.132291 -0.79375 -0.132292 h -0.132291 -0.79375 -0.132292 v 0.132292 0.214974 l -2.645833,-0.421693 v -0.587031 -0.132292 h -0.132292 -0.79375 z m 0.264584,0.264584 h 0.529166 v 0.529166 h -0.529166 z m 3.704166,0.793749 h 0.529167 v 0.529167 h -0.529167 z m -4.233333,3.439584 h 0.529167 v 0.529166 h -0.529167 z" id="rect4058-1-2" inkscape:connector-curvature="0" sodipodi:nodetypes="ccccccccccccccccccccccccccccccccccccccccccccccccc" />
    <path style="color:#000000;font-style:normal;font-variant:normal;font-weight:normal;font-stretch:normal;font-size:medium;line-height:normal;font-family:Sans;-inkscape-font-specification:Sans;text-indent:0;text-align:start;text-decoration:none;text-decoration-line:none;letter-spacing:normal;word-spacing:normal;text-transform:none;writing-mode:lr-tb;direction:ltr;baseline-shift:baseline;text-anchor:start;display:inline;overflow:visible;visibility:visible;fill:#f2f2f2;fill-opacity:1;stroke:#999999;stroke-width:0.0661458;stroke-miterlimit:4;stroke-dasharray:none;stroke-opacity:1;marker:none;enable-background:accumulate" d="m 70.883523,54.239576 h -0.926042 -0.132292 v 0.132292 0.79375 0.132291 h 0.132292 0.79375 0.132292 v -0.132291 -0.421667 l 2.645833,0.347266 v 0.338984 0.132292 h 0.132292 0.793749 0.132292 v -0.132292 -0.79375 -0.132291 h -0.132292 -0.305924 l -0.644922,-2.116667 h 0.471289 0.132292 v -0.132292 -0.79375 -0.132291 h -0.132292 -0.79375 -0.181901 v 0.79375 c 0,0 -2.067057,2.116666 -2.116666,2.116666 z m 2.430859,-2.645833 h 0.529167 v 0.529167 h -0.529167 z m 0.479557,3.175 h 0.529167 v 0.529167 h -0.529167 z m -3.704166,-0.264584 h 0.529166 v 0.529167 h -0.529166 z" id="rect4058-1-2-0" inkscape:connector-curvature="0" sodipodi:nodetypes="cccccccccccccccccccccccccccccccccccccccccccccccc" />
    <path id="polyline-7" style="fill:#f2f2f2;fill-opacity:1;stroke:#999999;stroke-width:0.06614583;stroke-opacity:1;stroke-dasharray:none" class="sprite" d="m 82.157766,58.737493 v 0.132292 0.274402 c -0.112072,0.03575 -0.884089,0.288576 -1.636592,0.706416 -0.406918,0.225948 -0.809945,0.499571 -1.105359,0.822689 -0.295414,0.323118 -0.487317,0.708745 -0.427364,1.13068 0.05122,0.360441 0.333679,0.58217 0.671794,0.711068 0.338116,0.128898 0.749435,0.187865 1.14825,0.248047 0.398815,0.06018 0.7847,0.12237 1.050581,0.234094 0.132941,0.05586 0.233637,0.122832 0.29714,0.199471 0.0635,0.07664 0.09706,0.161442 0.09353,0.286804 -0.0075,0.266664 -0.150784,0.451026 -0.394291,0.603581 -0.243508,0.152556 -0.584004,0.256934 -0.926041,0.320394 -0.543472,0.100832 -1.088632,0.104111 -1.289844,0.101285 v -0.347265 -0.132292 h -0.132292 -0.79375 -0.132291 v 0.132292 0.79375 0.132291 h 0.132291 0.79375 0.132292 v -0.132291 -0.09095 -0.0894 c 0.21352,0.0027 0.77218,-0.0023 1.338936,-0.107487 0.360753,-0.06693 0.727258,-0.173694 1.017509,-0.355534 0.290251,-0.18184 0.507019,-0.456348 0.517281,-0.820621 0.0051,-0.181106 -0.05053,-0.3422 -0.151929,-0.464572 -0.101396,-0.122371 -0.240668,-0.207078 -0.398425,-0.273368 -0.315515,-0.13258 -0.715788,-0.191913 -1.115177,-0.252181 -0.399389,-0.06027 -0.798946,-0.121616 -1.09399,-0.234094 -0.295043,-0.112478 -0.466732,-0.253587 -0.501778,-0.500228 -0.04588,-0.322873 0.09499,-0.62522 0.359151,-0.914156 0.264163,-0.288935 0.647113,-0.551742 1.039213,-0.769462 0.626556,-0.347906 1.272805,-0.581188 1.507401,-0.660941 v 0.241329 0.132291 h 0.132292 0.79375 0.132291 v -0.132291 -0.09095 -0.289388 -0.413411 -0.132292 h -0.132291 -0.79375 z m 0.264584,0.264583 h 0.529166 v 0.529167 h -0.529166 z m -3.576526,5.291666 h 0.529167 v 0.529167 h -0.529167 z" />
    <g id="multiline" transform="translate(57.149996,38.099996)">
      <path inkscape:connector-curvature="0" style="color:#000000;font-style:normal;font-variant:normal;font-weight:normal;font-stretch:normal;font-size:medium;line-height:normal;font-family:Sans;-inkscape-font-specification:Sans;text-indent:0;text-align:start;text-decoration:none;text-decoration-line:none;letter-spacing:normal;word-spacing:normal;text-transform:none;writing-mode:lr-tb;direction:ltr;baseline-shift:baseline;text-anchor:start;display:inline;overflow:visible;visibility:visible;fill:#f2f2f2;fill-opacity:1;stroke:#999999;stroke-width:0.0661458;stroke-miterlimit:4;stroke-dasharray:none;stroke-opacity:1;marker:none;enable-background:accumulate" d="m 11.906249,29.898045 v 0.132292 0.79375 0.132292 h 0.132291 0.79375 0.132292 v -0.132292 -0.09096 l 2.645832,1.058334 v 0.355547 0.115755 l 0.289388,0.0164 h 0.636654 0.132292 v -0.132292 -0.79375 -0.132291 h -0.132292 -0.79375 -0.132292 v 0.132291 0.148829 l -2.645832,-1.058334 v -0.413411 -0.132292 h -0.132292 -0.79375 z m 0.264583,0.264584 h 0.529167 v 0.529166 h -0.529167 z m 3.704166,1.322916 h 0.529166 v 0.529167 h -0.529166 z" id="rect4058-9" sodipodi:nodetypes="ccccccccccccccccccccccccccccccccccccccc" />
      <path inkscape:connector-curvature="0" style="color:#000000;font-style:normal;font-variant:normal;font-weight:normal;font-stretch:normal;font-size:medium;line-height:normal;font-family:Sans;-inkscape-font-specification:Sans;text-indent:0;text-align:start;text-decoration:none;text-decoration-line:none;letter-spacing:normal;word-spacing:normal;text-transform:none;writing-mode:lr-tb;direction:ltr;baseline-shift:baseline;text-anchor:start;display:inline;overflow:visible;visibility:visible;fill:#f2f2f2;fill-opacity:1;stroke:#999999;stroke-width:0.0661458;stroke-miterlimit:4;stroke-dasharray:none;stroke-opacity:1;marker:none;enable-background:accumulate" d="m 12.989387,32.320492 v 0.355547 0.115755 l 1.876888,2.926953 h 0.636653 0.132292 v 0.132292 0.79375 0.132291 h -0.132292 -0.79375 -0.132291 v -0.132291 -0.79375 -0.09922 l -1.876888,-2.94349 h -0.636654 -0.132292 v -0.132291 -0.79375 -0.132292 h 0.132292 0.79375 0.132292 v 0.132292 0.148828 z m -0.264584,-0.305912 h -0.529166 v 0.529167 h 0.529166 z m 2.645834,3.96875 h -0.529167 v 0.529167 h 0.529167 z" id="rect4058-9-5" sodipodi:nodetypes="ccccccccccccccccccccccccccccccccccccc" />
    </g>
    <path style="fill:#f2f2f2;fill-opacity:1;fill-rule:evenodd;stroke:#999999;stroke-width:0.0468913;stroke-linecap:butt;stroke-linejoin:miter;stroke-miterlimit:4;stroke-dasharray:none;stroke-opacity:1" d="m 33.328633,32.279163 -2.107805,2.116665 h 4.233333 z" id="arrow-up" inkscape:connector-curvature="0" sodipodi:nodetypes="cccc" />
    <path style="fill:#f2f2f2;fill-opacity:1;fill-rule:evenodd;stroke:#999999;stroke-width:0.0468312;stroke-linecap:butt;stroke-linejoin:miter;stroke-miterlimit:4;stroke-dasharray:none;stroke-opacity:1" d="m 23.812496,34.395828 2.116666,-2.116667 h -4.233332 z" id="arrow-down" inkscape:connector-curvature="0" sodipodi:nodetypes="cccc" />
    <path d="m 39.96929,52.318413 h 4e-6 c 0.0102,-0.0168 0.02435,-0.0308 0.04124,-0.04083 l 9e-6,-2.6e-5 0.353087,-0.209723 2.475253,1.470258 0.01763,0.01048 0.01763,-0.01048 2.475273,-1.470258 0.353093,0.209723 c 0,0 0,0 0,0 0.05689,0.03382 0.07555,0.107108 0.04128,0.163737 -0.01019,0.01679 -0.02442,0.03085 -0.0413,0.04091 0,0 0,0 0,0 l -2.845967,1.690437 -2.845965,-1.690437 c -10e-7,0 -2e-6,0 -3e-6,0 -0.05691,-0.03382 -0.07557,-0.107161 -0.04125,-0.16379 z m 0,1.434967 h 4e-6 c 0.0102,-0.01682 0.02435,-0.03083 0.04124,-0.04086 h 9e-6 l 0.353087,-0.209751 2.475253,1.470286 0.01763,0.01046 0.01763,-0.01046 2.475273,-1.470286 0.353093,0.209751 c 0.05689,0.03379 0.07555,0.107134 0.04125,0.163763 l 0.02915,0.01701 -0.02912,-0.01703 c -0.01019,0.0168 -0.02442,0.03083 -0.0413,0.04091 0,0 0,0 0,0 l -2.70492,1.606643 c -0.08683,0.05158 -0.195264,0.05158 -0.282094,0 l -2.704918,-1.60667 c -10e-7,0 -2e-6,0 -3e-6,0 -0.05691,-0.03382 -0.07557,-0.107134 -0.04125,-0.163763 z m 0.04125,-2.690882 -0.01757,0.02848 0.01757,-0.02848 c -0.05691,-0.0338 -0.07557,-0.107135 -0.04125,-0.163761 l 2e-6,-2e-6 c 0.01019,-0.01679 0.02435,-0.03081 0.04125,-0.04086 h 2e-6 l 2.704921,-1.606703 c 0.08683,-0.05157 0.195264,-0.05157 0.282093,0 l 2.704948,1.6067 c 0.05689,0.0338 0.07555,0.107141 0.04125,0.163771 -0.01019,0.01681 -0.02438,0.03082 -0.04125,0.04086 l -2.845994,1.690461 z" fill="#f2f2f2" stroke="#999999" stroke-width="0.0661458" id="datalayers" />
    <g id="tilelayers" transform="matrix(1.0024854,0,0,1.0105262,19.49603,56.565125)" style="stroke-width:0.993545">
      <path d="m 25.978244,7.8843707 h 0.03307 v -0.033073 -3.5463476 -0.033073 h -0.03307 -3.713453 -0.03307 v 0.033073 3.5463476 0.033073 h 0.03307 z m -3.978701,-4.1590643 h 4.243946 c 0.06157,0 0.120623,0.024461 0.164173,0.068001 0.04352,0.04354 0.068,0.1025948 0.068,0.1641713 v 4.2439425 c 0,0.061569 -0.02447,0.1206236 -0.068,0.164174 -0.04355,0.04355 -0.102605,0.067998 -0.164173,0.067998 h -4.243946 c -0.06158,0 -0.120628,-0.024448 -0.164171,-0.067998 -0.04354,-0.04355 -0.068,-0.1026054 -0.068,-0.164174 v -4.2439425 c 0,-0.061577 0.02446,-0.1206315 0.068,-0.1641713 0.04354,-0.04354 0.102595,-0.068001 0.164171,-0.068001 z" fill="#f2f2f2" stroke="#999999" stroke-width="0.0657188" id="path1257" />
      <g mask="url(#mask0_181_11916)" id="g1284" transform="matrix(0.2645833,0,0,0.2645833,20.108331,2.1166664)" style="stroke-width:0.993545">
        <path d="m 16.0401,2.3158 h -14.0351 v 14.0351 h 14.0351 z" fill="#d5ecbe" id="path1262" style="stroke-width:0.992312" />
        <path d="m 2.37597,3.42857 c 0.26774,-0.31238 0.61516,-0.54633 1.00529,-0.67696 0.39014,-0.13063 0.80838,-0.15306 1.21025,-0.06489 0.32391,0.15649 0.58536,0.41794 0.74185,0.74185 0.37093,0.72181 0,1.26316 0,2.21554 -0.0802,1.72431 1.00251,2.08522 0.73183,3.68923 -0.0802,0.57142 -0.34085,1.44356 -0.73183,1.47366 -0.62155,0.0602 -0.94235,-2.00499 -2.21554,-2.21552 -0.39097,-0.06015 -0.47117,0.11028 -0.74185,0 -1.05263,-0.401 -1.523811,-3.65915 0,-5.16291 z" fill="#e9daab" id="path1264" style="stroke-width:0.992312" />
        <path d="m 7.1779,16.3509 c -1.75438,-1.7243 -2.16541,-1.7544 -2.16541,-2.2156 -0.1604,-1.0025 1.74436,-1.2932 2.21554,-2.9573 0.33083,-1.173 -0.47118,-1.56396 -0.74186,-3.68927 -0.1604,-1.25313 -0.401,-3.21805 0.74186,-4.43108 1.14286,-1.21303 3.13787,-1.17293 4.43107,-0.74185 1.0647,0.38986 1.9867,1.09245 2.6451,2.01558 0.6584,0.92314 1.0223,2.02371 1.0441,3.15735 0,1.24311 -0.6817,1.65413 -0.7318,3.68927 0.0605,0.7372 0.0605,1.4782 0,2.2155 -0.1546,1.1225 -0.6763,2.1624 -1.4837,2.9574 -1.5038,1.3433 -3.90978,1.6942 -5.22307,0.7418 -0.15037,-0.1102 -0.07017,-0.0501 -0.73183,-0.7418 z" fill="#bcd8af" id="path1266" style="stroke-width:0.992312" />
        <path d="m 14.1956,9.33332 c -0.4303,0.37544 -0.6966,0.90438 -0.7419,1.47368 0,0.1203 0,1.213 0.7419,1.4837 0.2937,0.0714 0.6033,0.036 0.8733,-0.0999 0.27,-0.1359 0.4828,-0.3635 0.6004,-0.6419 0.066,-0.2429 0.066,-0.499 0,-0.7419 -0.1604,-1.38345 0.3007,-2.00501 0,-2.21553 -0.3008,-0.21053 -1.0928,0.35087 -1.4737,0.74185 z" fill="#ebe9d6" id="path1268" style="stroke-width:0.992312" />
        <path d="m 14.1955,15.2381 c 0.2874,0.0123 0.5733,-0.0483 0.831,-0.1763 0.2577,-0.1279 0.4788,-0.3191 0.6427,-0.5555 0.2005,-0.3308 0.4411,-1.0526 0,-1.4837 -0.2062,-0.1739 -0.4672,-0.2693 -0.7369,-0.2693 -0.2696,0 -0.5306,0.0954 -0.7368,0.2693 0,0 -1.4837,0.7418 -1.4837,1.4837 0,0.7418 1.4837,0.7318 1.4837,0.7318 z" fill="#f3ecdd" id="path1270" style="stroke-width:0.992312" />
        <path d="m 7.90976,1.57394 c -1.89474,1.32331 -2.26566,2.29574 -2.21554,2.9574 0.0802,1.0025 1.09273,1.37343 1.48371,3.00752 0.19537,0.72559 0.19537,1.48994 0,2.21553 -0.58145,1.85461 -2.51629,1.88471 -3.69925,3.68921 -0.6679,1.11 -0.92678,2.4186 -0.73183,3.6993" stroke="#dfa170" stroke-width="0.745158" stroke-miterlimit="10" id="path1272" style="fill:none" />
        <path d="m 5.33325,1.94485 c 1.5732,1.61744 2.60339,3.68483 2.94737,5.91479 0.13097,0.73271 0.13097,1.48283 0,2.21556 -0.33083,1.7042 -1.30326,2.3559 -2.21554,4.4311 -0.31515,0.713 -0.56025,1.455 -0.73183,2.2155" stroke="#e0859b" stroke-width="0.248386" stroke-miterlimit="10" id="path1274" style="fill:none" />
        <path d="m 10.4963,14.5063 c -1.84462,-1.0025 -1.7143,-5.53387 0,-6.64665 0.5915,-0.38096 1.1328,-0.21053 1.4837,-0.74186 0.5213,-0.802 -0.411,-1.69423 0,-2.95739 0.2306,-0.72181 0.8922,-1.52381 1.4737,-1.47369 1.0025,0.0802 2.1253,2.5564 1.4737,4.43108 -0.5314,1.56391 -1.9148,1.51379 -2.2156,3.00751 -0.3408,1.6441 1.2732,2.6266 0.7419,3.6892 -0.3395,0.4362 -0.8182,0.7428 -1.3564,0.8687 -0.5382,0.1259 -1.1033,0.0634 -1.601,-0.1769 z" fill="#ade3ea" id="path1276" style="stroke-width:0.992312" />
        <path d="m 7.90971,2.31578 c -0.39098,0.91228 0.21052,2.14537 0.74185,2.21554 0.53133,0.07018 0.66166,-0.65163 1.48374,-0.74185 0.401,0 0.5213,0.1203 0.7318,0 0.5013,-0.27068 0.6115,-1.62406 0,-2.21554 -0.2397,-0.1568 -0.5092,-0.26229 -0.7916,-0.30984 -0.28244,-0.04755 -0.57165,-0.03612 -0.84944,0.03356 -0.2778,0.06969 -0.53816,0.19612 -0.76471,0.37134 -0.22654,0.17522 -0.41436,0.39544 -0.55164,0.64679 z" fill="#748ec2" id="path1278" style="stroke-width:0.992312" />
        <path d="m 10.1354,5.27317 c -0.31082,0.30075 -0.88225,0.85213 -0.7419,1.47369 0.09023,0.401 0.45113,0.78195 0.7419,0.74185 0.2907,-0.0401 0.2907,-0.57143 0.7318,-0.74185 0.4411,-0.17043 0.5113,0.11027 0.7418,0 0.5314,-0.24061 0.6116,-1.92482 0,-2.21554 -0.6115,-0.29073 -1.2431,0.4812 -1.4736,0.74185 z" fill="#f3ecdd" id="path1280" style="stroke-width:0.992312" />
        <path d="m 3.47861,3.78948 c 0.27068,-0.1604 1.31328,0.54135 1.48371,1.48371 0.17043,0.94236 -0.82205,2.31579 -1.48371,2.21554 -0.28201,-0.11246 -0.51262,-0.32501 -0.64766,-0.59693 -0.13503,-0.27192 -0.165,-0.58411 -0.08417,-0.87676 0.27068,-0.55137 1.45364,-0.4411 1.47369,-0.73183 0.02005,-0.29072 -0.51128,-0.27067 -0.74186,-0.75188 -0.1203,-0.27067 -0.14035,-0.65162 0,-0.74185 z" fill="#cfd7c8" id="path1282" style="stroke-width:0.992312" />
      </g>
      <path d="m 24.352274,6.3088036 h 0.03307 v -0.033073 -3.5463449 -0.033073 h -0.03307 -3.713451 -0.03307 v 0.033073 3.5463449 0.033073 h 0.03307 z m -3.978696,-4.1590643 h 4.24394 c 0.06157,0 0.120624,0.024461 0.164174,0.068002 0.04355,0.043541 0.068,0.102595 0.068,0.1641723 v 4.2439399 c 0,0.061569 -0.02445,0.1206236 -0.068,0.164174 -0.04355,0.04355 -0.102605,0.067998 -0.164174,0.067998 h -4.24394 c -0.06158,0 -0.120631,-0.024447 -0.164172,-0.067998 -0.04354,-0.04355 -0.068,-0.1026054 -0.068,-0.164174 v -4.2439399 c 0,-0.061577 0.02446,-0.1206315 0.068,-0.1641723 0.04354,-0.043541 0.102595,-0.068002 0.164172,-0.068002 z" fill="#f2f2f2" stroke="#999999" stroke-width="0.0657188" id="path1286" />
    </g>
    <g id="info" transform="matrix(0.33072916,0,0,0.33072916,7.1437485,-265.81337)" style="stroke-width:0.8">
      <path id="path3762" style="fill:#f2f2f2;fill-opacity:1;stroke:#999999;stroke-width:0.2;stroke-dasharray:none;stroke-opacity:1" d="m 107.99999,838.36217 a 8,8 0 0 0 -7.999998,8 8,8 0 0 0 7.999998,8 8,8 0 0 0 8,-8 8,8 0 0 0 -8,-8 z m 0,2.5 a 1.5,1.5 0 0 1 1.5,1.5 1.5,1.5 0 0 1 -1.5,1.5 1.5,1.5 0 0 1 -1.5,-1.5 1.5,1.5 0 0 1 1.5,-1.5 z m -1,4.5 h 2 v 6 h -2 z" />
    </g>
    <path d="m 5.6444435,59.43432 v 1.034991 h 1.0541546 z m 1.1759257,1.612262 h -1.1759257 c -0.3247228,0 -0.5879626,-0.258453 -0.5879626,-0.577271 v -1.154545 h -2.3518514 v 5.195451 h 4.1157397 z m -4.1157397,-2.309089 h 3.0615854 l 1.6421175,1.612259 v 4.160465 c 0,0.318822 -0.2632403,0.577275 -0.5879632,0.577275 h -4.1157397 c -0.3247231,0 -0.5879631,-0.258453 -0.5879631,-0.577275 v -5.195451 c 0,-0.31882 0.26324,-0.577273 0.5879631,-0.577273 z m 1.7638882,3.92135 v -1.323625 h 0.5879632 v 1.323625 l 0.3800861,-0.373177 0.415753,0.408196 -1.0898206,1.070004 -1.0898208,-1.070004 0.4157526,-0.408196 z" fill-rule="evenodd" id="downloadfile" style="fill:#f2f2f2;fill-opacity:1;stroke:#999999;stroke-width:0.0661458;stroke-dasharray:none;stroke-opacity:0.509804" />
    <path id="path3014" style="fill:#f2f2f2;fill-opacity:1;stroke:#999999;stroke-width:0.0661458;stroke-dasharray:none;stroke-opacity:1" d="m 4.6307246,2.6463498 c -1.532749,0 -2.7791581,1.244859 -2.7791582,2.7776079 0,1.532749 1.2464092,2.777091 2.7791582,2.7770911 1.532749,0 2.7776079,-1.2443421 2.7776079,-2.7770911 0,-1.5327489 -1.244859,-2.7776079 -2.7776079,-2.7776079 z m 0,0.2635498 c 1.3897577,-1e-7 2.5140581,1.1243004 2.5140581,2.5140581 0,1.3897578 -1.1243004,2.5135414 -2.5140581,2.5135414 -1.3897577,-1e-7 -2.5135414,-1.1237837 -2.5135414,-2.5135414 1e-7,-1.3897577 1.1237837,-2.5140581 2.5135414,-2.5140581 z m -0.00413,0.7503417 c -0.1435825,0 -0.2926135,0.015464 -0.447001,0.046509 -0.1543893,0.030939 -0.3253038,0.078749 -0.5121134,0.1436604 v 0.7286376 c 0.1574758,-0.1021291 0.3091099,-0.1784316 0.4542358,-0.2294433 0.1451243,-0.052458 0.2800873,-0.079065 0.4051431,-0.079065 0.1327728,0 0.2359507,0.03107 0.3100586,0.093018 0.074105,0.06029 0.1111027,0.1443597 0.1111043,0.2526978 -1.6e-6,0.071155 -0.020845,0.1421978 -0.062528,0.2134236 -0.040142,0.071155 -0.1042362,0.1469429 -0.1922363,0.2273763 l -0.1477946,0.1348754 c -0.1636528,0.1516239 -0.2709968,0.2766629 -0.3219441,0.3756877 -0.050949,0.097508 -0.076481,0.2100714 -0.076481,0.3369303 v 0.1136881 h 0.8361246 v -0.1043864 c -1.7e-6,-0.069638 0.016152,-0.1334654 0.048576,-0.190686 0.03242,-0.058808 0.101203,-0.1360716 0.206189,-0.2320272 l 0.1477945,-0.1322916 c 0.1451229,-0.1376892 0.2477777,-0.2658563 0.3079915,-0.3849894 0.060208,-0.1206853 0.090431,-0.2571366 0.090434,-0.4087605 -2.5e-6,-0.2954867 -0.098491,-0.5196863 -0.2961059,-0.6728271 -0.1976188,-0.154693 -0.4847397,-0.2320271 -0.8614461,-0.2320271 z m -0.4795572,2.7016435 v 0.8257893 h 0.8361246 v -0.8257893 z" />
    <g id="text3784" style="font-style:normal;font-weight:normal;font-size:40px;line-height:125%;font-family:Sans;letter-spacing:0px;word-spacing:0px;fill:#4d4d4d;fill-opacity:1;stroke:none;stroke-width:0.75" transform="matrix(0.35277776,0,0,0.35277776,1.8079862,-363.00384)" />
    <path id="copy" style="fill:#f2f2f2;fill-opacity:1;stroke-width:0.264582;paint-order:fill markers stroke" d="m 42.218298,69.320832 v 1.288405 h 1.472463 v 1.472465 h 1.288405 v -2.76087 z m -1.472465,1.472463 v 2.760871 h 2.760869 v -2.760871 z" />
    <path d="m 55.033327,70.90806 v 2.646098 c 0,0.146129 -0.118454,0.264583 -0.264584,0.264583 h -2.116666 v -2.910681 z m -2.910417,1.5875 v 1.323181 h -2.116666 c -0.146124,0 -0.264583,-0.118454 -0.264583,-0.264583 v -1.058598 z m 0,-3.439318 v 2.910152 h -2.381249 v -2.645569 c 0,-0.146124 0.118459,-0.264583 0.264583,-0.264583 z m 2.645833,0 c 0.14613,0 0.264584,0.118459 0.264584,0.264583 v 1.058069 h -2.38125 v -1.322652 z" fill="#f6f6f6" id="path1" style="stroke-width:0.264583" />
    <path style="fill:#f2f2f2;fill-opacity:1;fill-rule:evenodd;stroke:#999999;stroke-width:0.06614583;stroke-linecap:butt;stroke-linejoin:miter;stroke-opacity:1;stroke-dasharray:none" d="m 78.316665,7.1493109 h 5.31658 l -1.726594,-4.768061 -1.171181,2.5168969 -0.984189,-1.3411192 z" id="path3" sodipodi:nodetypes="cccccc" />
  </g>
</svg>
