<?xml version="1.0" encoding="UTF-8" standalone="no"?>
<!-- Created with Inkscape (http://www.inkscape.org/) -->

<svg width="324" height="288" viewBox="0 0 85.724999 76.199999" version="1.1" id="svg6237" inkscape:version="1.4.2 (ebf0e940d0, 2025-05-08)" sodipodi:docname="24.svg" inkscape:export-filename="../24.svg" inkscape:export-xdpi="7.52" inkscape:export-ydpi="7.52" xmlns:inkscape="http://www.inkscape.org/namespaces/inkscape" xmlns:sodipodi="http://sodipodi.sourceforge.net/DTD/sodipodi-0.dtd" xmlns="http://www.w3.org/2000/svg" xmlns:svg="http://www.w3.org/2000/svg">
  <sodipodi:namedview id="namedview6239" pagecolor="#ffffff" bordercolor="#666666" borderopacity="1.0" inkscape:showpageshadow="2" inkscape:pageopacity="0.0" inkscape:pagecheckerboard="0" inkscape:deskcolor="#d1d1d1" inkscape:document-units="px" showgrid="true" showguides="true" inkscape:zoom="2.4929956" inkscape:cx="136.38211" inkscape:cy="160.04842" inkscape:window-width="1920" inkscape:window-height="1011" inkscape:window-x="0" inkscape:window-y="0" inkscape:window-maximized="1" inkscape:current-layer="layer1">
    <inkscape:grid type="xygrid" id="grid6358" empspacing="6" originx="0" originy="0" spacingy="0.26458333" spacingx="0.26458333" units="px" visible="true" />
    <inkscape:grid id="grid1" units="px" originx="0" originy="0" spacingx="9.5249999" spacingy="9.5249999" empcolor="#3f3fff" empopacity="0.25098039" color="#ff0000" opacity="0.83529412" empspacing="0" dotted="false" gridanglex="30" gridanglez="30" visible="true" />
  </sodipodi:namedview>
  <defs id="defs6234">
    <clipPath id="clip0_166_13480">
      <rect width="24" height="24" fill="#ffffff" id="rect5811" x="0" y="0" />
    </clipPath>
    <mask id="mask0_166_13480" maskUnits="userSpaceOnUse" x="1" y="1" width="17" height="17">
      <path d="m 17.6,1.60001 h -16.00002 v 15.99999 h 16.00002 z" fill="#ffffff" id="path5278" />
    </mask>
    <mask id="mask0_181_11898" maskUnits="userSpaceOnUse" x="2" y="2" width="15" height="15">
      <path d="m 16.0401,2.3158 h -14.0351 v 14.0351 h 14.0351 z" fill="#ffffff" id="path2351" />
    </mask>
  </defs>
  <g inkscape:label="Layer 1" inkscape:groupmode="layer" id="layer1">
    <path style="fill:#4d4d4d;fill-opacity:1;stroke:none;stroke-width:0.264583" d="m 25.532291,20.902083 -0.529167,0.529167 1.058333,1.058333 0.529167,-0.529167 z m -0.79375,0.79375 -2.910417,2.910417 1.058333,1.058333 2.910417,-2.910417 z m -2.910417,2.910417 -0.79375,1.852083 1.852083,-0.79375 z" id="edit" inkscape:connector-curvature="0" sodipodi:nodetypes="cccccccccccccc" class="sprite" />
    <path style="fill:#4d4d4d;fill-opacity:1;fill-rule:nonzero;stroke:none;stroke-width:0.264583" d="m 51.858331,21.16666 v 0.529167 c -0.529167,0 -1.058333,0 -1.322917,0.529166 v 0.264584 h 3.704167 v -0.264584 c -0.264583,-0.529166 -0.79375,-0.529166 -1.322917,-0.529166 v -0.529167 z m -1.322917,1.5875 0.79375,3.704172 h 2.116667 l 0.79375,-3.704172 z" id="delete" inkscape:connector-curvature="0" sodipodi:nodetypes="cccccccccccccc" inkscape:label="delete-30" class="sprite" />
    <g id="measure" transform="matrix(0.26458333,0,0,0.26458333,-11.112499,-232.45291)" class="sprite">
      <path sodipodi:nodetypes="ccccccccccccccccccccccccccccc" inkscape:connector-curvature="0" id="rect4452" d="m 47.999998,965.36218 h 3.000002 v 8 h 2 v -8 h 2 v 5 h 1 v -5 h 2 v 5 h 1 v -5 h 2 v 5 h 1 v -5 h 2 v 5 h 1 v -5 h 2 v 8 h 2 v -8 h 3 v 11 h -24 z" style="fill:#4d4d4d;fill-opacity:1;fill-rule:nonzero;stroke:none" />
      <text id="text4455" y="964.36218" x="49.170559" style="font-style:normal;font-weight:normal;line-height:0%;font-family:sans-serif;letter-spacing:0px;word-spacing:0px;fill:#4d4d4d;fill-opacity:1;stroke:none" xml:space="preserve"><tspan style="font-weight:bold;font-size:8px;line-height:1.25;font-family:sans-serif;-inkscape-font-specification:'Sans Bold';fill:#4d4d4d;fill-opacity:1" y="964.36218" x="49.170559" id="tspan4457" sodipodi:role="line">0</tspan></text>
      <text xml:space="preserve" style="font-style:normal;font-weight:normal;line-height:0%;font-family:sans-serif;letter-spacing:0px;word-spacing:0px;fill:#4d4d4d;fill-opacity:1;stroke:none" x="65.048965" y="964.36218" id="text4459"><tspan sodipodi:role="line" id="tspan4461" x="65.048965" y="964.36218" style="font-weight:bold;font-size:8px;line-height:1.25;font-family:sans-serif;-inkscape-font-specification:'Sans Bold';fill:#4d4d4d;fill-opacity:1">1</tspan></text>
    </g>
    <g id="markers" transform="matrix(0.26458333,0,0,0.26458333,42.862499,-225.92402)" class="sprite">
      <path sodipodi:nodetypes="sscccsssccss" inkscape:connector-curvature="0" id="rect2985" d="m 105.25387,934.36268 c -3.17753,0 -6.678764,2.07016 -7.25387,6.3794 -0.337461,2.52858 1.806672,7.6679 7.25387,13.6201 1.46368,-1.5994 2.66945,-3.1177 3.64397,-4.5613 -1.4505,-2.1639 -2.41497,-4.0873 -2.96285,-5.7095 -0.22599,0.041 -0.44225,0.063 -0.68112,0.063 -2.0056,0 -3.64396,-1.5346 -3.64396,-3.413 0,-1.8785 1.63836,-3.3811 3.64396,-3.3811 0.51205,0 0.98854,0.076 1.43034,0.2552 0.64347,-0.9222 1.4345,-1.6571 2.31579,-2.169 -1.14444,-0.7114 -2.44633,-1.0845 -3.74613,-1.0845 z" style="fill:#4d4d4d;fill-opacity:1;stroke:none" />
      <path id="path3378" d="m 111,934.36218 c -3.0625,0 -6.44624,2.07411 -7,6.383 -0.32545,2.53237 1.75,7.6596 7,13.617 5.25,-5.9574 7.32545,-11.08463 7,-13.617 -0.55376,-4.30889 -3.9375,-6.383 -7,-6.383 z m 0,2.9788 c 1.933,0 3.5,1.5241 3.5,3.4042 0,1.8801 -1.567,3.4043 -3.5,3.4043 -1.93299,0 -3.5,-1.5242 -3.5,-3.4043 0,-1.8801 1.56701,-3.4042 3.5,-3.4042 z" style="fill:#4d4d4d;fill-opacity:1;stroke:none" inkscape:connector-curvature="0" sodipodi:nodetypes="sscsssssss" />
    </g>
    <path inkscape:connector-curvature="0" style="fill:#4d4d4d;fill-opacity:1;stroke:none;stroke-width:0.264583" d="m 71.437498,11.178646 c -0.926041,0 -1.949329,0.645677 -2.116666,1.984375 -0.09845,0.78762 0.529166,2.381249 2.116666,4.233333 1.5875,-1.852084 2.215119,-3.445713 2.116667,-4.233333 -0.167337,-1.338698 -1.190625,-1.984375 -2.116667,-1.984375 z m 0,0.926041 c 0.584502,0 1.058334,0.473832 1.058334,1.058334 0,0.584501 -0.473832,1.058333 -1.058334,1.058333 -0.584501,0 -1.058333,-0.473832 -1.058333,-1.058333 0,-0.584502 0.473832,-1.058334 1.058333,-1.058334 z" id="marker" class="sprite" sodipodi:nodetypes="sscsssssss" />
    <g id="g1">
      <path inkscape:connector-curvature="0" d="m 69.056248,58.737493 v 0.132291 0.79375 0.132292 h 0.132293 0.79375 0.132292 v -0.132292 -0.09095 l 2.645833,1.058334 v 0.355533 0.115756 l -1.876888,2.926953 h -0.636654 -0.132291 v 0.132291 0.79375 0.132292 h 0.132291 0.79375 0.132292 v -0.132292 -0.79375 -0.09922 l 1.876888,-2.943489 h 0.636654 0.132291 v -0.132292 -0.79375 -0.132291 h -0.132291 -0.79375 -0.132292 v 0.132291 0.148828 l -2.645833,-1.058333 v -0.413411 -0.132292 h -0.132292 -0.79375 z m 0.264584,0.264583 h 0.529166 v 0.529167 h -0.529166 z m 3.704166,1.322917 h 0.529167 v 0.529166 h -0.529167 z m -2.645833,3.96875 h 0.529167 v 0.529166 h -0.529167 z" id="polyline" class="sprite" style="fill:#4d4d4d;fill-opacity:1;stroke-width:0.264583" />
    </g>
    <path d="m 69.320832,39.952089 v 0.132292 0.793751 0.132291 h 0.132292 0.347265 l -0.421679,3.704167 h -0.454753 -0.132292 v 0.132292 0.79375 0.132291 h 0.132292 0.79375 0.132292 v -0.132291 -0.421667 l 2.645833,-0.181901 v 0.338984 0.132292 h 0.132292 0.79375 0.132291 v -0.132292 -0.79375 -0.132292 h -0.132291 -0.305925 l 0.363802,-2.116667 h 0.471289 0.132292 v -0.132291 -0.793751 -0.132291 h -0.132292 -0.79375 -0.132291 v 0.132291 0.214974 l -2.645834,-0.950833 v -0.587057 -0.132292 h -0.132291 -0.79375 z m 0.264583,0.264584 h 0.529167 v 0.529167 h -0.529167 z m 3.704167,1.322916 h 0.529167 v 0.529167 h -0.529167 z m -0.529167,3.175 h 0.529167 v 0.529167 h -0.529167 z m -3.704166,0.264583 c 0.529166,0 0,0 0.529166,0 v 0.529167 h -0.529166 z" id="polygon" inkscape:connector-curvature="0" sodipodi:nodetypes="ccccccccccccccccccccccccccccccccccccccccccccccccccccccccccccccccc" class="sprite" style="fill:#4d4d4d;fill-opacity:1;stroke-width:0.264583" />
    <g transform="matrix(0.06466922,0,0,0.06466922,11.047119,39.63557)" id="settings" style="fill:#4d4d4d;fill-opacity:1;stroke:none" class="sprite">
      <path inkscape:connector-curvature="0" d="m 98.762,43.652 c -0.186,-1.386 -1.481,-2.582 -2.876,-2.659 l -6.172,-0.337 c -1.395,-0.076 -2.899,-1.224 -3.341,-2.55 l -2.28,-5.518 c -0.629,-1.249 -0.379,-3.121 0.553,-4.161 l 4.122,-4.6 c 0.933,-1.042 0.962,-2.77 0.066,-3.842 l -8.813,-8.813 c -1.073,-0.897 -2.803,-0.867 -3.845,0.065 l -4.598,4.122 c -1.039,0.934 -2.915,1.182 -4.161,0.551 l -5.521,-2.279 c -1.324,-0.442 -2.472,-1.945 -2.549,-3.34 l -0.337,-6.17 c -0.077,-1.396 -1.272,-2.691 -2.659,-2.878 0,0 -3.252,-0.44 -6.248,-0.44 -2.991,0 -6.243,0.44 -6.243,0.44 -1.386,0.188 -2.582,1.483 -2.658,2.878 l -0.338,6.17 c -0.076,1.396 -1.224,2.898 -2.551,3.34 l -5.517,2.279 c -1.249,0.631 -3.122,0.382 -4.161,-0.551 l -4.601,-4.122 c -1.042,-0.932 -2.769,-0.962 -3.842,-0.065 l -8.813,8.813 c -0.897,1.073 -0.867,2.801 0.066,3.842 l 4.122,4.6 c 0.933,1.041 1.182,2.913 0.551,4.161 l -2.279,5.518 c -0.442,1.326 -1.946,2.474 -3.34,2.55 l -6.17,0.337 c -1.396,0.077 -2.691,1.272 -2.879,2.659 0,0 -0.439,3.253 -0.439,6.243 0,2.99 0.44,6.24 0.44,6.24 0.188,1.389 1.483,2.582 2.879,2.659 l 6.169,0.339 c 1.396,0.075 2.898,1.225 3.341,2.549 l 2.278,5.517 c 0.631,1.248 0.381,3.122 -0.551,4.163 l -4.122,4.598 c -0.933,1.042 -0.963,2.771 -0.066,3.845 l 8.814,8.813 c 1.073,0.896 2.801,0.866 3.842,-0.066 l 4.6,-4.122 c 1.041,-0.932 2.913,-1.182 4.161,-0.553 l 5.517,2.28 c 1.327,0.441 2.475,1.946 2.55,3.343 l 0.338,6.168 c 0.076,1.395 1.272,2.692 2.658,2.88 0,0 3.252,0.439 6.244,0.439 2.996,0 6.25,-0.439 6.25,-0.439 1.385,-0.188 2.58,-1.485 2.657,-2.88 l 0.337,-6.168 c 0.077,-1.396 1.225,-2.901 2.551,-3.343 l 5.517,-2.28 c 1.248,-0.629 3.122,-0.379 4.163,0.553 l 4.598,4.122 c 1.042,0.933 2.771,0.964 3.843,0.067 l 8.815,-8.814 c 0.896,-1.073 0.866,-2.803 -0.066,-3.845 l -4.122,-4.598 c -0.932,-1.041 -1.182,-2.915 -0.553,-4.163 l 2.28,-5.517 c 0.441,-1.324 1.946,-2.474 3.341,-2.549 l 6.172,-0.339 c 1.395,-0.077 2.692,-1.271 2.876,-2.659 0,0 0.441,-3.25 0.441,-6.24 0,-2.99 -0.441,-6.243 -0.441,-6.243 z m -48.658,18.709 c -6.886,0 -12.468,-5.585 -12.468,-12.467 0,-6.885 5.582,-12.467 12.468,-12.467 6.89,0 12.475,5.582 12.475,12.467 -10e-4,6.882 -5.586,12.467 -12.475,12.467 z" id="path27812" style="fill:#4d4d4d;fill-opacity:1;stroke:none" />
    </g>
    <path style="fill:#464646;fill-opacity:1;stroke:none;stroke-width:0.264583" d="m 61.912499,39.687506 c -1.753504,0 -3.175,1.421495 -3.175,3.175 0,1.753504 1.421496,3.175 3.175,3.175 1.753505,0 3.175,-1.421496 3.175,-3.175 0,-1.753505 -1.421495,-3.175 -3.175,-3.175 z m 0,1.322916 1.852084,1.852084 h -1.322917 v 1.5875 h -1.058333 v -1.5875 h -1.322917 z" id="import" inkscape:connector-curvature="0" sodipodi:nodetypes="ssssscccccccc" class="sprite" />
    <g id="set-zoom" class="sprite" transform="matrix(0.26458333,0,0,0.26458333,-0.52916667,-227.10832)">
      <polygon points="17.702,71.042 9.297,62.644 37.37,62.644 37.37,90.703 28.965,82.305 11.27,100 0,88.737 " id="polygon3044" transform="matrix(0.24,0,0,0.24,8,900.36218)" style="fill:#4d4d4d;fill-opacity:1" />
      <polygon points="100,11.263 88.743,0 71.042,17.708 62.644,9.31 62.644,37.357 90.71,37.37 82.298,28.958 " id="polygon3048" transform="matrix(0.24,0,0,0.24,8,900.36218)" style="fill:#4d4d4d;fill-opacity:1" />
      <path inkscape:connector-curvature="0" d="m 20,909.43106 c -1.618801,0 -2.93112,1.31256 -2.93112,2.93112 0,1.62192 1.31256,2.93448 2.93112,2.93448 1.6188,0 2.9328,-1.31256 2.9328,-2.93448 0,-1.6188 -1.314,-2.93112 -2.9328,-2.93112 z" id="path3052" style="fill:#4d4d4d;fill-opacity:1" />
    </g>
    <path d="m 60.085221,50.800004 c -0.890121,-0.0021 -1.610321,0.711677 -1.612305,1.5875 0.002,0.877761 0.722184,1.586074 1.612305,1.5875 0.593513,-8.73e-4 1.110529,-0.321123 1.389062,-0.79375 h 0.65319 l 0.520899,-0.504362 0.396875,0.380339 0.380338,-0.37207 0.388607,0.380338 0.396875,-0.380338 0.388607,0.380338 0.677994,-0.65319 c 0.09761,-0.09927 0.100016,-0.174188 0,-0.272852 l -0.553971,-0.545703 h -3.241146 c -0.277124,-0.47713 -0.799763,-0.794983 -1.39733,-0.79375 z m -0.7028,1.157552 c 0.233962,-0.0011 0.419905,0.187463 0.42168,0.42168 -0.0017,0.230958 -0.187613,0.419542 -0.42168,0.42168 -0.237929,-0.0024 -0.43214,-0.190722 -0.429948,-0.42168 -0.0022,-0.234217 0.192019,-0.422799 0.429948,-0.42168 z" id="permissions" style="fill:#4d4d4d;fill-opacity:1;stroke-width:0.264583" class="sprite" />
    <polygon points="87.5,87.5 87.5,50 100,50 50,0 0,50 12.5,50 12.5,87.5 43.75,87.5 43.75,62.5 56.25,62.5 56.25,87.5 " id="home" transform="matrix(0.0635,0,0,0.0635,30.162499,20.902083)" style="fill:#4d4d4d;fill-opacity:1" class="sprite" />
    <path inkscape:connector-curvature="0" d="m 7.937502,33.337505 c 0,-0.119238 -0.0078,-0.236713 -0.02082,-0.352777 h -0.356658 c -0.159103,-1.275998 -1.168753,-2.285648 -2.44475,-2.445102 v -0.356307 c -0.116064,-0.01304 -0.233539,-0.02082 -0.352778,-0.02082 -0.119239,0 -0.236714,0.0078 -0.352778,0.02082 v 0.356659 c -1.275997,0.159102 -2.285647,1.168752 -2.445103,2.44475 h -0.356305 c -0.01305,0.116064 -0.02081,0.233539 -0.02081,0.352777 0,0.119239 0.0078,0.236714 0.02081,0.352779 h 0.356658 c 0.159103,1.275996 1.168753,2.285659 2.44475,2.445123 v 0.356658 c 0.116064,0.0127 0.233539,0.02037 0.352778,0.02037 0.119239,0 0.236714,-0.0077 0.352778,-0.0209 v -0.356658 c 1.275644,-0.159438 2.285647,-1.168757 2.445102,-2.444753 h 0.356659 c 0.0127,-0.115712 0.02046,-0.233187 0.02046,-0.352779 z m -2.822223,2.084929 v -0.32104 c 0,-0.195085 -0.158044,-0.352777 -0.352777,-0.352777 -0.194734,0 -0.352778,0.157692 -0.352778,0.352777 v 0.32104 c -0.885472,-0.148883 -1.582914,-0.845973 -1.731786,-1.731798 l 0.320675,-2.65e-4 c 0.195086,0 0.352778,-0.158046 0.352778,-0.352779 0,-0.194733 -0.157692,-0.352777 -0.352778,-0.352777 h -0.321028 c 0.149225,-0.885473 0.846667,-1.582915 1.732139,-1.73214 v 0.32103 c 0,0.194733 0.158044,0.352777 0.352778,0.352777 0.194733,0 0.352777,-0.158044 0.352777,-0.352777 v -0.32103 c 0.885825,0.148873 1.583267,0.846315 1.732139,1.73214 h -0.321028 c -0.195086,0 -0.352777,0.158044 -0.352777,0.352777 0,0.194733 0.157691,0.352779 0.352777,0.352779 l 0.321028,2.65e-4 c -0.149225,0.885825 -0.846314,1.582915 -1.732139,1.731798 z" id="geolocation" style="fill:#4d4d4d;fill-opacity:1;stroke-width:0.264583" class="sprite" />
    <g id="share" class="sprite" transform="matrix(0.26458333,0,0,0.26458333,-21.695832,-210.17502)">
      <circle id="path4309" style="fill:none;stroke:#464646;stroke-width:2;stroke-miterlimit:4;stroke-dasharray:none;stroke-opacity:1" cx="100" cy="992.3623" r="11" />
      <circle transform="rotate(-111.82202)" id="path4819" style="fill:#464646;fill-opacity:1;stroke:none;stroke-width:4.28879" cx="-963.88702" cy="-276.03735" r="2.5" />
      <circle transform="rotate(-111.82202)" id="path4819-2" style="fill:#464646;fill-opacity:1;stroke:none;stroke-width:4.28879" cx="-956.38037" cy="-281.15619" r="2.5" />
      <circle transform="rotate(-111.82202)" id="path4819-0" style="fill:#464646;fill-opacity:1;stroke:none;stroke-width:4.28879" cx="-954.66473" cy="-272.05554" r="2.5" />
      <path sodipodi:nodetypes="ccc" inkscape:connector-curvature="0" id="path4850" d="m 102.3863,987.47517 -8.019138,4.91992 8.139348,5.3224" style="fill:none;stroke:#464646;stroke-width:2;stroke-linecap:butt;stroke-linejoin:miter;stroke-miterlimit:4;stroke-dasharray:none;stroke-opacity:1" />
    </g>
    <path inkscape:connector-curvature="0" id="search" d="m 17.462499,54.717775 -1.70307,-1.703546 c 0.229227,-0.37814 0.36356,-0.821299 0.36356,-1.296006 0,-1.384684 -1.12056,-2.505962 -2.505245,-2.50644 -1.383729,5.29e-4 -2.505245,1.121756 -2.505245,2.506202 0,1.38349 1.121755,2.504776 2.505962,2.504776 0.474947,0 0.917387,-0.134337 1.295528,-0.363564 l 1.704026,1.704027 z m -5.39413,-2.99979 c 0.0014,-0.856197 0.693896,-1.54866 1.549853,-1.550094 0.855718,0.0019 1.548419,0.693897 1.549853,1.550094 -0.0017,0.855477 -0.694135,1.548423 -1.549853,1.549619 -0.856196,0 -1.548658,-0.694142 -1.549853,-1.549619 z" style="fill:#4d4d4d;fill-opacity:1;stroke-width:0.264583" class="sprite" />
    <g id="openstreetmap" transform="translate(-3.7041668,-3.7041668)">
      <g inkscape:export-ydpi="28.799999" inkscape:export-xdpi="28.799999" inkscape:export-filename="/home/ybon/Work/osmtouch64.png" id="g4200" transform="matrix(0.04079979,0,0,0.04157104,32.959036,32.884868)" style="stroke-width:0.99068">
        <path style="fill:#4d4d4d;fill-opacity:1;stroke:none;stroke-width:0.99068" d="m 128.96875,25.03125 c -12.52235,-0.0027 -25.04602,4.645848 -34.59375,13.9375 -17.12646,16.66884 -17.71958,44.2522 -4.125,62.84375 l -13.21875,12.4375 c 0.14747,0.11709 9,8.5625 9,8.5625 l 12.5,-12.25 c 21.41449,14.9813 47.90478,12.41882 65.03125,-4.25 19.09544,-18.58519 19.09526,-48.75856 0,-67.34375 -9.54772,-9.292593 -22.0714,-13.93479 -34.59375,-13.9375 z m 0,7.9375 c 10.43487,0.0027 20.85607,3.880217 28.8125,11.625 15.91286,15.48761 15.94433,40.63733 0.0312,56.125 -15.91287,15.48766 -41.77464,15.48761 -57.6875,0 -15.912892,-15.48767 -15.912892,-40.63734 0,-56.125 7.95643,-7.743803 18.40888,-11.627705 28.84375,-11.625 z" id="path4189" inkscape:connector-curvature="0" />
        <path style="fill:#4d4d4d;fill-opacity:1;stroke:none;stroke-width:0.99068" d="m 63.879368,116.05569 -39.21875,37.9375 c -3.223956,3.12021 -3.215175,8.18323 0,11.3125 l 8.96875,8.71875 c 3.215174,3.12926 8.369796,3.12021 11.59375,0 l 39.21875,-37.9375 c 3.22396,-3.12021 3.21518,-8.18324 0,-11.3125 l -8.96875,-8.71875 c -3.48388,-3.074 -8.57545,-2.83371 -11.59375,0 z" id="path4169" inkscape:connector-curvature="0" />
      </g>
      <path inkscape:export-ydpi="28.799999" inkscape:export-xdpi="28.799999" inkscape:export-filename="/home/ybon/Work/osmtouch64.png" d="m 36.286947,38.82145 c -0.457367,0.452579 -0.512559,0.504833 -0.938758,0.934524 l 1.311056,-0.309645 c 0.03951,-0.177773 0.08574,-0.397942 0.09827,-0.449622 -0.206968,-0.007 -0.324977,-0.0729 -0.470564,-0.175257 z m 1.416518,-0.515743 c -0.04859,0.578556 -0.300471,0.62169 -0.777745,0.697632 -0.034,0.152288 -0.05699,0.258181 -0.0969,0.437787 l 1.223994,0.303984 c 0.164208,-0.701576 0.296132,-1.269942 0.293248,-1.273096 -0.0043,-0.0046 -0.327631,-0.08748 -0.642597,-0.166307 z m -0.587772,-0.141586 c -0.0016,0.0027 -0.06999,0.304712 -0.158099,0.698899 0.559065,-0.08996 0.575972,-0.270987 0.592873,-0.594974 -0.229404,-0.05691 -0.432289,-0.106081 -0.434774,-0.103925 z m -0.164475,-0.0092 c -0.135978,0.01159 -0.204073,0.02561 -0.353171,0.06753 0.04792,0.09125 0.07023,0.278832 -0.200036,0.497924 0.141563,0.08791 0.265261,0.122014 0.390009,0.137353 0.114356,-0.532403 0.172961,-0.615354 0.163198,-0.702835 z m -2.677486,-0.0065 -0.237148,0.943143 0.805796,-0.798942 c -0.18084,-0.04602 -0.34599,-0.08797 -0.568648,-0.144201 z m 5.612522,-0.03249 c -0.750179,0.194829 -1.362065,0.355852 -1.364242,0.358548 -0.0019,0.0027 -0.137285,0.574647 -0.303451,1.280914 l 1.337469,-0.33256 z m -2.182789,-0.197471 v 0.211759 c 0.276503,0.0699 0.560065,0.139645 0.618371,0.140292 0,0 -0.03096,-0.126516 -0.06757,-0.283199 -7.93e-4,0 -0.0016,0 -0.0026,0 -0.238721,0.0062 -0.321882,-0.0081 -0.548246,-0.06885 z m -0.679572,-0.315683 -0.0026,0.0027 0.09817,0.38583 c 0.02307,-0.0027 0.214998,0.04675 0.430948,0.10131 2.4e-5,-0.0864 1.64e-4,-0.157114 0.0013,-0.219523 -0.185131,-0.06365 -0.363024,-0.153906 -0.527846,-0.270232 z m -2.866186,-0.12471 0.131326,0.50016 c 0,0 0.363977,0.08961 0.697421,0.171483 l 0.03825,-0.03769 c -0.494559,-0.17868 -0.501422,-0.552676 -0.866997,-0.633955 z m 5.579372,-0.111716 c -0.494358,0.418395 -0.758865,0.525016 -1.314519,0.614464 0.03396,0.138971 0.06369,0.258155 0.07268,0.285814 0.0076,0.02345 0.467328,-0.08354 1.388467,-0.320887 z m -3.207882,-0.254623 c -0.06109,-0.08511 -0.11524,-0.173667 -0.161925,-0.265029 -0.359863,0.0798 -0.952985,0.222488 -0.97027,0.237747 -0.0073,0.0065 0.04546,0.244648 0.118573,0.540437 0.178835,-0.168006 0.384271,-0.137731 0.520491,-0.04456 m 0.507283,0.496144 c 0.125,-0.04259 0.297064,-0.07581 0.406593,-0.08915 -0.01373,-0.100393 -0.0232,-0.163665 -0.06247,-0.267616 m -2.910811,-0.983419 0.131326,0.528737 c 0.662519,0.255998 0.711877,0.768478 1.067168,0.697631 l 0.228224,-0.226046 c -0.07081,-0.298943 -0.153485,-0.613683 -0.173397,-0.633956 -0.0046,-0.0046 -1.253321,-0.366366 -1.253321,-0.366366 z m 2.186615,-1.140587 -0.443699,0.111716 c -0.09333,0.398662 -0.219022,0.89726 -0.294523,1.192563 0.363871,-0.102631 0.462682,-0.124171 0.872095,-0.20785 -0.143711,-0.349112 -0.188886,-0.728445 -0.133873,-1.096429 z m -1.87424,-0.285813 -0.313648,1.249741 c 0.483029,0.139375 0.763559,0.218579 1.252043,0.335148 0.10314,-0.32458 0.219451,-0.683155 0.303448,-1.197766 -0.325758,-0.103251 -0.521049,-0.166792 -1.241843,-0.387123 z m 2.351088,-1.414701 -1.220169,0.30269 c 0.172125,0.761442 0.298183,1.305114 0.305999,1.313364 0.0075,0.0078 0.225253,-0.03952 0.473022,-0.09743 0.116554,-0.470022 0.217924,-0.632905 0.563546,-0.989889 -0.03709,-0.162128 -0.07823,-0.339596 -0.122398,-0.528737 z m 0.163197,-0.01698 c 0.05038,0.214994 0.05503,0.230495 0.09945,0.419609 0.140443,-0.115059 0.293208,-0.208632 0.452622,-0.281905 z m -2.852158,0 0.318746,1.249742 c 0.700001,0.21006 1.258697,0.375235 1.262245,0.371542 0.0038,-0.004 -0.123335,-0.586051 -0.283048,-1.309482 z m 5.60487,-0.01159 -0.493422,0.122095 c 0.227135,0.09573 0.440336,0.233245 0.628571,0.411818 z m -2.717445,2.334255 c 0.109487,0.68124 0.842335,1.193371 1.606491,1.108532 0.285036,-0.686201 0.484585,-0.652934 0.594535,-1.340268 0.0044,-0.611014 -0.784114,-0.234107 -1.142519,-0.214697 -0.615619,-0.01995 -0.584985,-0.758423 -0.651779,-0.867659 -0.190072,0.142368 -0.521817,0.587372 -0.406728,1.314092 z m 0.702955,-1.549601 c 0.200636,0.645656 0.243692,0.866311 0.883571,0.613171 0.481322,-0.142179 0.864986,0.05125 0.927298,0.283279 0.102087,0.345959 -0.06402,0.852913 -0.5091,1.641961 0.697153,-0.379441 0.91768,-1.209169 0.667258,-1.845956 -0.341146,-0.72645 -1.135436,-1.087828 -1.969027,-0.692455 z" style="fill:#4d4d4d;fill-opacity:1;stroke:none;stroke-width:0.264583" id="path5801" inkscape:connector-curvature="0" />
    </g>
    <g id="delete-marker" transform="matrix(0.26458333,0,0,0.26458333,23.529017,-228.26118)" class="sprite">
      <path id="path3378-6" d="m 178.57143,979.21934 c -3.0625,0 -6.44624,2.06611 -7,6.375 -0.32545,2.53237 1.75,7.6676 7,13.625 3.4166,-3.877 5.31568,-7.3755 6.25,-10.0625 -1.31416,-0.1622 -2.497,-0.7235 -3.40625,-1.5938 -0.63462,0.8653 -1.6677,1.4375 -2.84375,1.4375 -1.933,0 -3.5,-1.5261 -3.5,-3.4062 0,-1.8801 1.567,-3.4063 3.5,-3.4063 0.36776,0 0.72951,0.085 1.0625,0.1875 0.14352,-1.0312 0.55799,-1.956 1.15625,-2.75 -0.72276,-0.259 -1.46314,-0.4062 -2.21875,-0.4062 z" style="fill:#4d4d4d;fill-opacity:1;stroke:none" inkscape:connector-curvature="0" sodipodi:nodetypes="sscccsssccs" />
      <path inkscape:connector-curvature="0" id="path6764" d="m 185.57143,978.21934 c -2.76142,0 -5,2.2386 -5,5 0,2.7615 2.23858,5 5,5 2.76142,0 5,-2.2385 5,-5 0,-2.7614 -2.23858,-5 -5,-5 z m -1.81818,2.2727 1.81818,1.8182 1.81818,-1.8182 0.90909,0.9091 -1.81818,1.8182 1.81818,1.8182 -0.90909,0.9091 -1.81818,-1.8182 -1.81818,1.8182 -0.90909,-0.9091 1.81818,-1.8182 -1.81818,-1.8182 z" style="fill:#4d4d4d;fill-opacity:1;fill-rule:nonzero;stroke:none" />
    </g>
    <g id="multiline" class="sprite" transform="matrix(0.26458333,0,0,0.26458333,55.562499,-201.97278)">
      <path sodipodi:nodetypes="ccccccccccccccccccccccccccccccccccccccc" id="rect4058-9" d="m 51,1020.3622 v 0.5 3 0.5 h 0.5 3 0.5 v -0.5 -0.3438 l 10,4 v 1.3438 0.4375 l 1.09375,0.062 h 2.40625 0.5 v -0.5 -3 -0.5 h -0.5 -3 -0.5 v 0.5 0.5625 l -10,-4 v -1.5625 -0.5 h -0.5 -3 z m 1,1 h 2 v 2 h -2 z m 14,5 h 2 v 2 h -2 z" style="color:#000000;font-style:normal;font-variant:normal;font-weight:normal;font-stretch:normal;font-size:medium;line-height:normal;font-family:Sans;-inkscape-font-specification:Sans;text-indent:0;text-align:start;text-decoration:none;text-decoration-line:none;letter-spacing:normal;word-spacing:normal;text-transform:none;writing-mode:lr-tb;direction:ltr;baseline-shift:baseline;text-anchor:start;display:inline;overflow:visible;visibility:visible;fill:#4d4d4d;fill-opacity:1;stroke:none;stroke-width:1;marker:none;enable-background:accumulate" inkscape:connector-curvature="0" />
      <path sodipodi:nodetypes="ccccccccccccccccccccccccccccccccccccc" id="rect4058-9-5" d="m 55.09375,1030.5184 v 1.3438 0.4375 l 7.09375,11.0625 h 2.40625 0.5 v 0.5 3 0.5 h -0.5 -3 -0.5 v -0.5 -3 -0.375 l -7.09375,-11.125 h -2.40625 -0.5 v -0.5 -3 -0.5 h 0.5 3 0.5 v 0.5 0.5625 z m -1,-1.1562 h -2 v 2 h 2 z m 10,15 h -2 v 2 h 2 z" style="color:#000000;font-style:normal;font-variant:normal;font-weight:normal;font-stretch:normal;font-size:medium;line-height:normal;font-family:Sans;-inkscape-font-specification:Sans;text-indent:0;text-align:start;text-decoration:none;text-decoration-line:none;letter-spacing:normal;word-spacing:normal;text-transform:none;writing-mode:lr-tb;direction:ltr;baseline-shift:baseline;text-anchor:start;display:inline;overflow:visible;visibility:visible;fill:#4d4d4d;fill-opacity:1;stroke:none;stroke-width:1;marker:none;enable-background:accumulate" inkscape:connector-curvature="0" />
    </g>
    <g id="geolocation-active" class="sprite" transform="matrix(0.26458333,0,0,0.26458333,-2.6458292,-230.2833)">
      <path inkscape:connector-curvature="0" d="m 112.00002,1032.3625 c 0,-0.4507 -0.0293,-0.8947 -0.0787,-1.3334 h -1.348 c -0.60133,-4.8226 -4.41733,-8.6387 -9.24,-9.2413 v -1.3467 c -0.43867,-0.049 -0.88267,-0.079 -1.333332,-0.079 -0.450667,0 -0.894667,0.029 -1.333333,0.079 v 1.348 c -4.822667,0.6013 -8.638667,4.4174 -9.241334,9.24 h -1.346667 c -0.04933,0.4387 -0.07867,0.8827 -0.07867,1.3334 0,0.4506 0.02933,0.8946 0.07867,1.3333 h 1.348001 c 0.601333,4.8227 4.417333,8.6387 9.24,9.2414 v 1.348 c 0.438666,0.048 0.882666,0.077 1.333333,0.077 0.450662,0 0.894662,-0.029 1.333332,-0.079 v -1.348 c 4.82134,-0.6026 8.63867,-4.4173 9.24134,-9.24 h 1.348 c 0.048,-0.4373 0.0773,-0.8813 0.0773,-1.3333 z m -10.66667,7.88 v -1.2134 c 0,-0.7373 -0.59733,-1.3333 -1.33333,-1.3333 -0.735999,0 -1.333332,0.596 -1.333332,1.3333 v 1.2134 c -3.346667,-0.5627 -5.982667,-3.1974 -6.545334,-6.5454 h 1.212 c 0.737334,0 1.333334,-0.5973 1.333334,-1.3333 0,-0.736 -0.596,-1.3333 -1.333334,-1.3333 h -1.213333 c 0.564,-3.3467 3.2,-5.9827 6.546667,-6.5467 v 1.2133 c 0,0.736 0.597333,1.3334 1.333332,1.3334 0.736,0 1.33333,-0.5974 1.33333,-1.3334 v -1.2133 c 3.34801,0.5627 5.98401,3.1987 6.54667,6.5467 h -1.21333 c -0.73733,0 -1.33333,0.5973 -1.33333,1.3333 0,0.736 0.596,1.3333 1.33333,1.3333 h 1.21333 c -0.564,3.348 -3.19866,5.9827 -6.54667,6.5454 z" id="path4611-6" style="fill:#4d4d4d;fill-opacity:1" />
      <circle r="2.5" cy="-290.92014" cx="-995.55865" style="fill:#464646;fill-opacity:1;stroke:none;stroke-width:4.28879" id="path4819-7" transform="rotate(-111.82202)" />
    </g>
    <path style="fill:#464646;fill-opacity:1;stroke:none;stroke-width:1.84551;stroke-linecap:square;stroke-linejoin:round;stroke-miterlimit:4;stroke-dasharray:none;stroke-dashoffset:0;stroke-opacity:1" inkscape:transform-center-x="-0.0017170804" inkscape:transform-center-y="-1.1593678" d="m 2.9621305,74.346566 0.577355,-2.184903 -1.687401,-1.349931 h 2.154994 l 0.756436,-2.28465 0.754501,2.284227 h 2.154902 l -1.688682,1.351121 0.575368,2.185485 -1.798166,-1.252432 z" id="star" inkscape:connector-curvature="0" sodipodi:nodetypes="ccccccccccc" class="sprite" />
    <path style="fill:none;fill-opacity:1;stroke:#464646;stroke-width:0.264583;stroke-linecap:square;stroke-linejoin:round;stroke-miterlimit:4;stroke-dasharray:none;stroke-dashoffset:0;stroke-opacity:1" inkscape:transform-center-x="-0.0017170804" inkscape:transform-center-y="-1.1593678" d="m 12.487129,74.346566 0.577355,-2.184903 -1.687401,-1.349931 h 2.154994 l 0.756436,-2.28465 0.754502,2.284227 h 2.154901 l -1.688682,1.351121 0.575368,2.185485 -1.798169,-1.252432 z" id="starred" inkscape:connector-curvature="0" sodipodi:nodetypes="ccccccccccc" class="sprite" />
    <path d="m 45.33157,52.032514 0.367177,0.21791 c 0.07232,0.04294 0.09577,0.135732 0.0524,0.207275 -0.01292,0.02122 -0.03092,0.03903 -0.0524,0.0518 l -2.836254,1.6832 -2.836235,-1.6832 c -0.07233,-0.04294 -0.09579,-0.135704 -0.05238,-0.207274 0.0129,-0.02125 0.03089,-0.03905 0.05238,-0.05181 l 0.367179,-0.21791 2.469056,1.465315 z m 0,1.419992 0.367177,0.217911 c 0.07232,0.04294 0.09577,0.135731 0.0524,0.207274 -0.01292,0.02125 -0.03092,0.03903 -0.0524,0.05181 l -2.679097,1.58996 c -0.09674,0.05739 -0.217576,0.05739 -0.314315,0 l -2.679077,-1.58996 c -0.07233,-0.04292 -0.09579,-0.135705 -0.05238,-0.207249 0.0129,-0.02127 0.03089,-0.03908 0.05238,-0.05183 l 0.367179,-0.217911 2.469056,1.465315 z m -2.31192,-4.196946 2.679097,1.589967 c 0.07232,0.04292 0.09577,0.135715 0.0524,0.207256 -0.01292,0.02126 -0.03092,0.03906 -0.0524,0.05182 l -2.836254,1.683221 -2.836235,-1.683221 c -0.07233,-0.04292 -0.09579,-0.135716 -0.05238,-0.207256 0.0129,-0.02126 0.03089,-0.03906 0.05238,-0.05182 l 2.679077,-1.589967 c 0.09674,-0.05741 0.217576,-0.05741 0.314315,0 z" fill="#4d4d4d" id="datalayers" style="stroke-width:0.264583" />
    <g id="tilelayers" transform="translate(19.049999,56.885416)">
      <path d="m 26.772659,3.4276506 h -4.243945 c -0.07035,0 -0.137814,0.027945 -0.187558,0.077687 -0.04974,0.049744 -0.07769,0.1172104 -0.07769,0.1875578 v 4.2439431 c 0,0.070353 0.02794,0.1378215 0.07769,0.1875631 0.04974,0.049742 0.11721,0.077682 0.187558,0.077682 h 4.243945 c 0.07035,0 0.137822,-0.02794 0.187563,-0.077682 0.04974,-0.049742 0.07768,-0.1172104 0.07768,-0.1875631 v -4.2439431 c 0,-0.070347 -0.02794,-0.1378135 -0.07768,-0.1875578 -0.04974,-0.049742 -0.11721,-0.077687 -0.187563,-0.077687 z m -0.265245,4.1590648 h -3.713453 v -3.546348 h 3.713453 z" fill="#464646" id="path2349" style="stroke-width:0.264583" />
      <g mask="url(#mask0_181_11898)" id="g2376" transform="matrix(0.26458333,0,0,0.26458333,20.637501,1.8520833)">
        <path d="m 16.0401,2.3158 h -14.0351 v 14.0351 h 14.0351 z" fill="#d5ecbe" id="path2354" />
        <path d="m 2.37597,3.42857 c 0.26774,-0.31238 0.61516,-0.54633 1.00529,-0.67696 0.39014,-0.13063 0.80838,-0.15306 1.21025,-0.06489 0.32391,0.15649 0.58536,0.41794 0.74185,0.74185 0.37093,0.72181 0,1.26316 0,2.21554 -0.0802,1.72431 1.00251,2.08522 0.73183,3.68923 -0.0802,0.57142 -0.34085,1.44356 -0.73183,1.47366 -0.62155,0.0602 -0.94235,-2.00499 -2.21554,-2.21552 -0.39097,-0.06015 -0.47117,0.11028 -0.74185,0 -1.05263,-0.401 -1.523811,-3.65915 0,-5.16291 z" fill="#e9daab" id="path2356" />
        <path d="m 7.1779,16.3509 c -1.75438,-1.7243 -2.16541,-1.7544 -2.16541,-2.2156 -0.1604,-1.0025 1.74436,-1.2932 2.21554,-2.9573 0.33083,-1.173 -0.47118,-1.56396 -0.74186,-3.68927 -0.1604,-1.25313 -0.401,-3.21805 0.74186,-4.43108 1.14286,-1.21303 3.13787,-1.17293 4.43107,-0.74185 1.0647,0.38986 1.9867,1.09245 2.6451,2.01558 0.6584,0.92314 1.0223,2.02371 1.0441,3.15735 0,1.24311 -0.6817,1.65413 -0.7318,3.68927 0.0605,0.7372 0.0605,1.4782 0,2.2155 -0.1546,1.1225 -0.6763,2.1624 -1.4837,2.9574 -1.5038,1.3433 -3.90978,1.6942 -5.22307,0.7418 -0.15037,-0.1102 -0.07017,-0.0501 -0.73183,-0.7418 z" fill="#bcd8af" id="path2358" />
        <path d="m 14.1956,9.33332 c -0.4303,0.37544 -0.6966,0.90438 -0.7419,1.47368 0,0.1203 0,1.213 0.7419,1.4837 0.2937,0.0714 0.6033,0.036 0.8733,-0.0999 0.27,-0.1359 0.4828,-0.3635 0.6004,-0.6419 0.066,-0.2429 0.066,-0.499 0,-0.7419 -0.1604,-1.38345 0.3007,-2.00501 0,-2.21553 -0.3008,-0.21053 -1.0928,0.35087 -1.4737,0.74185 z" fill="#ebe9d6" id="path2360" />
        <path d="m 14.1955,15.2381 c 0.2874,0.0123 0.5733,-0.0483 0.831,-0.1763 0.2577,-0.1279 0.4788,-0.3191 0.6427,-0.5555 0.2005,-0.3308 0.4411,-1.0526 0,-1.4837 -0.2062,-0.1739 -0.4672,-0.2693 -0.7369,-0.2693 -0.2696,0 -0.5306,0.0954 -0.7368,0.2693 0,0 -1.4837,0.7418 -1.4837,1.4837 0,0.7418 1.4837,0.7318 1.4837,0.7318 z" fill="#f3ecdd" id="path2362" />
        <path d="m 7.90976,1.57394 c -1.89474,1.32331 -2.26566,2.29574 -2.21554,2.9574 0.0802,1.0025 1.09273,1.37343 1.48371,3.00752 0.19537,0.72559 0.19537,1.48994 0,2.21553 -0.58145,1.85461 -2.51629,1.88471 -3.69925,3.68921 -0.6679,1.11 -0.92678,2.4186 -0.73183,3.6993" stroke="#dfa170" stroke-width="0.75" stroke-miterlimit="10" id="path2364" style="fill:none" />
        <path d="m 5.33325,1.94485 c 1.5732,1.61744 2.60339,3.68483 2.94737,5.91479 0.13097,0.73271 0.13097,1.48283 0,2.21556 -0.33083,1.7042 -1.30326,2.3559 -2.21554,4.4311 -0.31515,0.713 -0.56025,1.455 -0.73183,2.2155" stroke="#e0859b" stroke-width="0.25" stroke-miterlimit="10" id="path2366" style="fill:none" />
        <path d="m 10.4963,14.5063 c -1.84462,-1.0025 -1.7143,-5.53387 0,-6.64665 0.5915,-0.38096 1.1328,-0.21053 1.4837,-0.74186 0.5213,-0.802 -0.411,-1.69423 0,-2.95739 0.2306,-0.72181 0.8922,-1.52381 1.4737,-1.47369 1.0025,0.0802 2.1253,2.5564 1.4737,4.43108 -0.5314,1.56391 -1.9148,1.51379 -2.2156,3.00751 -0.3408,1.6441 1.2732,2.6266 0.7419,3.6892 -0.3395,0.4362 -0.8182,0.7428 -1.3564,0.8687 -0.5382,0.1259 -1.1033,0.0634 -1.601,-0.1769 z" fill="#ade3ea" id="path2368" />
        <path d="m 7.90971,2.31578 c -0.39098,0.91228 0.21052,2.14537 0.74185,2.21554 0.53133,0.07018 0.66166,-0.65163 1.48374,-0.74185 0.401,0 0.5213,0.1203 0.7318,0 0.5013,-0.27068 0.6115,-1.62406 0,-2.21554 -0.2397,-0.1568 -0.5092,-0.26229 -0.7916,-0.30984 -0.28244,-0.04755 -0.57165,-0.03612 -0.84944,0.03356 -0.2778,0.06969 -0.53816,0.19612 -0.76471,0.37134 -0.22654,0.17522 -0.41436,0.39544 -0.55164,0.64679 z" fill="#748ec2" id="path2370" />
        <path d="m 10.1354,5.27317 c -0.31082,0.30075 -0.88225,0.85213 -0.7419,1.47369 0.09023,0.401 0.45113,0.78195 0.7419,0.74185 0.2907,-0.0401 0.2907,-0.57143 0.7318,-0.74185 0.4411,-0.17043 0.5113,0.11027 0.7418,0 0.5314,-0.24061 0.6116,-1.92482 0,-2.21554 -0.6115,-0.29073 -1.2431,0.4812 -1.4736,0.74185 z" fill="#f3ecdd" id="path2372" />
        <path d="m 3.47861,3.78948 c 0.27068,-0.1604 1.31328,0.54135 1.48371,1.48371 0.17043,0.94236 -0.82205,2.31579 -1.48371,2.21554 -0.28201,-0.11246 -0.51262,-0.32501 -0.64766,-0.59693 -0.13503,-0.27192 -0.165,-0.58411 -0.08417,-0.87676 0.27068,-0.55137 1.45364,-0.4411 1.47369,-0.73183 0.02005,-0.29072 -0.51128,-0.27067 -0.74186,-0.75188 -0.1203,-0.27067 -0.14035,-0.65162 0,-0.74185 z" fill="#cfd7c8" id="path2374" />
      </g>
      <path d="m 25.146689,1.8520833 h -4.243941 c -0.07035,0 -0.137815,0.027946 -0.187558,0.077689 -0.04974,0.049744 -0.07769,0.1172099 -0.07769,0.1875586 v 4.2439405 c 0,0.070353 0.02795,0.1378215 0.07769,0.1875632 0.04974,0.049742 0.11721,0.077682 0.187558,0.077682 h 4.243941 c 0.07035,0 0.137821,-0.02794 0.187563,-0.077682 0.04974,-0.049742 0.07768,-0.1172105 0.07768,-0.1875632 v -4.2439405 c 0,-0.070349 -0.02794,-0.1378151 -0.07768,-0.1875586 -0.04974,-0.049743 -0.11721,-0.077689 -0.187563,-0.077689 z m -0.265245,4.1590648 h -3.713451 v -3.5463453 h 3.713451 z" fill="#464646" id="path2378" style="stroke-width:0.264583" />
    </g>
    <g id="info" transform="matrix(0.33072916,0,0,0.33072916,7.1437494,-265.62915)" style="fill:#4d4d4d;fill-opacity:1;stroke-width:0.8">
      <path id="path3762" style="fill:#4d4d4d;fill-opacity:1;stroke:none;stroke-width:0.8" d="m 108,838.36217 a 8,8 0 0 0 -8,8 8,8 0 0 0 8,8 8,8 0 0 0 8,-8 8,8 0 0 0 -8,-8 z m 0,2.5 a 1.5,1.5 0 0 1 1.5,1.5 1.5,1.5 0 0 1 -1.5,1.5 1.5,1.5 0 0 1 -1.5,-1.5 1.5,1.5 0 0 1 1.5,-1.5 z m -1,4.5 h 2 v 6 h -2 z" />
    </g>
    <path d="m 5.6444435,59.43432 v 1.034991 h 1.0541546 z m 1.1759257,1.612262 h -1.1759257 c -0.3247228,0 -0.5879626,-0.258453 -0.5879626,-0.577271 v -1.154545 h -2.3518514 v 5.195451 h 4.1157397 z m -4.1157397,-2.309089 h 3.0615854 l 1.6421175,1.612259 v 4.160465 c 0,0.318822 -0.2632403,0.577275 -0.5879632,0.577275 h -4.1157397 c -0.3247231,0 -0.5879631,-0.258453 -0.5879631,-0.577275 v -5.195451 c 0,-0.31882 0.26324,-0.577273 0.5879631,-0.577273 z m 1.7638882,3.92135 v -1.323625 h 0.5879632 v 1.323625 l 0.3800861,-0.373177 0.415753,0.408196 -1.0898206,1.070004 -1.0898208,-1.070004 0.4157526,-0.408196 z" fill-rule="evenodd" id="downloadfile" style="fill:#464646;fill-opacity:1;stroke-width:0.192424" />
    <g id="set-zoom-6" class="sprite" transform="translate(37.659368,8.069823)" style="fill:#4d4d4d;fill-opacity:1">
      <polygon points="9.297,62.644 37.37,62.644 37.37,90.703 28.965,82.305 11.27,100 0,88.737 17.702,71.042 " id="polygon3044-7" transform="matrix(0.0635,0,0,0.0635,2.2709793,12.435385)" style="fill:#4d4d4d;fill-opacity:1;stroke:#999999;stroke-width:1.04167;stroke-miterlimit:4;stroke-dasharray:none;stroke-opacity:1" />
      <polygon points="88.743,0 71.042,17.708 62.644,9.31 62.644,37.357 90.71,37.37 82.298,28.958 100,11.263 " id="polygon3048-5" transform="matrix(0.0635,0,0,0.0635,2.2709793,12.435385)" style="fill:#4d4d4d;fill-opacity:1;stroke:#999999;stroke-width:1.04167;stroke-miterlimit:4;stroke-dasharray:none;stroke-opacity:1" />
      <path inkscape:connector-curvature="0" d="m 5.4459792,14.83486 c -0.428308,0 -0.775525,0.347281 -0.775525,0.775525 0,0.429133 0.347281,0.776415 0.775525,0.776415 0.428308,0 0.77597,-0.347282 0.77597,-0.776415 0,-0.428307 -0.347662,-0.775525 -0.77597,-0.775525 z" id="path3052-3" style="fill:#4d4d4d;fill-opacity:1;stroke:#999999;stroke-width:0.0661458;stroke-miterlimit:4;stroke-dasharray:none;stroke-opacity:1" />
    </g>
    <g id="help" transform="matrix(0.35277776,0,0,0.35277776,-7.6749272,-328.17103)" style="stroke-width:0.75">
      <circle transform="matrix(1.0714286,0,0,1.0714286,26.684272,934.10579)" id="path3014" style="fill:none;stroke:#4d4d4d;stroke-width:0.7;stroke-miterlimit:4;stroke-dasharray:none;stroke-opacity:1" cx="8" cy="9" r="7" />
      <g id="text3784" style="font-style:normal;font-weight:normal;font-size:40px;line-height:125%;font-family:Sans;letter-spacing:0px;word-spacing:0px;fill:#4d4d4d;fill-opacity:1;stroke:none;stroke-width:0.75" transform="translate(27.255701,-100.61365)">
        <path inkscape:connector-curvature="0" id="path3789" style="font-weight:bold;font-size:12px;-inkscape-font-specification:'Sans Bold';fill:#4d4d4d;stroke-width:0.75" d="m 9,1046.0464 h -2.3698034 v -0.3223 c 0,-0.3596 0.072207,-0.6775 0.2166302,-0.9539 0.1444174,-0.2807 0.4485749,-0.636 0.9124728,-1.0658 l 0.4201314,-0.3816 c 0.249449,-0.228 0.4310681,-0.4429 0.5448577,-0.6446 0.1181576,-0.2019 0.1772384,-0.4036 0.177243,-0.6053 -4.6e-6,-0.3071 -0.1050376,-0.5462 -0.3150985,-0.7171 -0.2100697,-0.1756 -0.5032861,-0.2632 -0.87965,-0.2632 -0.3544889,0 -0.7374207,0.075 -1.1487968,0.2237 -0.4113804,0.1446 -0.840264,0.3618 -1.2866522,0.6513 v -2.0659 c 0.5295391,-0.184 1.0131273,-0.32 1.4507661,-0.4077 0.437634,-0.088 0.8599531,-0.1317 1.2669587,-0.1317 1.0678292,0 1.8818328,0.2194 2.442012,0.6579 0.560169,0.4341 0.840256,1.0702 0.840263,1.9078 -7e-6,0.4298 -0.08535,0.8159 -0.256017,1.158 -0.170685,0.3377 -0.461713,0.7017 -0.873085,1.092 l -0.4201313,0.375 c -0.297598,0.272 -0.4923463,0.4913 -0.5842451,0.658 -0.091909,0.1622 -0.1378603,0.342 -0.1378556,0.5394 v 0.296 m -2.3698034,0.9739 h 2.3698034 v 2.342 h -2.3698034 v -2.342" sodipodi:nodetypes="ccsccccccsccccsccccccccccccc" />
      </g>
    </g>
    <path id="copy" style="fill:#4d4d4d;stroke-width:0.264582;paint-order:fill markers stroke" d="m 42.218298,69.320832 v 1.288405 h 1.472463 v 1.472465 h 1.288405 v -2.76087 z m -1.472465,1.472463 v 2.760871 h 2.760869 v -2.760871 z" />
    <path d="m 55.033332,70.908067 v 2.646098 c 0,0.146129 -0.118454,0.264583 -0.264584,0.264583 h -2.116666 v -2.910681 z m -2.910417,1.5875 v 1.323181 h -2.116666 c -0.146124,0 -0.264583,-0.118454 -0.264583,-0.264583 v -1.058598 z m 0,-3.439318 v 2.910152 h -2.381249 v -2.645569 c 0,-0.146124 0.118459,-0.264583 0.264583,-0.264583 z m 2.645833,0 c 0.14613,0 0.264584,0.118459 0.264584,0.264583 v 1.058069 h -2.38125 v -1.322652 z" fill="#f6f6f6" id="path1" style="fill:#4d4d4d;fill-opacity:1;stroke-width:0.264583" />
    <path style="color:#000000;font-style:normal;font-variant:normal;font-weight:normal;font-stretch:normal;font-size:medium;line-height:normal;font-family:Sans;-inkscape-font-specification:Sans;text-indent:0;text-align:start;text-decoration:none;text-decoration-line:none;letter-spacing:normal;word-spacing:normal;text-transform:none;writing-mode:lr-tb;direction:ltr;baseline-shift:baseline;text-anchor:start;display:inline;overflow:visible;visibility:visible;fill:#4d4d4d;fill-opacity:1;stroke:#999999;stroke-width:0.0661458;stroke-miterlimit:4;stroke-dasharray:none;stroke-opacity:1;marker:none;enable-background:accumulate" d="m 68.560154,48.980985 v 0.132292 0.79375 0.132292 h 0.132292 0.347266 l -0.42168,3.174999 h -0.454753 -0.132291 v 0.132292 0.79375 0.132292 h 0.132291 0.79375 0.132292 v -0.132292 -0.421693 c 0,0 3.629162,-2.885599 3.629752,-2.885599 h 0.47129 0.132291 v -0.132291 -0.79375 -0.132292 h -0.132291 -0.79375 -0.132292 v 0.132292 0.214974 l -2.645833,-0.421693 v -0.587031 -0.132292 h -0.132292 -0.79375 z m 0.264584,0.264584 h 0.529166 v 0.529166 h -0.529166 z m 3.704166,0.793749 h 0.529167 v 0.529167 h -0.529167 z m -4.233333,3.439584 h 0.529167 v 0.529166 h -0.529167 z" id="rect4058-1-2" inkscape:connector-curvature="0" sodipodi:nodetypes="ccccccccccccccccccccccccccccccccccccccccccccccccc" />
    <path style="color:#000000;font-style:normal;font-variant:normal;font-weight:normal;font-stretch:normal;font-size:medium;line-height:normal;font-family:Sans;-inkscape-font-specification:Sans;text-indent:0;text-align:start;text-decoration:none;text-decoration-line:none;letter-spacing:normal;word-spacing:normal;text-transform:none;writing-mode:lr-tb;direction:ltr;baseline-shift:baseline;text-anchor:start;display:inline;overflow:visible;visibility:visible;fill:#4d4d4d;fill-opacity:1;stroke:#999999;stroke-width:0.0661458;stroke-miterlimit:4;stroke-dasharray:none;stroke-opacity:1;marker:none;enable-background:accumulate" d="m 70.627212,54.27265 h -0.926042 -0.132292 v 0.132292 0.79375 0.132291 h 0.132292 0.79375 0.132292 v -0.132291 -0.421667 l 2.645833,0.347266 v 0.338984 0.132292 h 0.132292 0.793749 0.132292 v -0.132292 -0.79375 -0.132291 h -0.132292 -0.305924 l -0.644922,-2.116667 h 0.471289 0.132292 v -0.132292 -0.79375 -0.132291 h -0.132292 -0.79375 -0.181901 v 0.79375 c 0,0 -2.067057,2.116666 -2.116666,2.116666 z m 2.430859,-2.645833 h 0.529167 v 0.529167 h -0.529167 z m 0.479557,3.175 h 0.529167 v 0.529167 h -0.529167 z m -3.704166,-0.264584 h 0.529166 v 0.529167 h -0.529166 z" id="rect4058-1-2-0" inkscape:connector-curvature="0" sodipodi:nodetypes="cccccccccccccccccccccccccccccccccccccccccccccccc" />
    <g id="g2">
      <path inkscape:connector-curvature="0" d="m 81.765122,58.7375 v 0.132291 0.79375 0.132292 h 0.132293 0.79375 0.132292 v -0.132292 -0.09095 -0.289389 -0.413411 -0.132292 h -0.132292 -0.79375 z m 0.264584,0.264583 h 0.529166 v 0.529167 h -0.529166 z" id="polyline-7" class="sprite" style="fill:#4d4d4d;fill-opacity:1;stroke-width:0.264583" sodipodi:nodetypes="cccccccccccccccccccc" />
      <path inkscape:connector-curvature="0" d="m 78.188471,64.029167 v 0.132291 0.79375 0.132292 h 0.132293 0.79375 0.132292 v -0.132292 -0.09095 -0.289389 -0.413411 -0.132292 h -0.132292 -0.79375 z m 0.264584,0.264583 h 0.529166 v 0.529167 h -0.529166 z" id="polyline-7-3" class="sprite" style="fill:#4d4d4d;fill-opacity:1;stroke-width:0.264583" sodipodi:nodetypes="cccccccccccccccccccc" />
      <path style="fill:none;fill-rule:evenodd;stroke:#4d4d4d;stroke-width:0.264583px;stroke-linecap:butt;stroke-linejoin:miter;stroke-opacity:1" d="m 79.160176,64.639676 c 0,0 2.793391,0.10937 2.828939,-1.152504 0.03453,-1.225872 -3.089291,-0.487653 -3.261813,-1.701816 -0.211661,-1.489616 3.090237,-2.519479 3.090237,-2.519479" id="path2" sodipodi:nodetypes="cssc" />
    </g>
    <path style="fill:#4d4d4d;fill-opacity:1;fill-rule:evenodd;stroke:none;stroke-width:0.264583px;stroke-linecap:butt;stroke-linejoin:miter;stroke-opacity:1" d="m 78.287826,7.4240516 h 5.31658 l -1.726594,-4.768061 -1.171181,2.5168969 -0.984189,-1.3411192 z" id="path3" sodipodi:nodetypes="cccccc" />
    <g id="g3" transform="translate(-66.670639,-38.015773)">
      <rect style="fill:#4d4d4d;fill-opacity:1;stroke:none;stroke-width:0.0661458;stroke-linecap:round;stroke-linejoin:round;stroke-opacity:0.917647;paint-order:fill markers stroke" id="rect1" width="3.7041667" height="1.5875" x="79.106056" y="68.862335" />
      <rect style="fill:#4d4d4d;fill-opacity:1;stroke:none;stroke-width:0.0661458;stroke-linecap:round;stroke-linejoin:round;stroke-opacity:1;paint-order:fill markers stroke" id="rect2" width="5.8208332" height="2.1166666" x="78.047722" y="70.254738" />
      <rect style="fill:#4d4d4d;fill-opacity:1;stroke:#ffffff;stroke-width:0.264583;stroke-linecap:butt;stroke-linejoin:miter;stroke-dasharray:none;stroke-opacity:1;paint-order:fill markers stroke" id="rect4" width="2.6458333" height="2.1166666" x="79.635223" y="71.727478" />
    </g>
  </g>
</svg>
