<svg xmlns="http://www.w3.org/2000/svg" width="15" height="15"><path d="M2.456 8.613c-.338.598-.955 1.69.137 2.418.343.227.728.384 1.131.462.307.045.323.518-.038.507-.385-.02-2.26-.193-2.561-1.6-.156-.82.02-1.557.504-2.355l.697-1.233-1.306-.743L4.5 4v4l-1.306-.694-.738 1.307zM6.7 2.034c1.155-.628 1.823.43 2.191 1.007l.806 1.263-1.266.808L12 6.986l-.197-4.026-1.264.807-.76-1.189c-.522-.746-.904-1.297-1.835-1.545C6.307.72 5.301 2.619 5.311 2.607c-.164.287.216.54.451.21.258-.32.577-.586.938-.783zm6.594 6.187c-.088-.19-.549-.141-.419.267.131.39.184.8.157 1.21C12.939 11.01 11.684 11 11 11H9.5V9.5l-3.5 2 3.488 2.025L9.493 12H11c.89.015 1.6-.176 2.2-.713 1.2-1.061.094-3.066.094-3.066z"/></svg>