<svg xmlns="http://www.w3.org/2000/svg" baseProfile="tiny" overflow="inherit" version="1.2" viewBox="0 0 50 50"><path d="M6.43 21.55c-.22.45-.37.94-.46 1.47-.04.26-.06.53-.06.79l.19 12.13-4.2 9.02c-.14.27-.25.58-.3.9-.23 1.49.8 2.88 2.3 3.11 1.16.18 2.27-.41 2.8-1.39l4.63-9.86c.1-.23.18-.47.22-.73l.03-.37-.04-7.5 7.11 3.09 1.15 7.33a2.732 2.732 0 0 0 2.26 2.11c1.5.22 2.89-.81 3.12-2.28.04-.25.04-.51.01-.75l-1.4-8.84c-.17-.85-.74-1.59-1.53-1.96l-6.35-2.81L19.96 18l2.01 2.54c.21.23.47.42.77.54l7.65 2.23a2.14 2.14 0 0 0 2.45-1.29 2.14 2.14 0 0 0-1.18-2.8l-.11-.04-6.64-1.95-5-5.98A5.079 5.079 0 0 0 17 9.71c-2.03-.3-3.96.66-4.97 2.3l-5.56 9.57zm21.94 17.38-.48 3.63-13.16 3.19.13 2.25h32.09c1.14 0 2.06-.91 2.06-2.04l-.04-43.07-4.4-1.02-2.53 11.32-4.22 1.77-3.74 10.44 3.56 7.99-1 3.07-8.26 2.48zM19.44 9.15c2.26 0 4.1-1.83 4.1-4.08S21.7.99 19.45.99s-4.1 1.83-4.1 4.08 1.84 4.08 4.1 4.08zm-8.15.64c.31-.55.13-1.27-.43-1.59L8.88 7.05c-.57-.31-1.28-.13-1.61.43l-6.11 10.5c-.31.55-.13 1.26.43 1.59l1.99 1.14c.56.32 1.27.13 1.59-.42l6.11-10.5z"/></svg>