<svg xmlns="http://www.w3.org/2000/svg" viewBox="0 0 15 15"><path d="M8 1v1h1.5l1.41 1.41c.38.38.59.89.59 1.42V11c0 1.1-.9 2-2 2h-4c-1.1 0-2-.9-2-2V4.83c0-.53.21-1.04.59-1.42L5.5 2H7V1H5.5C5.22 1 5 .78 5 .5s.22-.5.5-.5h4c.28 0 .5.22.5.5s-.22.5-.5.5H8ZM6.25 13.5 5.5 15H4l.75-1.5h1.5Zm4 0L11 15H9.5l-.75-1.5h1.5ZM8.5 12h1c.55 0 1-.45 1-1v-1c-1.1 0-2 .9-2 2Zm-2 0c0-1.1-.9-2-2-2v1c0 .55.45 1 1 1h1Zm-2-6.5v3c0 .28.22.5.5.5h5c.28 0 .5-.22.5-.5v-3c0-.28-.22-.5-.5-.5H5c-.28 0-.5.22-.5.5Zm1-2c0 .28.22.5.5.5h3c.28 0 .5-.22.5-.5S9.28 3 9 3H6c-.28 0-.5.22-.5.5Z"/></svg>