<svg id="svg2" width="144" height="144" version="1.1" xmlns="http://www.w3.org/2000/svg" xmlns:cc="http://creativecommons.org/ns#" xmlns:dc="http://purl.org/dc/elements/1.1/" xmlns:rdf="http://www.w3.org/1999/02/22-rdf-syntax-ns#">
 <metadata id="metadata7">
  <rdf:RDF>
   <cc:Work rdf:about="">
    <dc:format>image/svg+xml</dc:format>
    <dc:type rdf:resource="http://purl.org/dc/dcmitype/StillImage"/>
   </cc:Work>
  </rdf:RDF>
 </metadata>
 <g id="layer1" transform="translate(0 -812.36)">
  <text id="text4457" x="5.7867966" y="897.80786" fill="#000000" font-family="sans-serif" letter-spacing="0px" word-spacing="0px" style="line-height:0%" xml:space="preserve"><tspan id="tspan4459" x="5.7867966" y="897.80786" font-family="sans-serif" font-size="40px" style="line-height:1.25"> </tspan></text>
  <g id="g3001" transform="translate(-23.256 -119.39)">
   <path id="path3014" d="m35.256 935.75c-4.4124 0-8.0001 3.5878-8.0001 8.0001 0 4.4124 3.5878 8.0001 8.0001 8.0001s8.0001-3.5878 8.0001-8.0001c0-4.4124-3.5878-8.0001-8.0001-8.0001zm0 1.0003c3.8719 0 6.9999 3.1279 6.9999 6.9999 0 3.8719-3.1279 6.9999-6.9999 6.9999s-6.9999-3.128-6.9999-6.9999c0-3.8719 3.1279-6.9999 6.9999-6.9999z" color="#000000" color-rendering="auto" fill="#f2f2f2" image-rendering="auto" shape-rendering="auto" solid-color="#000000" stroke="#999" stroke-width=".25" style="isolation:auto;mix-blend-mode:normal;text-decoration-color:#000000;text-decoration-line:none;text-decoration-style:solid;text-indent:0;text-transform:none;white-space:normal"/>
   <g id="text3784" transform="translate(27.256 -100.61)" fill="#4d4d4d">
    <path id="path3789" d="m9 1046h-2.3698v-0.3223c0-0.3596 0.072207-0.6775 0.21663-0.9539 0.14442-0.2807 0.44857-0.636 0.91247-1.0658l0.42013-0.3816c0.24945-0.228 0.43107-0.4429 0.54486-0.6446 0.11816-0.2019 0.17724-0.4036 0.17724-0.6053-4.6e-6 -0.3071-0.10504-0.5462-0.3151-0.7171-0.21007-0.1756-0.50329-0.2632-0.87965-0.2632-0.35449 0-0.73742 0.075-1.1488 0.2237-0.41138 0.1446-0.84026 0.3618-1.2867 0.6513v-2.0659c0.52954-0.184 1.0131-0.32 1.4508-0.4077 0.43763-0.088 0.85995-0.1317 1.267-0.1317 1.0678 0 1.8818 0.2194 2.442 0.6579 0.56017 0.4341 0.84026 1.0702 0.84026 1.9078-7e-6 0.4298-0.08535 0.8159-0.25602 1.158-0.17068 0.3377-0.46171 0.7017-0.87308 1.092l-0.42013 0.375c-0.2976 0.272-0.49235 0.4913-0.58425 0.658-0.091909 0.1622-0.13786 0.342-0.13786 0.5394v0.296m-2.3698 0.9739h2.3698v2.342h-2.3698v-2.342" fill="#f2f2f2" stroke="#999" stroke-width=".25"/>
   </g>
  </g>
  <path id="path2990-6" d="m60 843.86c-3 0-5 1.5-8 4.5 3 3 5 4.5 8 4.5 3 0 5-1.5 8-4.5-3-3-5-4.5-8-4.5zm0 2.5c1.1046 0 2 0.8954 2 2s-0.89543 2-2 2c-1.1046 0-2-0.8954-2-2s0.89543-2 2-2z" fill="#f2f2f2" stroke="#999" stroke-width=".25"/>
  <g id="eye-off" transform="translate(75 -195)" fill="#b3b3b3">
   <path id="path2990" transform="translate(0 1034.4)" d="m9 4.5c-3-3.36e-5 -5 1.5-8 4.5 3 3 5 4.5 8 4.5 3-3.3e-5 5-1.5 8-4.5-3-3-5-4.5-8-4.5zm0 2.5c1.1046 0 2 0.89543 2 2 0 1.1046-0.89543 2-2 2-1.1046 0-2-0.89543-2-2 0-1.1046 0.89543-2 2-2z"/>
   <path id="rect3787" d="m2 1047.9 13-10 1 1-13 10z"/>
  </g>
  <path id="table" d="m78 819.36v2h12v-2zm0 3v1h4v-1zm5 0v1h7v-1zm-5 2v1h4v-1zm5 0v1h7v-1zm-5 2v1h4v-1zm5 0v1h7v-1zm-5 2v1h4v-1zm5 0v1h7v-1z" fill="#b3b3b3"/>
  <path id="rect5280" d="m35 843.36v4h-4v2h4v4h2v-4h4v-2h-4v-4z" fill="#f2f2f2"/>
  <path id="path4354" d="m13.518 866.36c-2.4668 0-4.4825 2.0158-4.4825 4.4826 0 0.8297 0.23375 1.5964 0.63035 2.2646l-3.6654 3.6653 1.5875 1.5876 3.6654-3.6654c0.66814 0.3966 1.4348 0.6303 2.2646 0.6303 2.4668 0 4.4825-2.0157 4.4825-4.4824 0-2.4668-2.0157-4.4826-4.4825-4.4826zm0 1.4943c1.6593 0 2.9883 1.329 2.9883 2.9883 0 1.6592-1.3291 2.9883-2.9883 2.9883s-2.9883-1.3291-2.9883-2.9883c0-1.6593 1.3291-2.9883 2.9883-2.9883zm0 1.4941c-0.81635 0-1.4942 0.6779-1.4942 1.4942s0.67781 1.4942 1.4942 1.4942 1.4942-0.6779 1.4942-1.4942-0.67781-1.4942-1.4942-1.4942z" color="#000000" fill="#f2f2f2" stroke="#999" stroke-width=".25" style="text-decoration-line:none;text-indent:0;text-transform:none"/>
  <path id="path4392" d="m37.518 866.36c-2.4668 0-4.4825 2.0157-4.4825 4.4825 0 0.8298 0.23375 1.5964 0.63035 2.2645l-3.6654 3.6655 1.5875 1.5875 3.6654-3.6654c0.66814 0.39662 1.4348 0.63042 2.2646 0.63042 2.4668 0 4.4825-2.0157 4.4825-4.4825s-2.0157-4.4825-4.4825-4.4825zm0 1.4942c1.6593 0 2.9883 1.329 2.9883 2.9883s-1.3291 2.9883-2.9883 2.9883-2.9883-1.329-2.9883-2.9883 1.3291-2.9883 2.9883-2.9883zm0 1.4941c-0.81636 0-1.4942 0.6779-1.4942 1.4942s0.67781 1.4942 1.4942 1.4942 1.4942-0.6779 1.4942-1.4942-0.67781-1.4942-1.4942-1.4942z" color="#000000" fill="#b3b3b3" style="text-decoration-line:none;text-indent:0;text-transform:none"/>
  <path id="path5321" d="m36 889.36c-3.866 0-7 3.134-7 7 0 3.866 3.134 7 7 7s7-3.134 7-7c0-3.866-3.134-7-7-7zm-0.15625 2.9687a1.0001 1.0001 0 0 1 0.09375 0 1.0001 1.0001 0 0 1 0.65625 1.8125l-1.625 1.2188h5.0312a1.0001 1.0001 0 1 1 0 2h-5l1.5938 1.1875a1.0001 1.0001 0 1 1-1.1875 1.5937l-3.7188-2.7812a1.0044 1.0044 0 0 1-0.15625-1.9063l3.875-2.9062a1.0001 1.0001 0 0 1 0.4375-0.2188z" fill="#f2f2f2"/>
  <path id="path5338" d="m12 903.36c3.866 0 7-3.134 7-7 0-3.866-3.134-7-7-7s-7 3.134-7 7c0 3.866 3.134 7 7 7zm0.15625-2.9687a1.0001 1.0001 0 0 1-0.09375 0 1.0001 1.0001 0 0 1-0.65625-1.8125l1.625-1.2188h-5.0312a1.0001 1.0001 0 1 1 0-2h5l-1.5938-1.1875a1.0001 1.0001 0 1 1 1.1875-1.5937l3.7188 2.7812a1.0044 1.0044 0 0 1 0.15625 1.9063l-3.875 2.9062a1.0001 1.0001 0 0 1-0.4375 0.2188z" fill="#f2f2f2"/>
  <path id="path5340" d="m12 913.36c-3.866 0-7 3.134-7 7 0 3.8661 3.134 7.0001 7 7.0001s7-3.134 7-7.0001c0-3.866-3.134-7-7-7zm-0.15625 1.7187a1.2501 1.2501 0 0 1 0.125 0 1.2501 1.2501 0 0 1 1.2812 1.2813v2.75h2.75a1.2501 1.2501 0 1 1 0 2.5h-2.75v2.7501a1.2501 1.2501 0 1 1-2.5 0v-2.7501h-2.75a1.2516 1.2516 0 0 1-0.125-2.5 1.2501 1.2501 0 0 1 0.125 0h2.75v-2.75a1.2501 1.2501 0 0 1 1.0938-1.2813z" fill="#f2f2f2"/>
  <path id="table-5" d="m54 819.36v2h12v-2zm0 3v1h4v-1zm5 0v1h7v-1zm-5 2v1h4v-1zm5 0v1h7v-1zm-5 2v1h4v-1zm5 0v1h7v-1zm-5 2v1h4v-1zm5 0v1h7v-1z" fill="#f2f2f2"/>
  <g id="text4356" transform="translate(-4 -172)" fill="#4d4d4d">
   <path id="path4384" d="m35.742 999.44 3.0762-3.0762-3.0664-3.0664 1.1914-1.1914 3.0664 3.0664 3.0566-3.0566 1.1719 1.1816-3.0469 3.0566 3.0664 3.0664-1.1914 1.1914-3.0664-3.0664-3.0762 3.0762-1.1816-1.1816" fill="#f2f2f2" stroke="#999" stroke-width=".25"/>
  </g>
  <path id="path4384-3" d="m11.192 853.36 2e-6 -4.1999-4.1923 1e-5 -3e-6 -1.6267h4.1923v-4.1733l1.6088 7e-3 0.0067 4.1666h4.1923l-3.9e-5 1.6266-4.1922 4e-5 -1.5e-5 4.1999h-1.6155" fill="#4d4d4d"/>
  <path id="path3684" d="m63.714 866.36-1.1428 1.1429 2.2857 2.2857 1.1428-1.1429zm-1.7143 1.7143-6.2857 6.2857 2.2857 2.2857 6.2857-6.2857zm-6.2857 6.2857-1.7143 4 4-1.7143z" fill="#f2f2f2" stroke="#999" stroke-width=".25"/>
  <text id="text4457-6" x="41.647079" y="916.79706" fill="#000000" font-family="sans-serif" letter-spacing="0px" word-spacing="0px" style="line-height:0%" xml:space="preserve"><tspan id="tspan4459-6" x="41.647079" y="916.79706" font-family="sans-serif" font-size="30.476px" style="line-height:1.25"> </tspan></text>
  <g id="text4356-2" transform="translate(44 -124)" fill="#fff">
   <path id="path4384-2" d="m35.742 999.44 3.0762-3.0762-3.0664-3.0664 1.1914-1.1914 3.0664 3.0664 3.0566-3.0566 1.1719 1.1816-3.0469 3.0566 3.0664 3.0664-1.1914 1.1914-3.0664-3.0664-3.0762 3.0762-1.1816-1.1816" fill="#f2f2f2"/>
  </g>
  <path id="path3684-2" d="m63.714 890.36-1.1428 1.1428 2.2857 2.2858 1.1428-1.1429zm-1.7143 1.7143-6.2857 6.2857 2.2857 2.2857 6.2857-6.2857zm-6.2857 6.2857-1.7143 4 4-1.7143z" fill="#b3b3b3"/>
  <path id="table-5-8-8-6" d="m30 914.36v1h1v-1zm2 0v1h10v-1zm-2 2v1h1v-1zm2 0v1h10v-1zm-2 2v1h1v-1zm2 0v1h10v-1zm-2 2v1h1v-1zm2 0v1h10v-1zm-2 2v1h1v-1zm2 0v1h10v-1zm-2 2v1h1v-1zm2 0v1h10v-1z" fill="#464646"/>
  <path id="table-5-8-8-6-1" d="m54 914.36v1h1v-1zm2 0v1h10v-1zm-2 2v1h1v-1zm2 0v1h10v-1zm-2 2v1h1v-1zm2 0v1h10v-1zm-2 2v1h1v-1zm2 0v1h10v-1zm-2 2v1h1v-1zm2 0v1h10v-1zm-2 2v1h1v-1zm2 0v1h10v-1z" fill="#f2f2f2"/>
  <circle id="path3764" cx="108" cy="844.36" r="1.5" fill="#f2f2f2" stroke="#999" stroke-width=".25"/>
  <path id="rect4274" d="m107 847.36h2v6h-2z" fill="#f2f2f2" stroke="#999" stroke-width=".25"/>
  <g id="g4717" transform="translate(-54.789 -114.48)">
   <path id="path3862" transform="translate(-1.2108 854.84)" d="m141.27 173.42-6.7559 2.6797 0.95313 6.3457 5.8711 3.127 4.1484-7.873zm-1.4473 2.4883 2.9902 1.6016-0.5918 2.4316-3.3574 1.5039-1.7383-3.8106z" fill="#f2f2f2" fill-rule="evenodd" stroke="#999" stroke-width=".25"/>
  </g>
  <path id="delete-30" d="m131 865.36v1c-1.4286 0-3.2857 0.59991-4 2v1h10v-1c-0.71429-1.4001-2.5714-2-4-2v-1zm-4 5 2 9h6l2-9z" fill="#f2f2f2" stroke="#999" stroke-width=".25"/>
  <g id="g4797" transform="translate(-70.26 -96.674)">
   <path id="path4349-2-2-9-3-8" d="m180.95 986.19-1.4668 13.336 1.9883 0.21875 1.4668-13.336z" color="#000000" color-rendering="auto" fill="#f2f2f2" fill-rule="evenodd" image-rendering="auto" shape-rendering="auto" solid-color="#000000" stroke="#999" stroke-width=".25" style="isolation:auto;mix-blend-mode:normal;text-decoration-color:#000000;text-decoration-line:none;text-decoration-style:solid;text-indent:0;text-transform:none;white-space:normal"/>
   <path id="path4349-2-2-3-3" d="m174.01 986.33-1.9668 0.36719 2.4629 13.188 1.9648-0.36719z" color="#000000" color-rendering="auto" fill="#f2f2f2" fill-rule="evenodd" image-rendering="auto" shape-rendering="auto" solid-color="#000000" stroke="#999" stroke-width=".25" style="isolation:auto;mix-blend-mode:normal;text-decoration-color:#000000;text-decoration-line:none;text-decoration-style:solid;text-indent:0;text-transform:none;white-space:normal"/>
   <g id="g4621"></g>
  </g>
  <path id="path4349-2-2-9-3-8-3" d="m111.29 865.52-1.4668 13.336 1.9883 0.21875 1.4668-13.336z" color="#000000" color-rendering="auto" fill="#f2f2f2" fill-rule="evenodd" image-rendering="auto" shape-rendering="auto" solid-color="#000000" stroke="#999" stroke-width=".25" style="isolation:auto;mix-blend-mode:normal;text-decoration-color:#000000;text-decoration-line:none;text-decoration-style:solid;text-indent:0;text-transform:none;white-space:normal"/>
  <path id="path4349-2-2-3-3-8" d="m104.35 865.65-1.9668 0.36719 2.4629 13.188 1.9648-0.36719z" color="#000000" color-rendering="auto" fill="#f2f2f2" fill-rule="evenodd" image-rendering="auto" shape-rendering="auto" solid-color="#000000" stroke="#999" stroke-width=".25" style="isolation:auto;mix-blend-mode:normal;text-decoration-color:#000000;text-decoration-line:none;text-decoration-style:solid;text-indent:0;text-transform:none;white-space:normal"/>
  <path id="path4349-2-2-9-3-8-7" d="m107.63 913.08-1.4668 13.336 1.9883 0.2188 1.4668-13.336z" color="#000000" color-rendering="auto" fill="#f2f2f2" fill-rule="evenodd" image-rendering="auto" shape-rendering="auto" solid-color="#000000" stroke="#999" stroke-width=".25" style="isolation:auto;mix-blend-mode:normal;text-decoration-color:#000000;text-decoration-line:none;text-decoration-style:solid;text-indent:0;text-transform:none;white-space:normal"/>
  <path id="rect4918" d="m126.54 912.3-1.3223 1.1269 4.666 5.4766v2.7305l-3.4473 4.8613 1.3086 0.9297 3.752-5.293h2.3867v-4h-2.375z" fill="#f2f2f2" stroke="#999" stroke-linecap="round" stroke-linejoin="round" stroke-width=".25"/>
  <g id="g4621-0-6" transform="translate(-45.69 -70.017)" fill="#4d4d4d">
   <g id="g4400-8-39-2-3-1-1-8" transform="matrix(.57449 0 0 .57449 77.91 445.57)" fill-rule="evenodd" stroke="#4d4d4d" stroke-width="4.2244">
    <path id="path4353-1-6-1-3-6-5-5" d="m175.81 948.25 8.3885 8.3497"/>
    <path id="path4355-9-7-1-7-3-31-4" d="m176 956.36 8.1554-8.1943"/>
   </g>
   <g id="g4400-8-39-2-3-3-7" transform="matrix(.52631 0 0 .52631 86.649 491.41)" stroke="#000" stroke-width="2.8163">
    <path id="path4353-1-6-1-3-3-9" transform="matrix(1.9 0 0 1.9 -245.02 606.04)" d="m222.11 179.64-1.0488 1.0488 1.582 1.5801-1.582 1.582 1.0488 1.0469 1.582-1.5801 1.5801 1.5801 1.0488-1.0469-1.582-1.582 1.582-1.5801-1.0488-1.0488-1.5801 1.5801z" color="#000000" color-rendering="auto" fill="#f2f2f2" fill-rule="evenodd" image-rendering="auto" shape-rendering="auto" solid-color="#000000" stroke="none" style="isolation:auto;mix-blend-mode:normal;text-decoration-color:#000000;text-decoration-line:none;text-decoration-style:solid;text-indent:0;text-transform:none;white-space:normal"/>
   </g>
  </g>
  <path id="path4873" d="m108.15 816.36v3.8267h3.8544v-3.8267zm0.51755 4.3517-1.2459 2.3132 1.1669 0.61848 1.244-2.3151zm-1.8689 3.4717-0.27666 0.51571h-2.426v2.2441l-4.0916 4.064 1.3626 1.3528 3.862-3.8342h2.7214v-3.6959l0.015-0.028-0.015-8e-3v-0.0953h-0.17879l-0.97303-0.51571z" color="#000000" color-rendering="auto" fill="#f2f2f2" fill-rule="evenodd" image-rendering="auto" shape-rendering="auto" solid-color="#000000" stroke="#999" stroke-width=".25" style="isolation:auto;mix-blend-mode:normal;text-decoration-color:#000000;text-decoration-line:none;text-decoration-style:solid;text-indent:0;text-transform:none;white-space:normal"/>
  <g id="g4244" transform="matrix(.51357 -.54309 .54309 .51357 -518.02 506.23)">
   <path id="path4240" transform="matrix(.91922 .97205 -.97205 .91922 152.14 647.93)" d="m220.49 133.52c-0.33017 0.01-0.66239 0.0456-0.99414 0.10742-2.2249 0.41425-4.0267 1.9575-4.832 4.0098l-0.87696-1.8164a0.50005 0.50005 0 0 0-0.83398-0.11328 0.50005 0.50005 0 0 0-0.0664 0.54883l1.459 3.0195a0.50005 0.50005 0 0 0 0.60742 0.25586l2.8438-0.94532a0.50028 0.50028 0 1 0-0.31641-0.94922l-2.002 0.66797c0.61312-1.8902 2.2073-3.3241 4.2012-3.6953 2.2474-0.41845 4.5146 0.59912 5.6953 2.5566 1.1807 1.9575 1.022 4.4377-0.39648 6.2305-1.4185 1.7928-3.7961 2.5154-5.9727 1.8164a0.50005 0.50005 0 1 0-0.30469 0.95117c2.5704 0.82539 5.3874-0.0294 7.0625-2.1465 0.4188-0.52924 0.74532-1.1114 0.97657-1.7207 0.69373-1.828 0.53599-3.9147-0.50977-5.6484-1.22-2.0227-3.4291-3.1977-5.7402-3.1289z" color="#000000" color-rendering="auto" fill="#f2f2f2" image-rendering="auto" shape-rendering="auto" solid-color="#000000" stroke="#999" stroke-linecap="round" stroke-linejoin="round" stroke-width=".25" style="isolation:auto;mix-blend-mode:normal;text-decoration-color:#000000;text-decoration-line:none;text-decoration-style:solid;text-indent:0;text-transform:none;white-space:normal"/>
  </g>
  <g id="delete-vertex" transform="translate(-90,-64)">
   <path id="path4349-2-2-9-3-8-3-5" transform="translate(0 852.36)" d="m227.55 53.105-6.0547 3.0273h-3.4414v3.5176l-2.9512 5.9023 1.7891 0.89453 3.1562-6.3145h2.0059v-2.043l6.3906-3.1953z" color="#000000" color-rendering="auto" fill="#f2f2f2" image-rendering="auto" shape-rendering="auto" solid-color="#000000" stroke="#999" stroke-width=".25" style="isolation:auto;mix-blend-mode:normal;text-decoration-color:#000000;text-decoration-line:none;text-decoration-style:solid;text-indent:0;text-transform:none;white-space:normal"/>
   <path id="path4353-1-6-1-3-5-1-9" d="m217 907.36 6 6" fill="none" stroke="#fff" stroke-width="2.482"/>
   <path id="path4353-1-6-1-3-5-1" d="m217 907.36 6 6" fill="none" stroke="#4d4d4d" stroke-width="1.4822"/>
  </g>
  <g id="split-line">
   <path id="path4349-2-2-9-3-8-9" d="m135.12 817.45-1.4688 13.336 1.9883 0.21875 1.4668-13.336z" color="#000000" color-rendering="auto" fill="#f2f2f2" image-rendering="auto" shape-rendering="auto" solid-color="#000000" stroke="#999" stroke-width=".25" style="isolation:auto;mix-blend-mode:normal;text-decoration-color:#000000;text-decoration-line:none;text-decoration-style:solid;text-indent:0;text-transform:none;white-space:normal"/>
   <path id="path4349-2-2-3-3-3" d="m129.66 830.95-2.4614-13.189" fill="none" stroke="#808080" stroke-width="2"/>
  </g>
  <g id="g4621-0-6-2" transform="translate(-73.385 -72.287)" fill="#4d4d4d">
   <g id="g4400-8-39-2-3-1-1-8-9" transform="matrix(.57449 0 0 .57449 77.91 445.57)" fill-rule="evenodd" stroke="#4d4d4d" stroke-width="4.2244">
    <path id="path4353-1-6-1-3-6-5-5-7" d="m175.81 948.25 8.3885 8.3497"/>
    <path id="path4355-9-7-1-7-3-31-4-6" d="m176 956.36 8.1554-8.1943"/>
   </g>
   <g id="g4400-8-39-2-3-3-7-9" transform="matrix(.52631 0 0 .52631 86.649 491.41)" stroke="#000" stroke-width="2.8163">
    <path id="path4353-1-6-1-3-3-9-1" transform="matrix(1.9 0 0 1.9 -245.02 606.04)" d="m222.11 179.64-1.0488 1.0488 1.582 1.5801-1.582 1.582 1.0488 1.0469 1.582-1.5801 1.5801 1.5801 1.0488-1.0469-1.582-1.582 1.582-1.5801-1.0488-1.0488-1.5801 1.5801z" color="#000000" color-rendering="auto" fill="#f2f2f2" fill-rule="evenodd" image-rendering="auto" shape-rendering="auto" solid-color="#000000" stroke="none" style="isolation:auto;mix-blend-mode:normal;text-decoration-color:#000000;text-decoration-line:none;text-decoration-style:solid;text-indent:0;text-transform:none;white-space:normal"/>
   </g>
  </g>
  <g id="g4621-0-6-9" transform="translate(-70.311 -96.405)" fill="#4d4d4d">
   <g id="g4400-8-39-2-3-1-1-8-0" transform="matrix(.57449 0 0 .57449 77.91 445.57)" fill-rule="evenodd" stroke="#4d4d4d" stroke-width="4.2244">
    <path id="path4353-1-6-1-3-6-5-5-4" d="m175.81 948.25 8.3885 8.3497"/>
    <path id="path4355-9-7-1-7-3-31-4-9" d="m176 956.36 8.1554-8.1943"/>
   </g>
   <g id="g4400-8-39-2-3-3-7-8" transform="matrix(.52631 0 0 .52631 86.649 491.41)" stroke="#000" stroke-width="2.8163">
    <path id="path4353-1-6-1-3-3-9-4" transform="matrix(1.9 0 0 1.9 -245.02 606.04)" d="m222.11 179.64-1.0488 1.0488 1.582 1.5801-1.582 1.582 1.0488 1.0469 1.582-1.5801 1.5801 1.5801 1.0488-1.0469-1.582-1.582 1.582-1.5801-1.0488-1.0488-1.5801 1.5801z" color="#000000" color-rendering="auto" fill="#f2f2f2" fill-rule="evenodd" image-rendering="auto" shape-rendering="auto" solid-color="#000000" stroke="none" style="isolation:auto;mix-blend-mode:normal;text-decoration-color:#000000;text-decoration-line:none;text-decoration-style:solid;text-indent:0;text-transform:none;white-space:normal"/>
   </g>
  </g>
  <g id="g4621-0-6-0" transform="translate(-69.564 -120.09)" fill="#4d4d4d">
   <g id="g4400-8-39-2-3-1-1-8-2" transform="matrix(.57449 0 0 .57449 77.91 445.57)" fill-rule="evenodd" stroke="#4d4d4d" stroke-width="4.2244">
    <path id="path4353-1-6-1-3-6-5-5-5" d="m175.81 948.25 8.3885 8.3497"/>
    <path id="path4355-9-7-1-7-3-31-4-69" d="m176 956.36 8.1554-8.1943"/>
   </g>
   <g id="g4400-8-39-2-3-3-7-2" transform="matrix(.52631 0 0 .52631 86.649 491.41)" stroke="#000" stroke-width="2.8163">
    <path id="path4353-1-6-1-3-3-9-8" transform="matrix(1.9 0 0 1.9 -245.02 606.04)" d="m222.11 179.64-1.0488 1.0488 1.582 1.5801-1.582 1.582 1.0488 1.0469 1.582-1.5801 1.5801 1.5801 1.0488-1.0469-1.582-1.582 1.582-1.5801-1.0488-1.0488-1.5801 1.5801z" color="#000000" color-rendering="auto" fill="#f2f2f2" fill-rule="evenodd" image-rendering="auto" shape-rendering="auto" solid-color="#000000" stroke="none" style="isolation:auto;mix-blend-mode:normal;text-decoration-color:#000000;text-decoration-line:none;text-decoration-style:solid;text-indent:0;text-transform:none;white-space:normal"/>
   </g>
  </g>
  <g id="g4621-0-6-5" transform="translate(-76.593 -120.17)" fill="#4d4d4d">
   <g id="g4400-8-39-2-3-1-1-8-6" transform="matrix(.57449 0 0 .57449 77.91 445.57)" fill-rule="evenodd" stroke="#4d4d4d" stroke-width="4.2244">
    <path id="path4353-1-6-1-3-6-5-5-2" d="m175.81 948.25 8.3885 8.3497"/>
    <path id="path4355-9-7-1-7-3-31-4-0" d="m176 956.36 8.1554-8.1943"/>
   </g>
   <g id="g4400-8-39-2-3-3-7-0" transform="matrix(.52631 0 0 .52631 86.649 491.41)" stroke="#000" stroke-width="2.8163">
    <path id="path4353-1-6-1-3-3-9-6" transform="matrix(1.9 0 0 1.9 -245.02 606.04)" d="m222.11 179.64-1.0488 1.0488 1.582 1.5801-1.582 1.582 1.0488 1.0469 1.582-1.5801 1.5801 1.5801 1.0488-1.0469-1.582-1.582 1.582-1.5801-1.0488-1.0488-1.5801 1.5801z" color="#000000" color-rendering="auto" fill="#f2f2f2" fill-rule="evenodd" image-rendering="auto" shape-rendering="auto" solid-color="#000000" stroke="none" style="isolation:auto;mix-blend-mode:normal;text-decoration-color:#000000;text-decoration-line:none;text-decoration-style:solid;text-indent:0;text-transform:none;white-space:normal"/>
   </g>
  </g>
  <path id="path3014-4" d="m108 840.36c-4.4124 0-8.0001 3.5878-8.0001 8.0001 0 4.4124 3.5878 8.0001 8.0001 8.0001s8.0001-3.5878 8.0001-8.0001c0-4.4124-3.5878-8.0001-8.0001-8.0001zm0 1.0003c3.8719 0 6.9999 3.1279 6.9999 6.9999 0 3.8719-3.1279 6.9999-6.9999 6.9999s-6.9999-3.128-6.9999-6.9999c0-3.8719 3.1279-6.9999 6.9999-6.9999z" color="#000000" color-rendering="auto" fill="#f2f2f2" image-rendering="auto" shape-rendering="auto" solid-color="#000000" stroke="#999" stroke-width=".25" style="isolation:auto;mix-blend-mode:normal;text-decoration-color:#000000;text-decoration-line:none;text-decoration-style:solid;text-indent:0;text-transform:none;white-space:normal"/>
  <rect id="rect4237" x="77" y="889.36" width="2" height="2" fill="#f2f2f2"/>
  <rect id="rect4239" x="81" y="889.36" width="2" height="2" fill="#f2f2f2"/>
  <rect id="rect4241" x="85" y="889.36" width="2" height="2" fill="#f2f2f2"/>
  <rect id="rect4243" x="89" y="889.36" width="2" height="2" fill="#f2f2f2"/>
  <rect id="rect4237-6" x="77" y="893.36" width="2" height="2" fill="#f2f2f2"/>
  <rect id="rect4239-3" x="81" y="893.36" width="2" height="2" fill="#f2f2f2"/>
  <rect id="rect4241-8" x="85" y="893.36" width="2" height="2" fill="#f2f2f2"/>
  <rect id="rect4243-2" x="89" y="893.36" width="2" height="2" fill="#f2f2f2"/>
  <rect id="rect4237-1" x="77" y="897.36" width="2" height="2" fill="#f2f2f2"/>
  <rect id="rect4239-5" x="81" y="897.36" width="2" height="2" fill="#f2f2f2"/>
  <rect id="rect4241-82" x="85" y="897.36" width="2" height="2" fill="#f2f2f2"/>
  <rect id="rect4243-5" x="89" y="897.36" width="2" height="2" fill="#f2f2f2"/>
  <rect id="rect4237-6-6" x="77" y="901.36" width="2" height="2" fill="#f2f2f2"/>
  <rect id="rect4239-3-7" x="81" y="901.36" width="2" height="2" fill="#f2f2f2"/>
  <rect id="rect4241-8-2" x="85" y="901.36" width="2" height="2" fill="#f2f2f2"/>
  <rect id="rect4243-2-5" x="89" y="901.36" width="2" height="2" fill="#f2f2f2"/>
  <path id="delete-30-7" d="m131 937.36v1c-1.4286 0-3.2857 0.5999-4 2v1h10v-1c-0.71429-1.4001-2.5714-2-4-2v-1zm-4 5 2 9h6l2-9z" fill="#b3b3b3" stroke="#999" stroke-width=".25"/>
  <path id="path349" d="m60.059 945.66c1.5887 0 3.1118 0.6337 4.2352 1.7571 1.1234 1.1232 1.7553 2.6464 1.7571 4.2352 0 0.238-0.12691 0.4577-0.3329 0.5766-0.20598 0.1189-0.45982 0.1189-0.66579 0-0.20598-0.1189-0.33291-0.3386-0.33291-0.5766 0-1.6651-0.88828-3.2037-2.3303-4.0363-1.442-0.8324-3.2186-0.8324-4.6606 0-1.442 0.8326-2.3303 2.3712-2.3303 4.0363 0 0.238-0.12692 0.4577-0.3329 0.5766s-0.45982 0.1189-0.6658 0c-0.20598-0.1189-0.3329-0.3386-0.3329-0.5766 0.0018-1.5887 0.63368-3.1118 1.7571-4.2352 1.1232-1.1234 2.6464-1.7553 4.2352-1.7571zm0-0.6658c-0.88292 0-1.7296-0.3507-2.3539-0.9751-0.62432-0.6243-0.97507-1.471-0.97507-2.3539s0.35073-1.7296 0.97507-2.3539c0.62433-0.6244 1.471-0.9751 2.3539-0.9751 0.88292 0 1.7296 0.3507 2.3539 0.9751 0.62432 0.6243 0.97506 1.471 0.97506 2.3539-8.2e-4 0.8826-0.35206 1.7288-0.97624 2.3528-0.62402 0.6241-1.4701 0.9752-2.3527 0.9762zm0-1.3316c0.52982 0 1.0378-0.2105 1.4124-0.5849 0.37451-0.3747 0.58494-0.8827 0.58494-1.4125s-0.21043-1.0377-0.58494-1.4124c-0.37466-0.3745-0.88262-0.585-1.4124-0.585-0.52982 0-1.0378 0.2105-1.4124 0.585-0.37451 0.3747-0.58495 0.8826-0.58495 1.4124s0.21044 1.0378 0.58495 1.4125c0.37466 0.3744 0.88262 0.5849 1.4124 0.5849z" fill="#f2f2f2" stroke="#999" stroke-width=".178"/>
 </g>
</svg>
