<svg id="svg2876" width="180" height="180" version="1.1" viewBox="0 0 47.625 47.625" xmlns="http://www.w3.org/2000/svg">
 <g id="layer1">
  <path id="edit" class="sprite" d="m6.35 2.1167-0.52917 0.52917 1.0583 1.0583 0.52917-0.52917zm-0.79375 0.79375-2.9104 2.9104 1.0583 1.0583 2.9104-2.9104zm-2.9104 2.9104-0.79375 1.8521 1.8521-0.79375z" fill="#f2f2f2" stroke="#999" stroke-width=".066146"/>
  <path id="delete" class="sprite" d="m13.758 2.1167v0.52917c-0.52917 0-1.0583 0-1.3229 0.52917v0.26458h3.7042v-0.26458c-0.26458-0.52917-0.79375-0.52917-1.3229-0.52917v-0.52917zm-1.3229 1.5875 0.79375 3.7042h2.1167l0.79375-3.7042z" fill="#f2f2f2" stroke="#999" stroke-width=".066146"/>
  <g id="markers" class="sprite" transform="matrix(.26458 0 0 .26458 14.287 -226.05)" fill="#f2f2f2" stroke="#999" stroke-width=".25">
   <path id="rect2985" d="m105.25 934.36c-3.1775 0-6.346 2.1278-7.2539 6.3794 0 2.551 1.8067 7.6679 7.2539 13.62 1.4637-1.5994 2.6694-3.1177 3.644-4.5613-1.4505-2.1639-2.415-4.0873-2.9628-5.7095-0.22599 0.041-0.44225 0.063-0.68112 0.063-2.0056 0-3.644-1.5346-3.644-3.413 0-1.8785 1.6384-3.3811 3.644-3.3811 0.51205 0 0.98854 0.076 1.4303 0.2552 0.64347-0.9222 1.4345-1.6571 2.3158-2.169-1.1444-0.7114-2.4463-1.0845-3.7461-1.0845z"/>
   <path id="path3378" d="m111 934.36c-3.0625 0-6.125 2.1277-7 6.383 0 2.5532 1.75 7.6596 7 13.617 5.25-5.9574 7-11.064 7-13.617-0.875-4.2553-3.9375-6.383-7-6.383zm0 2.9788c1.933 0 3.5 1.5241 3.5 3.4042s-1.567 3.4043-3.5 3.4043c-1.933 0-3.5-1.5242-3.5-3.4043s1.567-3.4042 3.5-3.4042z"/>
  </g>
  <g id="tilelayers" class="sprite" transform="matrix(.26458 0 0 .26458 20.637 -251.45)">
   <path id="rect7231" d="m12 957.36c-7.3731 6.5006-6.8763 2.8816-12 5v2l12 6 12-6v-2c-7.3847-0.182-5.2912-2.2182-12-5z" fill="#f2f2f2"/>
   <path id="rect7902" d="m-8.3439e-7 971.36 12 6 12-6v2l-12 6-12-6z" fill="#b3b3b3"/>
   <path id="path7953" d="m-8.3439e-7 968.36 12 6 12-6v2l-12 6-12-6z" fill="#ccc"/>
   <path id="path7955" d="m-8.3439e-7 965.36 12 6 12-6v2l-12 6-12-6z" fill="#e6e6e6"/>
  </g>
  <path id="marker" class="sprite" d="m42.862 11.112c-0.92604 0-1.8521 0.66146-2.1167 1.9844 0 0.79375 0.52917 2.3812 2.1167 4.2333 1.5875-1.8521 2.1167-3.4396 2.1167-4.2333-0.26458-1.3229-1.1906-1.9844-2.1167-1.9844zm0 0.92604c0.5845 0 1.0583 0.47383 1.0583 1.0583s-0.47383 1.0583-1.0583 1.0583c-0.5845 0-1.0583-0.47383-1.0583-1.0583s0.47383-1.0583 1.0583-1.0583z" fill="#f2f2f2" stroke="#999" stroke-width=".066146"/>
  <path id="polyline" class="sprite" d="m30.956 11.112v1.0583h1.0583v-0.22324l2.6458 1.0583v0.47129l-1.8769 2.927h-0.76894v1.0583h1.0583v-1.0253l1.8769-2.9435h0.76895v-1.0583h-1.0583v0.28112l-2.6458-1.0583v-0.5457h-0.92604zm0.26458 0.26458h0.52917v0.52917h-0.52917zm3.7042 1.3229h0.52917v0.52917h-0.52917zm-2.6458 3.9688h0.52917v0.52917h-0.52917z" fill="#f2f2f2" stroke="#999" stroke-width=".064558"/>
  <path id="polyogn" class="sprite" d="m21.696 11.377v1.0583h0.47956l-0.42168 3.7042h-0.58704v1.0583h1.0583v-0.55396l2.6458-0.1819v0.47128h1.0583v-1.0583h-0.43822l0.3638-2.1167h0.60358v-1.0583h-1.0583v0.34727l-2.6458-0.95083v-0.71935h-0.92604zm0.26458 0.26458h0.52917v0.52917h-0.52917zm3.7042 1.3229h0.52917v0.52917h-0.52917zm-0.52917 3.175h0.52917v0.52917h-0.52917zm-3.7042 0.26458h0.52917v0.52917h-0.52917z" fill="#f2f2f2" stroke="#999" stroke-width=".064558"/>
  <g id="settings" class="sprite" transform="matrix(.064669 0 0 .064669 30.097 1.5356)" fill="#f2f2f2" stroke="#999" stroke-width=".99828">
   <path id="path27812" d="m98.762 43.652c-0.186-1.386-1.481-2.582-2.876-2.659l-6.172-0.337c-1.395-0.076-2.899-1.224-3.341-2.55l-2.28-5.518c-0.629-1.249-0.379-3.121 0.553-4.161l4.122-4.6c0.933-1.042 0.962-2.77 0.066-3.842l-8.813-8.813c-1.073-0.897-2.803-0.867-3.845 0.065l-4.598 4.122c-1.039 0.934-2.915 1.182-4.161 0.551l-5.521-2.279c-1.324-0.442-2.472-1.945-2.549-3.34l-0.337-6.17c-0.077-1.396-1.272-2.691-2.659-2.878 0 0-3.252-0.44-6.248-0.44-2.991 0-6.243 0.44-6.243 0.44-1.386 0.188-2.582 1.483-2.658 2.878l-0.338 6.17c-0.076 1.396-1.224 2.898-2.551 3.34l-5.517 2.279c-1.249 0.631-3.122 0.382-4.161-0.551l-4.601-4.122c-1.042-0.932-2.769-0.962-3.842-0.065l-8.813 8.813c-0.897 1.073-0.867 2.801 0.066 3.842l4.122 4.6c0.933 1.041 1.182 2.913 0.551 4.161l-2.279 5.518c-0.442 1.326-1.946 2.474-3.34 2.55l-6.17 0.337c-1.396 0.077-2.691 1.272-2.879 2.659 0 0-0.439 3.253-0.439 6.243s0.44 6.24 0.44 6.24c0.188 1.389 1.483 2.582 2.879 2.659l6.169 0.339c1.396 0.075 2.898 1.225 3.341 2.549l2.278 5.517c0.631 1.248 0.381 3.122-0.551 4.163l-4.122 4.598c-0.933 1.042-0.963 2.771-0.066 3.845l8.814 8.813c1.073 0.896 2.801 0.866 3.842-0.066l4.6-4.122c1.041-0.932 2.913-1.182 4.161-0.553l5.517 2.28c1.327 0.441 2.475 1.946 2.55 3.343l0.338 6.168c0.076 1.395 1.272 2.692 2.658 2.88 0 0 3.252 0.439 6.244 0.439 2.996 0 6.25-0.439 6.25-0.439 1.385-0.188 2.58-1.485 2.657-2.88l0.337-6.168c0.077-1.396 1.225-2.901 2.551-3.343l5.517-2.28c1.248-0.629 3.122-0.379 4.163 0.553l4.598 4.122c1.042 0.933 2.771 0.964 3.843 0.067l8.815-8.814c0.896-1.073 0.866-2.803-0.066-3.845l-4.122-4.598c-0.932-1.041-1.182-2.915-0.553-4.163l2.28-5.517c0.441-1.324 1.946-2.474 3.341-2.549l6.172-0.339c1.395-0.077 2.692-1.271 2.876-2.659 0 0 0.441-3.25 0.441-6.24s-0.441-6.243-0.441-6.243zm-48.658 18.709c-6.886 0-12.468-5.585-12.468-12.467 0-6.885 5.582-12.467 12.468-12.467 6.89 0 12.475 5.582 12.475 12.467-1e-3 6.882-5.586 12.467-12.475 12.467z" fill="#f2f2f2" stroke="#999" stroke-width=".99828"/>
  </g>
  <path id="import" class="sprite" d="m42.862 1.5875c-1.7535 0-3.175 1.4215-3.175 3.175 0 1.7535 1.4215 3.175 3.175 3.175s3.175-1.4215 3.175-3.175c0-1.7535-1.4215-3.175-3.175-3.175zm0 1.3229 1.8521 1.8521h-1.3229v1.5875h-1.0583v-1.5875h-1.3229z" fill="#f2f2f2" stroke="#999" stroke-width=".066146"/>
  <g id="set-zoom" class="sprite" transform="translate(-.68348 -1.3229)" fill="#f2f2f2" stroke="#999">
   <polygon id="polygon3044" transform="matrix(.0635 0 0 .0635 2.271 12.435)" points="11.27 100 0 88.737 17.702 71.042 9.297 62.644 37.37 62.644 37.37 90.703 28.965 82.305" stroke-width="1.0417"/>
   <polygon id="polygon3048" transform="matrix(.0635 0 0 .0635 2.271 12.435)" points="90.71 37.37 82.298 28.958 100 11.263 88.743 0 71.042 17.708 62.644 9.31 62.644 37.357" stroke-width="1.0417"/>
   <path id="path3052" d="m5.446 14.835c-0.42831 0-0.77552 0.34728-0.77552 0.77552 0 0.42913 0.34728 0.77642 0.77552 0.77642 0.42831 0 0.77597-0.34728 0.77597-0.77642 0-0.42831-0.34766-0.77552-0.77597-0.77552z" stroke-width=".066146"/>
  </g>
  <path id="permissions" class="sprite" d="m12.46 12.7c-0.89012-0.0021-1.6103 0.71168-1.6123 1.5875 2e-3 0.87776 0.72218 1.5861 1.6123 1.5875 0.59351-8.73e-4 1.1105-0.32112 1.3891-0.79375h0.65319l0.5209-0.50436 0.39688 0.38034 0.38034-0.37207 0.38861 0.38034 0.39688-0.38034 0.38861 0.38034 0.678-0.65319c0.09761-0.09927 0.10002-0.17419 0-0.27285l-0.55397-0.5457h-3.2411c-0.27712-0.47713-0.79976-0.79498-1.3973-0.79375zm-0.7028 1.1576c0.23396-0.0011 0.4199 0.18746 0.42168 0.42168-0.0017 0.23096-0.18761 0.41954-0.42168 0.42168-0.23793-0.0024-0.43214-0.19072-0.42995-0.42168-0.0022-0.23422 0.19202-0.4228 0.42995-0.42168z" fill="#f2f2f2" stroke="#999" stroke-width=".066146"/>
  <path id="search" class="sprite" d="m7.9375 26.143-1.7031-1.7035c0.22923-0.37814 0.36356-0.8213 0.36356-1.296 0-1.3847-1.1206-2.506-2.5052-2.5064-1.3837 5.29e-4 -2.5052 1.1218-2.5052 2.5062 0 1.3835 1.1218 2.5048 2.506 2.5048 0.47495 0 0.91739-0.13434 1.2955-0.36356l1.704 1.704zm-5.3941-2.9998c0.0014-0.8562 0.6939-1.5487 1.5499-1.5501 0.85572 0.0019 1.5484 0.6939 1.5499 1.5501-0.0017 0.85548-0.69414 1.5484-1.5499 1.5496-0.8562 0-1.5487-0.69414-1.5499-1.5496z" fill="#f2f2f2" stroke="#999" stroke-width=".066146"/>
  <g id="delete-marker" class="sprite" transform="matrix(.26458 0 0 .26458 -14.439 -237.92)" fill="#f2f2f2" stroke="#999" stroke-width=".25">
   <path id="path3378-6" d="m178.57 979.22c-3.0625 0-6.125 2.1197-7 6.375 0 2.5532 1.75 7.6676 7 13.625 3.4166-3.877 5.3157-7.3755 6.25-10.062-1.3142-0.1622-2.497-0.7235-3.4062-1.5938-0.63462 0.8653-1.6677 1.4375-2.8438 1.4375-1.933 0-3.5-1.5261-3.5-3.4062s1.567-3.4063 3.5-3.4063c0.36776 0 0.72951 0.085 1.0625 0.1875 0.14352-1.0312 0.55799-1.956 1.1562-2.75-0.72276-0.259-1.4631-0.4062-2.2188-0.4062z"/>
   <path id="path6764" d="m185.57 978.22c-2.7614 0-5 2.2386-5 5 0 2.7615 2.2386 5 5 5s5-2.2385 5-5c0-2.7614-2.2386-5-5-5zm-1.8182 2.2727 1.8182 1.8182 1.8182-1.8182 0.90909 0.9091-1.8182 1.8182 1.8182 1.8182-0.90909 0.9091-1.8182-1.8182-1.8182 1.8182-0.90909-0.9091 1.8182-1.8182-1.8182-1.8182z"/>
  </g>
  <g id="multipolygon" class="sprite" transform="translate(-.73309 -3.9687)" fill="#f2f2f2" stroke="#999" stroke-width=".066146">
   <path id="rect4058-1-2" d="m2.8498 33.337v0.13229 0.79375 0.13229h0.13229 0.34727l-0.42168 3.7042h-0.45475-0.13229v0.13229 0.79375 0.13229h0.13229 0.79375 0.13229v-0.13229-0.42169s3.6292-2.8856 3.6298-2.8856h0.47129 0.13229v-0.13229-0.79375-0.13229h-0.13229-0.79375-0.13229v0.13229 0.21497l-2.6458-0.95086v-0.58703-0.13229h-0.13229-0.79375zm0.26458 0.26458h0.52917v0.52917h-0.52917zm3.7042 1.3229h0.52917v0.52917h-0.52917zm-4.2333 3.4396h0.52917v0.52917h-0.52917z" color="#000000" style="text-decoration-line:none;text-indent:0;text-transform:none"/>
   <path id="rect4058-1-2-0" d="m4.9168 40.217h-0.92604-0.13229v0.13229 0.79375 0.13229h0.13229 0.79375 0.13229v-0.13229-0.42167l2.6458-0.1819v0.33898 0.13229h0.13229 0.79375 0.13229v-0.13229-0.79375-0.13229h-0.13229-0.30592l-0.64492-2.1167h0.47129 0.13229v-0.13229-0.79375-0.13229h-0.13229-0.79375-0.1819v0.79375s-2.0671 2.6458-2.1167 2.6458zm2.4309-3.175h0.52917v0.52917h-0.52917zm0.47956 3.175h0.52917v0.52917h-0.52917zm-3.7042 0.26458h0.52917v0.52917h-0.52917z" color="#000000" style="text-decoration-line:none;text-indent:0;text-transform:none"/>
  </g>
  <path id="download" class="sprite" d="m23.812 26.987c1.7535 0 3.175-1.4215 3.175-3.175 0-1.7535-1.4215-3.175-3.175-3.175-1.7535 0-3.175 1.4215-3.175 3.175 0 1.7535 1.4215 3.175 3.175 3.175zm0-1.3229-1.8521-1.8521h1.3229v-1.5875h1.0583v1.5875h1.3229z" fill="#f2f2f2" stroke="#999" stroke-width=".066146"/>
  <g id="multiline" class="sprite" transform="translate(-1.7418 -4.4977)" fill="#f2f2f2" stroke="#999" stroke-width=".066146">
   <path id="rect4058-9" d="m13.648 34.131v0.13229 0.79375 0.13229h0.13229 0.79375 0.13229v-0.13229-0.09096l2.6458 1.0583v0.35555 0.11576l0.28939 0.0164h0.63665 0.13229v-0.13229-0.79375-0.13229h-0.13229-0.79375-0.13229v0.13229 0.14883l-2.6458-1.0583v-0.41341-0.13229h-0.13229-0.79375zm0.26458 0.26458h0.52917v0.52917h-0.52917zm3.7042 1.3229h0.52917v0.52917h-0.52917z" color="#000000" style="text-decoration-line:none;text-indent:0;text-transform:none"/>
   <path id="rect4058-9-5" d="m14.731 36.818v0.35555 0.11576l1.8769 2.927h0.63665 0.13229v0.13229 0.79375 0.13229h-0.13229-0.79375-0.13229v-0.13229-0.79375-0.09922l-1.8769-2.9435h-0.63665-0.13229v-0.13229-0.79375-0.13229h0.13229 0.79375 0.13229v0.13229 0.14883zm-0.26458-0.30591h-0.52917v0.52917h0.52917zm2.6458 3.9688h-0.52917v0.52917h0.52917z" color="#000000" style="text-decoration-line:none;text-indent:0;text-transform:none"/>
   <path id="path4432" d="m13.648 34.131v0.13229 0.79375 0.13229h0.13229 0.79375 0.13229v-0.13229-0.09096l2.6458 1.0583v0.35555 0.11576l0.28939 0.0164h0.63665 0.13229v-0.13229-0.79375-0.13229h-0.13229-0.79375-0.13229v0.13229 0.14883l-2.6458-1.0583v-0.41341-0.13229h-0.13229-0.79375zm0.26458 0.26458h0.52917v0.52917h-0.52917zm3.7042 1.3229h0.52917v0.52917h-0.52917z" color="#000000" style="text-decoration-line:none;text-indent:0;text-transform:none"/>
   <path id="path4434" d="m14.731 36.818v0.35555 0.11576l1.8769 2.927h0.63665 0.13229v0.13229 0.79375 0.13229h-0.13229-0.79375-0.13229v-0.13229-0.79375-0.09922l-1.8769-2.9435h-0.63665-0.13229v-0.13229-0.79375-0.13229h0.13229 0.79375 0.13229v0.13229 0.14883zm-0.26458-0.30591h-0.52917v0.52917h0.52917zm2.6458 3.9688h-0.52917v0.52917h0.52917z" color="#000000" style="text-decoration-line:none;text-indent:0;text-transform:none"/>
  </g>
  <path id="arrow-up" d="m33.329 32.279-2.0498 2.0596h4.0995z" fill="#f2f2f2" fill-rule="evenodd" stroke="#999" stroke-width=".046891"/>
  <path id="arrow-down" d="m23.802 34.339 2.0498-2.0596h-4.0995z" fill="#f2f2f2" fill-rule="evenodd" stroke="#999" stroke-width=".046831"/>
  <path id="path2188" d="m11.394 23.743h4e-6c0.0102-0.0168 0.02435-0.0308 0.04124-0.04083l9e-6 -2.6e-5 0.35309-0.20972 2.4753 1.4703 0.01763 0.01048 0.01763-0.01048 2.4753-1.4703 0.35309 0.20972c0.05689 0.03382 0.07555 0.10711 0.04128 0.16374-0.01019 0.01679-0.02442 0.03085-0.0413 0.04091l-2.846 1.6904-2.846-1.6904h-3e-6c-0.05691-0.03382-0.07557-0.10716-0.04125-0.16379zm0 1.435h4e-6c0.0102-0.01682 0.02435-0.03083 0.04124-0.04086h9e-6l0.35309-0.20975 2.4753 1.4703 0.01763 0.01046 0.01763-0.01046 2.4753-1.4703 0.35309 0.20975c0.05689 0.03379 0.07555 0.10713 0.04125 0.16376l0.02915 0.01701-0.02912-0.01703c-0.01019 0.0168-0.02442 0.03083-0.0413 0.04091l-2.7049 1.6066c-0.08683 0.05158-0.19526 0.05158-0.28209 0l-2.7049-1.6067h-3e-6c-0.05691-0.03382-0.07557-0.10713-0.04125-0.16376zm0.04125-2.6909-0.01757 0.02848 0.01757-0.02848c-0.05691-0.0338-0.07557-0.10714-0.04125-0.16376l2e-6 -2e-6c0.01019-0.01679 0.02435-0.03081 0.04125-0.04086h2e-6l2.7049-1.6067c0.08683-0.05157 0.19526-0.05157 0.28209 0l2.7049 1.6067c0.05689 0.0338 0.07555 0.10714 0.04125 0.16377-0.01019 0.01681-0.02438 0.03082-0.04125 0.04086l-2.846 1.6905z" fill="#f2f2f2" stroke="#999" stroke-width=".066146"/>
 </g>
</svg>
