<svg id="svg6237" width="180" height="180" version="1.1" viewBox="0 0 47.625 47.625" xmlns="http://www.w3.org/2000/svg">
 <g id="layer1">
  <path id="edit" class="sprite" d="m6.6146 2.1167-0.52917 0.52917 1.0583 1.0583 0.52917-0.52917zm-0.79375 0.79375-2.9104 2.9104 1.0583 1.0583 2.9104-2.9104zm-2.9104 2.9104-0.79375 1.8521 1.8521-0.79375z" fill="#4d4d4d"/>
  <path id="delete" class="sprite" d="m13.758 2.1167v0.52917c-0.52917 0-1.0583 0-1.3229 0.52917v0.26458h3.7042v-0.26458c-0.26458-0.52917-0.79375-0.52917-1.3229-0.52917v-0.52917zm-1.3229 1.5875 0.79375 3.7042h2.1167l0.79375-3.7042z" fill="#4d4d4d"/>
  <g id="measure" class="sprite" transform="matrix(.26458 0 0 .26458 -11.112 -232.45)" fill="#4d4d4d">
   <path id="rect4452" d="m48 965.36h3v8h2v-8h2v5h1v-5h2v5h1v-5h2v5h1v-5h2v5h1v-5h2v8h2v-8h3v11h-24z"/>
   <text id="text4455" x="49.170559" y="964.36218" font-family="sans-serif" letter-spacing="0px" word-spacing="0px" style="line-height:0%" xml:space="preserve"><tspan id="tspan4457" x="49.170559" y="964.36218" fill="#4d4d4d" font-family="sans-serif" font-size="8px" font-weight="bold" style="line-height:1.25">0</tspan></text>
   <text id="text4459" x="65.048965" y="964.36218" font-family="sans-serif" letter-spacing="0px" word-spacing="0px" style="line-height:0%" xml:space="preserve"><tspan id="tspan4461" x="65.048965" y="964.36218" fill="#4d4d4d" font-family="sans-serif" font-size="8px" font-weight="bold" style="line-height:1.25">1</tspan></text>
  </g>
  <g id="copyleft" class="sprite" transform="matrix(.26458 0 0 .26458 1.5821 -226.06)">
   <circle id="circle3841" transform="matrix(.020408 0 0 .020408 74 934.36)" cx="490" cy="490" r="440" fill="none" stroke="#4d4d4d" stroke-width="100"/>
   <path id="path3843" d="m83.918 938.75c-2.6531 0-4.8775 1.8572-5.449 4.3469h2.6735c0.48979-1.0612 1.551-1.7959 2.7755-1.7959 1.6939 0 3.0612 1.3673 3.0612 3.0612 0 1.6938-1.3674 3.0612-3.0612 3.0612-1.2245 0-2.2857-0.73467-2.7755-1.7755h-2.6735c0.57142 2.4694 2.7959 4.3266 5.449 4.3266 3.102 0 5.6122-2.5102 5.6122-5.6122 0-3.1021-2.5102-5.6122-5.6122-5.6122z" fill="#4d4d4d"/>
  </g>
  <g id="markers" class="sprite" transform="matrix(.26458 0 0 .26458 14.287 -226.05)" fill="#4d4d4d">
   <path id="rect2985" d="m105.25 934.36c-3.1775 0-6.346 2.1278-7.2539 6.3794 0 2.551 1.8067 7.6679 7.2539 13.62 1.4637-1.5994 2.6694-3.1177 3.644-4.5613-1.4505-2.1639-2.415-4.0873-2.9628-5.7095-0.22599 0.041-0.44225 0.063-0.68112 0.063-2.0056 0-3.644-1.5346-3.644-3.413 0-1.8785 1.6384-3.3811 3.644-3.3811 0.51205 0 0.98854 0.076 1.4303 0.2552 0.64347-0.9222 1.4345-1.6571 2.3158-2.169-1.1444-0.7114-2.4463-1.0845-3.7461-1.0845z"/>
   <path id="path3378" d="m111 934.36c-3.0625 0-6.125 2.1277-7 6.383 0 2.5532 1.75 7.6596 7 13.617 5.25-5.9574 7-11.064 7-13.617-0.875-4.2553-3.9375-6.383-7-6.383zm0 2.9788c1.933 0 3.5 1.5241 3.5 3.4042s-1.567 3.4043-3.5 3.4043c-1.933 0-3.5-1.5242-3.5-3.4043s1.567-3.4042 3.5-3.4042z"/>
  </g>
  <g id="tilelayers" class="sprite" transform="matrix(.26458 0 0 .26458 20.638 -250.92)">
   <path id="rect7231" d="m12 957.36c-7.3731 6.5006-6.8763 2.8816-12 5v2l12 6 12-6v-2c-7.3847-0.182-5.2912-2.2182-12-5z" fill="#4d4d4d"/>
   <path id="rect7902" d="m-8.3439e-7 971.36 12 6 12-6v2l-12 6-12-6z" fill="#999"/>
   <path id="path7953" d="m-8.3439e-7 968.36 12 6 12-6v2l-12 6-12-6z" fill="#808080"/>
   <path id="path7955" d="m-8.3439e-7 965.36 12 6 12-6v2l-12 6-12-6z" fill="#666"/>
  </g>
  <path id="marker" class="sprite" d="m42.862 11.112c-0.92604 0-1.8521 0.66146-2.1167 1.9844 0 0.79375 0.52917 2.3812 2.1167 4.2333 1.5875-1.8521 2.1167-3.4396 2.1167-4.2333-0.26458-1.3229-1.1906-1.9844-2.1167-1.9844zm0 0.92604c0.5845 0 1.0583 0.47383 1.0583 1.0583 0 0.5845-0.47383 1.0583-1.0583 1.0583-0.5845 0-1.0583-0.47383-1.0583-1.0583 0-0.5845 0.47383-1.0583 1.0583-1.0583z" fill="#4d4d4d"/>
  <path id="polyline" class="sprite" d="m30.956 11.113v1.0583h1.0583v-0.22324l2.6458 1.0583v0.47129l-1.8769 2.927h-0.76894v1.0583h1.0583v-1.0253l1.8769-2.9435h0.76894v-1.0583h-1.0583v0.28112l-2.6458-1.0583v-0.5457h-0.92604zm0.26458 0.26458h0.52917v0.52917h-0.52917zm3.7042 1.3229h0.52917v0.52917h-0.52917zm-2.6458 3.9688h0.52917v0.52917h-0.52917z" fill="#4d4d4d" stroke-width=".26458"/>
  <path id="polygon" class="sprite" d="m21.696 11.906v1.0583h0.47956l-0.42168 3.7042h-0.58704v1.0583h1.0583v-0.55396l2.6458-0.1819v0.47128h1.0583v-1.0583h-0.43822l0.3638-2.1167h0.60358v-1.0583h-1.0583v0.34726l-2.6458-0.95083v-0.71935h-0.92604zm0.26458 0.26458h0.52917v0.52917h-0.52917zm3.7042 1.3229h0.52917v0.52917h-0.52917zm-0.52917 3.175h0.52917v0.52917h-0.52917zm-3.7042 0.26458h0.52917v0.52917h-0.52917z" fill="#4d4d4d" stroke-width=".26458"/>
  <g id="settings" class="sprite" transform="matrix(.064669 0 0 .064669 30.097 1.5356)" fill="#4d4d4d">
   <path id="path27812" d="m98.762 43.652c-0.186-1.386-1.481-2.582-2.876-2.659l-6.172-0.337c-1.395-0.076-2.899-1.224-3.341-2.55l-2.28-5.518c-0.629-1.249-0.379-3.121 0.553-4.161l4.122-4.6c0.933-1.042 0.962-2.77 0.066-3.842l-8.813-8.813c-1.073-0.897-2.803-0.867-3.845 0.065l-4.598 4.122c-1.039 0.934-2.915 1.182-4.161 0.551l-5.521-2.279c-1.324-0.442-2.472-1.945-2.549-3.34l-0.337-6.17c-0.077-1.396-1.272-2.691-2.659-2.878 0 0-3.252-0.44-6.248-0.44-2.991 0-6.243 0.44-6.243 0.44-1.386 0.188-2.582 1.483-2.658 2.878l-0.338 6.17c-0.076 1.396-1.224 2.898-2.551 3.34l-5.517 2.279c-1.249 0.631-3.122 0.382-4.161-0.551l-4.601-4.122c-1.042-0.932-2.769-0.962-3.842-0.065l-8.813 8.813c-0.897 1.073-0.867 2.801 0.066 3.842l4.122 4.6c0.933 1.041 1.182 2.913 0.551 4.161l-2.279 5.518c-0.442 1.326-1.946 2.474-3.34 2.55l-6.17 0.337c-1.396 0.077-2.691 1.272-2.879 2.659 0 0-0.439 3.253-0.439 6.243s0.44 6.24 0.44 6.24c0.188 1.389 1.483 2.582 2.879 2.659l6.169 0.339c1.396 0.075 2.898 1.225 3.341 2.549l2.278 5.517c0.631 1.248 0.381 3.122-0.551 4.163l-4.122 4.598c-0.933 1.042-0.963 2.771-0.066 3.845l8.814 8.813c1.073 0.896 2.801 0.866 3.842-0.066l4.6-4.122c1.041-0.932 2.913-1.182 4.161-0.553l5.517 2.28c1.327 0.441 2.475 1.946 2.55 3.343l0.338 6.168c0.076 1.395 1.272 2.692 2.658 2.88 0 0 3.252 0.439 6.244 0.439 2.996 0 6.25-0.439 6.25-0.439 1.385-0.188 2.58-1.485 2.657-2.88l0.337-6.168c0.077-1.396 1.225-2.901 2.551-3.343l5.517-2.28c1.248-0.629 3.122-0.379 4.163 0.553l4.598 4.122c1.042 0.933 2.771 0.964 3.843 0.067l8.815-8.814c0.896-1.073 0.866-2.803-0.066-3.845l-4.122-4.598c-0.932-1.041-1.182-2.915-0.553-4.163l2.28-5.517c0.441-1.324 1.946-2.474 3.341-2.549l6.172-0.339c1.395-0.077 2.692-1.271 2.876-2.659 0 0 0.441-3.25 0.441-6.24s-0.441-6.243-0.441-6.243zm-48.658 18.709c-6.886 0-12.468-5.585-12.468-12.467 0-6.885 5.582-12.467 12.468-12.467 6.89 0 12.475 5.582 12.475 12.467-1e-3 6.882-5.586 12.467-12.475 12.467z" fill="#4d4d4d"/>
  </g>
  <path id="import" class="sprite" d="m42.862 1.5875c-1.7535 0-3.175 1.4215-3.175 3.175 0 1.7535 1.4215 3.175 3.175 3.175 1.7535 0 3.175-1.4215 3.175-3.175 0-1.7535-1.4215-3.175-3.175-3.175zm0 1.3229 1.8521 1.8521h-1.3229v1.5875h-1.0583v-1.5875h-1.3229z" fill="#464646"/>
  <g id="set-zoom" class="sprite" transform="matrix(.26458 0 0 .26458 -.52917 -227.11)" fill="#4d4d4d">
   <polygon id="polygon3044" transform="matrix(.24 0 0 .24 8 900.36)" points="17.702 71.042 9.297 62.644 37.37 62.644 37.37 90.703 28.965 82.305 11.27 100 0 88.737"/>
   <polygon id="polygon3048" transform="matrix(.24 0 0 .24 8 900.36)" points="100 11.263 88.743 0 71.042 17.708 62.644 9.31 62.644 37.357 90.71 37.37 82.298 28.958"/>
   <path id="path3052" d="m20 909.43c-1.6188 0-2.9311 1.3126-2.9311 2.9311 0 1.6219 1.3126 2.9345 2.9311 2.9345 1.6188 0 2.9328-1.3126 2.9328-2.9345 0-1.6188-1.314-2.9311-2.9328-2.9311z"/>
  </g>
  <path id="permissions" class="sprite" d="m12.46 12.7c-0.89012-0.0021-1.6103 0.71168-1.6123 1.5875 2e-3 0.87776 0.72218 1.5861 1.6123 1.5875 0.59351-8.73e-4 1.1105-0.32112 1.3891-0.79375h0.65319l0.5209-0.50436 0.39688 0.38034 0.38034-0.37207 0.38861 0.38034 0.39688-0.38034 0.38861 0.38034 0.67799-0.65319c0.09761-0.09927 0.10002-0.17419 0-0.27285l-0.55397-0.5457h-3.2411c-0.27712-0.47713-0.79976-0.79498-1.3973-0.79375zm-0.7028 1.1576c0.23396-0.0011 0.4199 0.18746 0.42168 0.42168-0.0017 0.23096-0.18761 0.41954-0.42168 0.42168-0.23793-0.0024-0.43214-0.19072-0.42995-0.42168-0.0022-0.23422 0.19202-0.4228 0.42995-0.42168z" fill="#4d4d4d" stroke-width=".26458"/>
  <polygon id="home" class="sprite" transform="matrix(.0635 0 0 .0635 30.162 20.902)" points="87.5 50 100 50 50 0 0 50 12.5 50 12.5 87.5 43.75 87.5 43.75 62.5 56.25 62.5 56.25 87.5 87.5 87.5" fill="#4d4d4d"/>
  <path id="geolocation" class="sprite" d="m7.9375 33.338c0-0.11924-0.0078-0.23671-0.02082-0.35278h-0.35666c-0.1591-1.276-1.1688-2.2856-2.4448-2.4451v-0.35631c-0.11606-0.01304-0.23354-0.02082-0.35278-0.02082s-0.23671 0.0078-0.35278 0.02082v0.35666c-1.276 0.1591-2.2856 1.1688-2.4451 2.4448h-0.3563c-0.01305 0.11606-0.02081 0.23354-0.02081 0.35278 0 0.11924 0.0078 0.23671 0.02081 0.35278h0.35666c0.1591 1.276 1.1688 2.2857 2.4448 2.4451v0.35666c0.11606 0.0127 0.23354 0.02037 0.35278 0.02037s0.23671-0.0077 0.35278-0.0209v-0.35666c1.2756-0.15944 2.2856-1.1688 2.4451-2.4448h0.35666c0.0127-0.11571 0.02046-0.23319 0.02046-0.35278zm-2.8222 2.0849v-0.32104c0-0.19508-0.15804-0.35278-0.35278-0.35278-0.19473 0-0.35278 0.15769-0.35278 0.35278v0.32104c-0.88547-0.14888-1.5829-0.84597-1.7318-1.7318l0.32068-2.65e-4c0.19509 0 0.35278-0.15805 0.35278-0.35278s-0.15769-0.35278-0.35278-0.35278h-0.32103c0.14922-0.88547 0.84667-1.5829 1.7321-1.7321v0.32103c0 0.19473 0.15804 0.35278 0.35278 0.35278 0.19473 0 0.35278-0.15804 0.35278-0.35278v-0.32103c0.88582 0.14887 1.5833 0.84632 1.7321 1.7321h-0.32103c-0.19509 0-0.35278 0.15804-0.35278 0.35278s0.15769 0.35278 0.35278 0.35278l0.32103 2.65e-4c-0.14922 0.88582-0.84631 1.5829-1.7321 1.7318z" fill="#4d4d4d" stroke-width=".26458"/>
  <g id="share" class="sprite" transform="matrix(.26458 0 0 .26458 -2.6458 -229.23)">
   <circle id="path4309" cx="100" cy="992.36" r="11" fill="none" stroke="#464646" stroke-width="2"/>
   <circle id="path4819" transform="rotate(248.18)" cx="-963.89" cy="-276.04" r="2.5" fill="#464646"/>
   <circle id="path4819-2" transform="rotate(248.18)" cx="-956.38" cy="-281.16" r="2.5" fill="#464646"/>
   <circle id="path4819-0" transform="rotate(248.18)" cx="-954.66" cy="-272.06" r="2.5" fill="#464646"/>
   <path id="path4850" d="m102.39 987.48-8.0191 4.9199 8.1393 5.3224" fill="none" stroke="#464646" stroke-width="2"/>
  </g>
  <path id="search" class="sprite" d="m17.462 35.668-1.7031-1.7035c0.22923-0.37814 0.36356-0.8213 0.36356-1.296 0-1.3847-1.1206-2.506-2.5052-2.5064-1.3837 5.29e-4 -2.5052 1.1218-2.5052 2.5062 0 1.3835 1.1218 2.5048 2.506 2.5048 0.47495 0 0.91739-0.13434 1.2955-0.36356l1.704 1.704zm-5.3941-2.9998c0.0014-0.8562 0.6939-1.5487 1.5499-1.5501 0.85572 0.0019 1.5484 0.6939 1.5499 1.5501-0.0017 0.85548-0.69414 1.5484-1.5499 1.5496-0.8562 0-1.5487-0.69414-1.5499-1.5496z" fill="#4d4d4d" stroke-width=".26458"/>
  <g id="openstreetmap" transform="translate(-3.7042 -3.7042)" fill="#4d4d4d">
   <g id="g4200" transform="matrix(.0408 0 0 .041571 32.959 32.885)" stroke-width=".99068">
    <path id="path4189" d="m128.97 25.031c-12.522-0.0027-25.046 4.6458-34.594 13.938-17.126 16.669-17.72 44.252-4.125 62.844l-13.219 12.438c0.14747 0.11709 9 8.5625 9 8.5625l12.5-12.25c21.414 14.981 47.905 12.419 65.031-4.25 19.095-18.585 19.095-48.759 0-67.344-9.5477-9.2926-22.071-13.935-34.594-13.938zm0 7.9375c10.435 0.0027 20.856 3.8802 28.812 11.625 15.913 15.488 15.944 40.637 0.0312 56.125-15.913 15.488-41.775 15.488-57.688 0-15.913-15.488-15.913-40.637 0-56.125 7.9564-7.7438 18.409-11.628 28.844-11.625z"/>
    <path id="path4169" d="m63.879 116.06-39.219 37.938c-3.224 3.1202-3.2152 8.1832 0 11.312l8.9688 8.7188c3.2152 3.1293 8.3698 3.1202 11.594 0l39.219-37.938c3.224-3.1202 3.2152-8.1832 0-11.312l-8.9688-8.7188c-3.4839-3.074-8.5754-2.8337-11.594 0z"/>
   </g>
   <path id="path5801" d="m36.287 38.821c-0.45737 0.45258-0.51256 0.50483-0.93876 0.93452l1.3111-0.30964c0.03951-0.17777 0.08574-0.39794 0.09827-0.44962-0.20697-7e-3 -0.32498-0.0729-0.47056-0.17526zm1.4165-0.51574c-0.04859 0.57856-0.30047 0.62169-0.77774 0.69763-0.034 0.15229-0.05699 0.25818-0.0969 0.43779l1.224 0.30398c0.16421-0.70158 0.29613-1.2699 0.29325-1.2731-0.0043-0.0046-0.32763-0.08748-0.6426-0.16631zm-0.58777-0.14159c-0.0016 0.0027-0.06999 0.30471-0.1581 0.6989 0.55906-0.08996 0.57597-0.27099 0.59287-0.59497-0.2294-0.05691-0.43229-0.10608-0.43477-0.10392zm-0.16448-0.0092c-0.13598 0.01159-0.20407 0.02561-0.35317 0.06753 0.04792 0.09125 0.07023 0.27883-0.20004 0.49792 0.14156 0.08791 0.26526 0.12201 0.39001 0.13735 0.11436-0.5324 0.17296-0.61535 0.1632-0.70284zm-2.6775-0.0065-0.23715 0.94314 0.8058-0.79894c-0.18084-0.04602-0.34599-0.08797-0.56865-0.1442zm5.6125-0.03249c-0.75018 0.19483-1.3621 0.35585-1.3642 0.35855-0.0019 0.0027-0.13728 0.57465-0.30345 1.2809l1.3375-0.33256zm-2.1828-0.19747v0.21176c0.2765 0.0699 0.56006 0.13964 0.61837 0.14029 0 0-0.03096-0.12652-0.06757-0.2832h-0.0026c-0.23872 0.0062-0.32188-0.0081-0.54825-0.06885zm-0.67957-0.31568-0.0026 0.0027 0.09817 0.38583c0.02307-0.0027 0.215 0.04675 0.43095 0.10131 2.4e-5 -0.0864 1.64e-4 -0.15711 0.0013-0.21952-0.18513-0.06365-0.36302-0.15391-0.52785-0.27023zm-2.8662-0.12471 0.13133 0.50016s0.36398 0.08961 0.69742 0.17148l0.03825-0.03769c-0.49456-0.17868-0.50142-0.55268-0.867-0.63396zm5.5794-0.11172c-0.49436 0.4184-0.75886 0.52502-1.3145 0.61446 0.03396 0.13897 0.06369 0.25816 0.07268 0.28581 0.0076 0.02345 0.46733-0.08354 1.3885-0.32089zm-3.2079-0.25462c-0.06109-0.08511-0.11524-0.17367-0.16192-0.26503-0.35986 0.0798-0.95298 0.22249-0.97027 0.23775-0.0073 0.0065 0.04546 0.24465 0.11857 0.54044 0.17884-0.16801 0.38427-0.13773 0.52049-0.04456m0.50728 0.49614c0.125-0.04259 0.29706-0.07581 0.40659-0.08915-0.01373-0.10039-0.0232-0.16366-0.06247-0.26762m-2.9108-0.98342 0.13133 0.52874c0.66252 0.256 0.71188 0.76848 1.0672 0.69763l0.22822-0.22605c-0.07081-0.29894-0.15348-0.61368-0.1734-0.63396-0.0046-0.0046-1.2533-0.36637-1.2533-0.36637zm2.1866-1.1406-0.4437 0.11172c-0.09333 0.39866-0.21902 0.89726-0.29452 1.1926 0.36387-0.10263 0.46268-0.12417 0.8721-0.20785-0.14371-0.34911-0.18889-0.72844-0.13387-1.0964zm-1.8742-0.28581-0.31365 1.2497c0.48303 0.13938 0.76356 0.21858 1.252 0.33515 0.10314-0.32458 0.21945-0.68316 0.30345-1.1978-0.32576-0.10325-0.52105-0.16679-1.2418-0.38712zm2.3511-1.4147-1.2202 0.30269c0.17212 0.76144 0.29818 1.3051 0.306 1.3134 0.0075 0.0078 0.22525-0.03952 0.47302-0.09743 0.11655-0.47002 0.21792-0.6329 0.56355-0.98989-0.03709-0.16213-0.07823-0.3396-0.1224-0.52874zm0.1632-0.01698c0.05038 0.21499 0.05503 0.2305 0.09945 0.41961 0.14044-0.11506 0.29321-0.20863 0.45262-0.2819zm-2.8522 0 0.31875 1.2497c0.7 0.21006 1.2587 0.37524 1.2622 0.37154 0.0038-4e-3 -0.12334-0.58605-0.28305-1.3095zm5.6049-0.01159-0.49342 0.1221c0.22714 0.09573 0.44034 0.23324 0.62857 0.41182zm-2.7174 2.3343c0.10949 0.68124 0.84234 1.1934 1.6065 1.1085 0.28504-0.6862 0.48458-0.65293 0.59454-1.3403 0.0044-0.61101-0.78411-0.23411-1.1425-0.2147-0.61562-0.01995-0.58498-0.75842-0.65178-0.86766-0.19007 0.14237-0.52182 0.58737-0.40673 1.3141zm0.70296-1.5496c0.20064 0.64566 0.24369 0.86631 0.88357 0.61317 0.48132-0.14218 0.86499 0.05125 0.9273 0.28328 0.10209 0.34596-0.06402 0.85291-0.5091 1.642 0.69715-0.37944 0.91768-1.2092 0.66726-1.846-0.34115-0.72645-1.1354-1.0878-1.969-0.69246z"/>
  </g>
  <g id="delete-marker" class="sprite" transform="matrix(.26458 0 0 .26458 -4.9137 -228.13)" fill="#4d4d4d">
   <path id="path3378-6" d="m178.57 979.22c-3.0625 0-6.125 2.1197-7 6.375 0 2.5532 1.75 7.6676 7 13.625 3.4166-3.877 5.3157-7.3755 6.25-10.062-1.3142-0.1622-2.497-0.7235-3.4062-1.5938-0.63462 0.8653-1.6677 1.4375-2.8438 1.4375-1.933 0-3.5-1.5261-3.5-3.4062s1.567-3.4063 3.5-3.4063c0.36776 0 0.72951 0.085 1.0625 0.1875 0.14352-1.0312 0.55799-1.956 1.1562-2.75-0.72276-0.259-1.4631-0.4062-2.2188-0.4062z"/>
   <path id="path6764" d="m185.57 978.22c-2.7614 0-5 2.2386-5 5 0 2.7615 2.2386 5 5 5s5-2.2385 5-5c0-2.7614-2.2386-5-5-5zm-1.8182 2.2727 1.8182 1.8182 1.8182-1.8182 0.90909 0.9091-1.8182 1.8182 1.8182 1.8182-0.90909 0.9091-1.8182-1.8182-1.8182 1.8182-0.90909-0.9091 1.8182-1.8182-1.8182-1.8182z"/>
  </g>
  <g id="multipolygon" class="sprite" transform="matrix(.26458 0 0 .26458 -.57878 -230.28)" fill="#4d4d4d">
   <path id="rect4058-1-2" d="m10.188 1017.4v0.5 3 0.5h0.5 1.3125l-1.5938 14h-1.7188-0.5v0.5 3 0.5h0.5 3 0.5v-0.5-1.5938s13.717-10.906 13.719-10.906h1.7812 0.5v-0.5-3-0.5h-0.5-3-0.5v0.5 0.8125l-10-3.5938v-2.2187-0.5h-0.5-3zm1 1h2v2h-2zm14 5h2v2h-2zm-16 13h2v2h-2z" color="#000000" style="text-decoration-line:none;text-indent:0;text-transform:none"/>
   <path id="rect4058-1-2-0" d="m18 1043.4h-3.5-0.5v0.5 3 0.5h0.5 3 0.5v-0.5-1.5937l10-0.6875v1.2812 0.5h0.5 3 0.5v-0.5-3-0.5h-0.5-1.1562l-2.4375-8h1.7812 0.5v-0.5-3-0.5h-0.5-3-0.6875v3s-7.8125 10-8 10zm9.1875-12h2v2h-2zm1.8125 12h2v2h-2zm-14 1h2v2h-2z" color="#000000" style="text-decoration-line:none;text-indent:0;text-transform:none"/>
  </g>
  <g id="multiline" class="sprite" transform="matrix(.26458 0 0 .26458 -1.5875 -230.81)" fill="#4d4d4d">
   <path id="rect4058-9" d="m51 1020.4v0.5 3 0.5h0.5 3 0.5v-0.5-0.3438l10 4v1.3438 0.4375l1.0938 0.062h2.4062 0.5v-0.5-3-0.5h-0.5-3-0.5v0.5 0.5625l-10-4v-1.5625-0.5h-0.5-3zm1 1h2v2h-2zm14 5h2v2h-2z" color="#000000" style="text-decoration-line:none;text-indent:0;text-transform:none"/>
   <path id="rect4058-9-5" d="m55.094 1030.5v1.3438 0.4375l7.0938 11.062h2.4062 0.5v0.5 3 0.5h-0.5-3-0.5v-0.5-3-0.375l-7.0938-11.125h-2.4062-0.5v-0.5-3-0.5h0.5 3 0.5v0.5 0.5625zm-1-1.1562h-2v2h2zm10 15h-2v2h2z" color="#000000" style="text-decoration-line:none;text-indent:0;text-transform:none"/>
  </g>
  <g id="geolocation-active" class="sprite" transform="matrix(.26458 0 0 .26458 -2.6458 -230.28)">
   <path id="path4611-6" d="m112 1032.4c0-0.4507-0.0293-0.8947-0.0787-1.3334h-1.348c-0.60133-4.8226-4.4173-8.6387-9.24-9.2413v-1.3467c-0.43867-0.049-0.88267-0.079-1.3333-0.079-0.45067 0-0.89467 0.029-1.3333 0.079v1.348c-4.8227 0.6013-8.6387 4.4174-9.2413 9.24h-1.3467c-0.04933 0.4387-0.07867 0.8827-0.07867 1.3334 0 0.4506 0.02933 0.8946 0.07867 1.3333h1.348c0.60133 4.8227 4.4173 8.6387 9.24 9.2414v1.348c0.43867 0.048 0.88267 0.077 1.3333 0.077 0.45066 0 0.89466-0.029 1.3333-0.079v-1.348c4.8213-0.6026 8.6387-4.4173 9.2413-9.24h1.348c0.048-0.4373 0.0773-0.8813 0.0773-1.3333zm-10.667 7.88v-1.2134c0-0.7373-0.59733-1.3333-1.3333-1.3333-0.736 0-1.3333 0.596-1.3333 1.3333v1.2134c-3.3467-0.5627-5.9827-3.1974-6.5453-6.5454h1.212c0.73733 0 1.3333-0.5973 1.3333-1.3333s-0.596-1.3333-1.3333-1.3333h-1.2133c0.564-3.3467 3.2-5.9827 6.5467-6.5467v1.2133c0 0.736 0.59733 1.3334 1.3333 1.3334 0.736 0 1.3333-0.5974 1.3333-1.3334v-1.2133c3.348 0.5627 5.984 3.1987 6.5467 6.5467h-1.2133c-0.73733 0-1.3333 0.5973-1.3333 1.3333s0.596 1.3333 1.3333 1.3333h1.2133c-0.564 3.348-3.1987 5.9827-6.5467 6.5454z" fill="#4d4d4d"/>
   <circle id="path4819-7" transform="rotate(248.18)" cx="-995.56" cy="-290.92" r="2.5" fill="#464646"/>
  </g>
  <path id="star" class="sprite" d="m31.537 45.772 0.57736-2.1849-1.6874-1.3499h2.155l0.75644-2.2846 0.7545 2.2842h2.1549l-1.6887 1.3511 0.57537 2.1855-1.7982-1.2524z" fill="#464646"/>
  <path id="starred" class="sprite" d="m40.742 45.772 0.57736-2.1849-1.6874-1.3499h2.155l0.75644-2.2846 0.7545 2.2842h2.1549l-1.6887 1.3511 0.57537 2.1855-1.7982-1.2524z" fill="none" stroke="#464646" stroke-linecap="square" stroke-linejoin="round" stroke-width=".26458"/>
  <g id="datalayers" class="sprite" transform="translate(-1.0583 -2.6458)" fill="#4d4d4d" stroke-width="9.9567">
   <ellipse id="ellipse5941" cx="15.359" cy="24.051" rx="2.659" ry=".76721"/>
   <path id="path5943" d="m15.359 26.286c-1.4688 0-2.659-0.34343-2.659-0.76738 0-0.0044 2e-3 -0.0086 0.0023-0.01298h-0.0025v0.99217h0.0023c0.02464 0.41767 1.2033 0.75407 2.6567 0.75407 1.4531 0 2.6321-0.3364 2.6567-0.75407h0.0023v-0.9782c-0.0017 0.42354-1.1916 0.76638-2.6589 0.76638z"/>
   <path id="path5945" d="m18.018 25.518v-0.01207h-0.0021c3.31e-4 0.0041 0.0021 0.0081 0.0021 0.01207z"/>
   <path id="path5947" d="m15.359 27.477c-1.4688 0-2.659-0.34351-2.659-0.76738 0-0.0044 2e-3 -0.0086 0.0023-0.01298h-0.0025v0.99217h0.0023c0.02464 0.41775 1.2033 0.75407 2.6567 0.75407 1.4531 0 2.6321-0.33632 2.6567-0.75407h0.0023v-0.97828c-0.0017 0.42354-1.1916 0.76647-2.6589 0.76647z"/>
   <path id="path5949" d="m18.018 26.709v-0.01207h-0.0021c3.31e-4 4e-3 0.0021 0.0081 0.0021 0.01207z"/>
   <path id="path5951" d="m15.359 28.667c-1.4688 0-2.659-0.34343-2.659-0.76738 0-0.0044 2e-3 -0.0086 0.0023-0.01298h-0.0025v0.99217h0.0023c0.02464 0.41767 1.2033 0.75407 2.6567 0.75407 1.4531 0 2.6321-0.3364 2.6567-0.75407h0.0023v-0.9782c-0.0017 0.42354-1.1916 0.76638-2.6589 0.76638z"/>
   <path id="path5953" d="m18.018 27.899v-0.01207h-0.0021c3.31e-4 0.0041 0.0021 8e-3 0.0021 0.01207z"/>
   <path id="path5955" d="m15.359 25.069c-1.4688 0-2.659-0.34343-2.659-0.76729 0-0.0047 2e-3 -0.0087 0.0023-0.01331h-0.0025v0.99208h0.0023c0.02464 0.41767 1.2033 0.7544 2.6567 0.7544 1.4531 0 2.6321-0.33673 2.6567-0.7544h0.0023v-0.97786c-0.0017 0.42321-1.1916 0.76638-2.6589 0.76638z"/>
   <path id="path5957" d="m18.018 24.301v-0.01232h-0.0021c3.31e-4 0.0042 0.0021 0.0083 0.0021 0.01232z"/>
  </g>
 </g>
</svg>
