<svg fill="none" xmlns="http://www.w3.org/2000/svg" viewBox="0 0 18 20">
  <mask id="a" maskUnits="userSpaceOnUse" x="0" y=".072" width="18" height="20" fill="#000">
    <path fill="#fff" d="M0 .072h18v20H0z"/>
    <path fill-rule="evenodd" clip-rule="evenodd" d="M7.708 2.473a2.5 2.5 0 0 1 2.717 0l4.566 2.955a2.5 2.5 0 0 1 1.142 2.1v4.824a2.5 2.5 0 0 1-1.058 2.043l-4.567 3.223a2.5 2.5 0 0 1-2.883 0l-4.567-3.223A2.5 2.5 0 0 1 2 12.352V7.527a2.5 2.5 0 0 1 1.142-2.099l4.566-2.955Zm3.26-.84a3.5 3.5 0 0 0-3.803 0L2.6 4.59A3.5 3.5 0 0 0 1 7.527v4.825a3.5 3.5 0 0 0 1.482 2.86l4.566 3.223a3.5 3.5 0 0 0 4.037 0l4.566-3.223a3.5 3.5 0 0 0 1.482-2.86V7.527a3.5 3.5 0 0 0-1.598-2.938l-4.567-2.955Zm-2.995 9.735h1.919l.3-6.567h-2.52l.3 6.567Zm2.324 2.714a1.357 1.357 0 1 0-2.713.014 1.357 1.357 0 0 0 2.713-.014Z"/>
  </mask>
  <path fill-rule="evenodd" clip-rule="evenodd" d="M7.708 2.473a2.5 2.5 0 0 1 2.717 0l4.566 2.955a2.5 2.5 0 0 1 1.142 2.1v4.824a2.5 2.5 0 0 1-1.058 2.043l-4.567 3.223a2.5 2.5 0 0 1-2.883 0l-4.567-3.223A2.5 2.5 0 0 1 2 12.352V7.527a2.5 2.5 0 0 1 1.142-2.099l4.566-2.955Zm3.26-.84a3.5 3.5 0 0 0-3.803 0L2.6 4.59A3.5 3.5 0 0 0 1 7.527v4.825a3.5 3.5 0 0 0 1.482 2.86l4.566 3.223a3.5 3.5 0 0 0 4.037 0l4.566-3.223a3.5 3.5 0 0 0 1.482-2.86V7.527a3.5 3.5 0 0 0-1.598-2.938l-4.567-2.955Zm-2.995 9.735h1.919l.3-6.567h-2.52l.3 6.567Zm2.324 2.714a1.357 1.357 0 1 0-2.713.014 1.357 1.357 0 0 0 2.713-.014Z" fill="#fff"/>
  <path d="m10.425 2.473.157-.243-.157.243Zm-2.717 0-.157-.243.157.243Zm7.283 2.955-.157.244.157-.244Zm.084 8.967.167.237-.167-.237Zm-4.567 3.223-.167-.237.167.237Zm-2.883 0 .167-.237-.167.237Zm-4.567-3.223-.167.237.167-.237Zm.084-8.967.157.244-.157-.244Zm4.023-3.794-.157-.244.157.244Zm3.803 0 .158-.244-.158.244Zm-8.37 2.955-.157-.244.158.244Zm-.116 10.623-.168.236.168-.236Zm4.566 3.223-.167.237.167-.237Zm4.037 0-.167-.237.167.237Zm4.566-3.223.168.236-.168-.236Zm-.117-10.623-.157.243.157-.243Zm-5.642 6.779v.29h.277l.013-.277-.29-.013Zm-1.92 0-.289.013.013.277h.277v-.29Zm2.22-6.567.29.013.013-.303h-.303v.29Zm-2.52 0v-.29H7.37l.014.303.29-.013Zm2.91-2.571a2.79 2.79 0 0 0-3.031 0l.315.487a2.21 2.21 0 0 1 2.401 0l.315-.487Zm4.567 2.955L10.582 2.23l-.315.487 4.567 2.955.315-.487Zm1.274 2.342a2.79 2.79 0 0 0-1.274-2.342l-.315.487a2.21 2.21 0 0 1 1.01 1.855h.58Zm0 4.825V7.527h-.58v4.825h.58Zm-1.18 2.28a2.79 2.79 0 0 0 1.18-2.28h-.58a2.21 2.21 0 0 1-.935 1.806l.334.474Zm-4.568 3.223 4.567-3.223-.334-.474-4.567 3.223.335.474Zm-3.217 0a2.79 2.79 0 0 0 3.217 0l-.334-.474a2.21 2.21 0 0 1-2.549 0l-.334.474ZM2.89 14.632l4.567 3.223.334-.474-4.566-3.223-.335.474Zm-1.181-2.28c0 .907.44 1.757 1.181 2.28l.335-.474a2.21 2.21 0 0 1-.936-1.806h-.58Zm0-4.825v4.825h.58V7.527h-.58Zm1.274-2.342A2.79 2.79 0 0 0 1.71 7.527h.58c0-.75.38-1.448 1.01-1.855l-.316-.487ZM7.551 2.23 2.984 5.185l.315.487 4.567-2.955-.315-.487Zm-.228-.353a3.21 3.21 0 0 1 3.487 0l.316-.487a3.79 3.79 0 0 0-4.118 0l.315.487ZM2.756 4.832l4.567-2.955-.315-.487L2.44 4.345l.315.487ZM1.29 7.527a3.21 3.21 0 0 1 1.466-2.695l-.315-.487A3.79 3.79 0 0 0 .71 7.527h.58Zm0 4.825V7.527H.71v4.825h.58Zm1.359 2.623a3.21 3.21 0 0 1-1.359-2.623H.71a3.79 3.79 0 0 0 1.604 3.096l.335-.473Zm4.566 3.223L2.65 14.975l-.335.473 4.567 3.224.334-.474Zm3.703 0a3.21 3.21 0 0 1-3.703 0l-.334.474a3.79 3.79 0 0 0 4.371 0l-.334-.474Zm4.566-3.223-4.566 3.223.334.474 4.567-3.224-.335-.473Zm1.36-2.623a3.21 3.21 0 0 1-1.36 2.623l.335.473a3.79 3.79 0 0 0 1.604-3.096h-.58Zm0-4.825v4.825h.58V7.527h-.58Zm-1.467-2.695a3.21 3.21 0 0 1 1.466 2.695h.58a3.79 3.79 0 0 0-1.731-3.182l-.315.487ZM10.81 1.877l4.567 2.955.315-.487-4.566-2.955-.316.487Zm-.918 9.2h-1.92v.58h1.92v-.58Zm.01-6.29-.3 6.568.58.026.3-6.567-.58-.026Zm-2.23.304h2.52v-.58h-2.52v.58Zm.59 6.264-.3-6.567-.579.026.3 6.567.58-.026Zm.67 1.667c.605 0 1.075.485 1.075 1.06h.58c0-.895-.73-1.64-1.655-1.64v.58Zm-1.06 1.06c0-.577.473-1.06 1.06-1.06v-.58c-.912 0-1.64.747-1.64 1.64h.58Zm1.06 1.074c-.585 0-1.06-.48-1.06-1.074h-.58c0 .905.726 1.654 1.64 1.654v-.58Zm1.075-1.074a1.07 1.07 0 0 1-1.075 1.074v.58a1.65 1.65 0 0 0 1.655-1.654h-.58Z" fill="#959595" mask="url(#a)"/>
</svg>
