<svg fill="none" xmlns="http://www.w3.org/2000/svg" viewBox="0 0 20 20">
  <path d="M10.1463 7.28808c.9471 0 1.7149-.76781 1.7149-1.71495s-.7678-1.71495-1.7149-1.71495c-.94719 0-1.715.76781-1.715 1.71495s.76781 1.71495 1.715 1.71495ZM9.00296 9.00308h2.28664v6.85982H9.00296V9.00308Z" fill="#98CDFF" stroke="#959595" stroke-width=".285824"/>
  <path d="M10.1465 1C5.10181 1 1 5.10195 1 10.1465c0 5.0447 4.10192 9.1465 9.1465 9.1465 5.0446 0 9.1465-4.1019 9.1465-9.1465C19.293 5.10183 15.1911 1 10.1465 1Zm0 1.14365c4.4267 0 8.003 3.57616 8.003 8.00305 0 4.4267-3.5762 8.0029-8.003 8.0029-4.42686 0-8.00298-3.5762-8.00298-8.0029 0-4.42678 3.57612-8.00305 8.00298-8.00305Z" fill="#98CDFF" stroke="#959595" stroke-width=".285824"/>
</svg>
