<?xml version="1.0" encoding="UTF-8" standalone="no"?>
<!-- Created with Inkscape (http://www.inkscape.org/) -->

<svg
   xmlns:dc="http://purl.org/dc/elements/1.1/"
   xmlns:cc="http://creativecommons.org/ns#"
   xmlns:rdf="http://www.w3.org/1999/02/22-rdf-syntax-ns#"
   xmlns:svg="http://www.w3.org/2000/svg"
   xmlns="http://www.w3.org/2000/svg"
   xmlns:sodipodi="http://sodipodi.sourceforge.net/DTD/sodipodi-0.dtd"
   xmlns:inkscape="http://www.inkscape.org/namespaces/inkscape"
   width="128"
   height="128"
   id="svg2"
   version="1.1"
   inkscape:version="0.48.4 r9939"
   sodipodi:docname="New document 1">
  <defs
     id="defs4" />
  <sodipodi:namedview
     id="base"
     pagecolor="#ffffff"
     bordercolor="#666666"
     borderopacity="1.0"
     inkscape:pageopacity="0.0"
     inkscape:pageshadow="2"
     inkscape:zoom="3.2979902"
     inkscape:cx="81.641625"
     inkscape:cy="62.961132"
     inkscape:document-units="px"
     inkscape:current-layer="layer1"
     showgrid="true"
     inkscape:snap-page="false"
     inkscape:window-width="1366"
     inkscape:window-height="744"
     inkscape:window-x="0"
     inkscape:window-y="24"
     inkscape:window-maximized="1">
    <inkscape:grid
       type="xygrid"
       id="grid2985"
       empspacing="5"
       visible="true"
       enabled="true"
       snapvisiblegridlinesonly="true" />
  </sodipodi:namedview>
  <metadata
     id="metadata7">
    <rdf:RDF>
      <cc:Work
         rdf:about="">
        <dc:format>image/svg+xml</dc:format>
        <dc:type
           rdf:resource="http://purl.org/dc/dcmitype/StillImage" />
        <dc:title></dc:title>
      </cc:Work>
    </rdf:RDF>
  </metadata>
  <g
     inkscape:label="Layer 1"
     inkscape:groupmode="layer"
     id="layer1"
     transform="translate(0,-924.36218)">
    <path
       sodipodi:type="arc"
       style="opacity:1;fill:#2e364f;fill-opacity:0.94117647000000004;fill-rule:nonzero;stroke:none"
       id="path2987"
       sodipodi:cx="60"
       sodipodi:cy="58"
       sodipodi:rx="40"
       sodipodi:ry="40"
       d="m 100,58 a 40,40 0 1 1 -80,0 40,40 0 1 1 80,0 z"
       transform="matrix(1.6,0,0,1.6,-32,895.56218)" />
    <g
       id="g4200"
       inkscape:export-filename="/home/ybon/Work/osmtouch64.png"
       inkscape:export-xdpi="28.799999"
       inkscape:export-ydpi="28.799999"
       transform="matrix(0.60642479,0,0,0.60642479,5.3287374,929.56145)">
      <path
         inkscape:connector-curvature="0"
         id="path4189"
         d="M 128.96875,25.03125 C 116.4464,25.02855 103.92273,29.677098 94.375,38.96875 77.24854,55.63759 76.65542,83.22095 90.25,101.8125 L 77.03125,114.25 c 0.14747,0.11709 9,8.5625 9,8.5625 l 12.5,-12.25 c 21.41449,14.9813 47.90478,12.41882 65.03125,-4.25 19.09544,-18.58519 19.09526,-48.75856 0,-67.34375 -9.54772,-9.292593 -22.0714,-13.93479 -34.59375,-13.9375 z m 0,7.9375 c 10.43487,0.0027 20.85607,3.880217 28.8125,11.625 15.91286,15.48761 15.94433,40.63733 0.0312,56.125 -15.91287,15.48766 -41.77464,15.48761 -57.6875,0 -15.912892,-15.48767 -15.912892,-40.63734 0,-56.125 7.95643,-7.743803 18.40888,-11.627705 28.84375,-11.625 z"
         style="fill:#ffffff;fill-opacity:1;stroke:none" />
      <path
         inkscape:connector-curvature="0"
         id="path4169"
         d="m 63.879368,116.05569 -39.21875,37.9375 c -3.223956,3.12021 -3.215175,8.18323 0,11.3125 l 8.96875,8.71875 c 3.215174,3.12926 8.369796,3.12021 11.59375,0 l 39.21875,-37.9375 c 3.22396,-3.12021 3.21518,-8.18324 0,-11.3125 l -8.96875,-8.71875 c -3.48388,-3.074 -8.57545,-2.83371 -11.59375,0 z"
         style="fill:#ffffff;fill-opacity:1;stroke:none" />
    </g>
    <path
       inkscape:connector-curvature="0"
       id="path5801"
       style="fill:#79c1c0;fill-opacity:1;stroke:none"
       d="m 54.792908,1016.1624 c -6.798028,6.6019 -7.618387,7.364 -13.953155,13.632 l 19.486782,-4.5168 c 0.587298,-2.5931 1.27437,-5.8049 1.460555,-6.5588 -3.076247,-0.1035 -4.830276,-1.0633 -6.994182,-2.5564 z m 21.054318,-7.5235 c -0.722228,8.4396 -4.466039,9.0687 -11.55998,10.1766 -0.505412,2.2217 -0.84709,3.7663 -1.440258,6.3864 l 18.192751,4.4345 c 2.440696,-10.2344 4.401531,-18.5258 4.358675,-18.5718 -0.06399,-0.068 -4.869722,-1.2759 -9.551188,-2.4257 z m -8.736307,-2.0656 c -0.02378,0.02 -1.040316,4.4451 -2.349904,10.1955 8.309635,-1.3126 8.560937,-3.9534 8.812119,-8.6794 -3.409721,-0.8301 -6.42529,-1.5475 -6.462215,-1.5161 z m -2.444657,-0.1327 c -2.021117,0.1713 -3.033246,0.3752 -5.249365,0.9854 0.712289,1.3313 1.043894,4.0673 -2.973203,7.2635 2.104112,1.2824 3.942689,1.7797 5.796869,2.0034 1.699724,-7.7661 2.570785,-8.9764 2.425699,-10.2523 z m -39.796627,-0.095 -3.524844,13.7583 11.976889,-11.6548 c -2.687913,-0.6713 -5.142596,-1.2832 -8.452045,-2.1035 z m 83.421305,-0.4739 c -11.150202,2.8425 -20.244948,5.1913 -20.277319,5.2305 -0.02856,0.035 -2.040498,8.3826 -4.510282,18.6855 l 19.879361,-4.8514 z m -32.443714,-2.8804 0,3.089 c 4.109784,1.0199 8.324463,2.037 9.191123,2.0467 0,0 -0.460137,-1.8459 -1.004391,-4.1313 -0.01262,0 -0.02528,-1e-4 -0.0379,0 -3.548212,0.089 -4.784276,-0.1176 -8.14883,-1.0044 z m -10.100767,-4.60508 -0.0379,0.038 1.459212,5.62838 c 0.342945,-0.034 3.195587,0.682 6.405363,1.4782 3.51e-4,-1.2606 0.0024,-2.2922 0.01892,-3.2027 -2.751719,-0.9285 -5.395803,-2.2448 -7.845624,-3.94168 z m -42.601345,-1.8192 1.951931,7.29598 c 0,0 5.409945,1.3072 10.366074,2.5015 l 0.568522,-0.5495 c -7.350833,-2.6069 -7.452837,-8.06248 -12.886527,-9.24798 z m 82.928596,-1.62978 c -7.347858,6.10356 -11.279357,7.65866 -19.538249,8.96366 0.504745,2.0271 0.946683,3.7658 1.080194,4.1691 0.112746,0.3408 6.94611,-1.2185 20.637395,-4.6808 z m -47.680154,-3.71441 c -0.907958,-1.24173 -1.712835,-2.53329 -2.406749,-3.86589 -5.34877,1.16398 -14.164616,3.24526 -14.42154,3.46794 -0.108519,0.0941 0.675661,3.56883 1.762423,7.88354 2.658087,-2.45076 5.711545,-2.0091 7.736282,-0.6498 m 7.539946,7.23738 c 1.857916,-0.6211 4.415391,-1.1058 6.043393,-1.3003 -0.203983,-1.4647 -0.344995,-2.3878 -0.928588,-3.9039 m -43.264619,-14.34578 1.95193,7.71304 c 9.847301,3.73416 10.580958,11.21024 15.861799,10.17654 l 3.392189,-3.2974 c -1.052456,-4.36083 -2.281304,-8.95199 -2.577306,-9.24802 -0.06834,-0.0684 -18.628612,-5.34416 -18.628612,-5.34416 z m 32.500579,-16.63873 -6.59487,1.62976 c -1.387281,5.81551 -3.255439,13.089 -4.377629,17.39678 5.408376,-1.497 6.877034,-1.81121 12.96233,-3.03214 -2.136046,-5.09291 -2.807485,-10.62611 -1.989831,-15.9944 z m -27.857638,-4.16918 -4.661891,18.23069 c 7.179488,2.03322 11.349125,3.18886 18.60966,4.88924 1.533031,-4.73495 3.261784,-9.96576 4.510285,-17.47259 -4.841878,-1.50653 -7.744597,-2.43337 -18.458054,-5.64734 z m 34.945228,-20.63739 -18.135892,4.41554 c 2.55838,11.1079 4.432013,19.03856 4.548187,19.15923 0.111175,0.11546 3.348034,-0.5766 7.030737,-1.42131 1.732386,-6.85661 3.239114,-9.23266 8.376242,-14.44049 -0.551325,-2.36486 -1.162746,-4.95373 -1.819274,-7.71297 z m 2.425699,-0.24636 c 0.748819,3.13628 0.817903,3.36236 1.47816,6.1211 2.087473,-1.67849 4.358109,-3.04336 6.727533,-4.11231 z m -42.392883,0 4.737693,18.23065 c 10.404377,3.06431 18.708539,5.47401 18.761267,5.41992 0.05585,-0.0573 -1.833197,-8.54894 -4.207071,-19.10238 z m 83.307611,-0.17055 -7.333951,1.78137 c 3.37602,1.3964 6.544921,3.40238 9.342721,6.00739 z m -40.390583,34.05137 c 1.627359,9.93794 12.519999,17.40854 23.877987,16.17084 4.236599,-10.00989 7.202586,-9.52463 8.836815,-19.55109 0.06558,-8.9132 -11.654592,-3.41514 -16.98174,-3.13212 -9.150199,-0.29174 -8.694883,-11.06344 -9.687685,-12.65701 -2.825084,2.07664 -7.755962,8.56831 -6.045377,19.16938 z m 10.448361,-22.6051 c 2.982148,9.41873 3.622084,12.63777 13.132884,8.94476 7.154072,-2.07383 12.856672,0.74782 13.782838,4.13242 1.51737,5.04684 -0.951553,12.44202 -7.566984,23.95266 10.362094,-5.53527 13.639864,-17.63918 9.917764,-26.92852 -5.07064,-10.59706 -16.876476,-15.86874 -29.266502,-10.10132 z"
       inkscape:export-filename="/home/ybon/Work/osmtouch64.png"
       inkscape:export-xdpi="28.799999"
       inkscape:export-ydpi="28.799999" />
    <g
       style="stroke:none;display:block"
       id="layer4"
       transform="matrix(0.08798405,0,0,0.08595212,-111.80137,1023.2879)"
       inkscape:export-filename="/home/ybon/Work/osmtouch64.png"
       inkscape:export-xdpi="28.799999"
       inkscape:export-ydpi="28.799999" />
  </g>
</svg>
